<?xml version="1.0" encoding="UTF-8" standalone="no"?>
<!-- Created with Inkscape (http://www.inkscape.org/) -->

<svg
   xmlns:osb="http://www.openswatchbook.org/uri/2009/osb"
   xmlns:dc="http://purl.org/dc/elements/1.1/"
   xmlns:cc="http://creativecommons.org/ns#"
   xmlns:rdf="http://www.w3.org/1999/02/22-rdf-syntax-ns#"
   xmlns:svg="http://www.w3.org/2000/svg"
   xmlns="http://www.w3.org/2000/svg"
   xmlns:sodipodi="http://sodipodi.sourceforge.net/DTD/sodipodi-0.dtd"
   xmlns:inkscape="http://www.inkscape.org/namespaces/inkscape"
   width="233.67999mm"
   height="318.34668mm"
   viewBox="0 0 827.99997 1128"
   id="svg2"
   version="1.1"
   inkscape:version="0.91 r13725"
   sodipodi:docname="background2.svg">
  <defs
     id="defs4">
    <inkscape:path-effect
       effect="sketch"
       id="path-effect4220"
       is_visible="true"
       nbiter_approxstrokes="5"
       strokelength="100"
       strokelength_rdm="0.3;1"
       strokeoverlap="0.3"
       strokeoverlap_rdm="0.3;1"
       ends_tolerance="0.1;1"
       parallel_offset="5;1"
       tremble_size="5;1"
       tremble_frequency="1"
       nbtangents="5"
       tgt_places_rdmness="1;1"
       tgtscale="10"
       tgtlength="100"
       tgtlength_rdm="0.3;1" />
    <inkscape:path-effect
       effect="sketch"
       id="path-effect4218"
       is_visible="true"
       nbiter_approxstrokes="5"
       strokelength="100"
       strokelength_rdm="0.3;1"
       strokeoverlap="0.3"
       strokeoverlap_rdm="0.3;1"
       ends_tolerance="0.1;1"
       parallel_offset="5;1"
       tremble_size="5;1"
       tremble_frequency="1"
       nbtangents="5"
       tgt_places_rdmness="1;1"
       tgtscale="10"
       tgtlength="100"
       tgtlength_rdm="0.3;1" />
    <inkscape:path-effect
       effect="sketch"
       id="path-effect4216"
       is_visible="true"
       nbiter_approxstrokes="5"
       strokelength="100"
       strokelength_rdm="0.3;1"
       strokeoverlap="0.3"
       strokeoverlap_rdm="0.3;1"
       ends_tolerance="0.1;1"
       parallel_offset="5;1"
       tremble_size="5;1"
       tremble_frequency="1"
       nbtangents="5"
       tgt_places_rdmness="1;1"
       tgtscale="10"
       tgtlength="100"
       tgtlength_rdm="0.3;1" />
    <inkscape:path-effect
       effect="sketch"
       id="path-effect4384"
       is_visible="true"
       nbiter_approxstrokes="5"
       strokelength="100"
       strokelength_rdm="0.3;1"
       strokeoverlap="0.3"
       strokeoverlap_rdm="0.3;1"
       ends_tolerance="0.1;1"
       parallel_offset="5;1"
       tremble_size="5;1"
       tremble_frequency="1"
       nbtangents="5"
       tgt_places_rdmness="1;1"
       tgtscale="10"
       tgtlength="100"
       tgtlength_rdm="0.3;1" />
    <inkscape:path-effect
       effect="sketch"
       id="path-effect4382"
       is_visible="true"
       nbiter_approxstrokes="5"
       strokelength="100"
       strokelength_rdm="0.3;1"
       strokeoverlap="0.3"
       strokeoverlap_rdm="0.3;1"
       ends_tolerance="0.1;1"
       parallel_offset="5;1"
       tremble_size="5;1"
       tremble_frequency="1"
       nbtangents="5"
       tgt_places_rdmness="1;1"
       tgtscale="10"
       tgtlength="100"
       tgtlength_rdm="0.3;1" />
    <inkscape:path-effect
       effect="sketch"
       id="path-effect4380"
       is_visible="true"
       nbiter_approxstrokes="5"
       strokelength="100"
       strokelength_rdm="0.3;1"
       strokeoverlap="0.3"
       strokeoverlap_rdm="0.3;1"
       ends_tolerance="0.1;1"
       parallel_offset="5;1"
       tremble_size="5;1"
       tremble_frequency="1"
       nbtangents="5"
       tgt_places_rdmness="1;1"
       tgtscale="10"
       tgtlength="100"
       tgtlength_rdm="0.3;1" />
    <inkscape:path-effect
       effect="sketch"
       id="path-effect4376"
       is_visible="true"
       nbiter_approxstrokes="5"
       strokelength="100"
       strokelength_rdm="0.3;1"
       strokeoverlap="0.3"
       strokeoverlap_rdm="0.3;1"
       ends_tolerance="0.1;1"
       parallel_offset="5;1"
       tremble_size="5;1"
       tremble_frequency="1"
       nbtangents="5"
       tgt_places_rdmness="1;1"
       tgtscale="10"
       tgtlength="100"
       tgtlength_rdm="0.3;1" />
    <inkscape:path-effect
       effect="sketch"
       id="path-effect4374"
       is_visible="true"
       nbiter_approxstrokes="5"
       strokelength="100"
       strokelength_rdm="0.3;1"
       strokeoverlap="0.3"
       strokeoverlap_rdm="0.5;1"
       ends_tolerance="0.1;1"
       parallel_offset="3;1"
       tremble_size="5;1"
       tremble_frequency="1"
       nbtangents="5"
       tgt_places_rdmness="1;523070426"
       tgtscale="10"
       tgtlength="100"
       tgtlength_rdm="0.3;1" />
    <linearGradient
       id="linearGradient5674"
       osb:paint="solid">
      <stop
         style="stop-color:#ff0000;stop-opacity:1;"
         offset="0"
         id="stop5676" />
    </linearGradient>
  </defs>
  <sodipodi:namedview
     id="base"
     pagecolor="#ffffff"
     bordercolor="#666666"
     borderopacity="1.0"
     inkscape:pageopacity="0.0"
     inkscape:pageshadow="2"
     inkscape:zoom="0.12374369"
     inkscape:cx="-1675.806"
     inkscape:cy="696.25259"
     inkscape:document-units="px"
     inkscape:current-layer="layer1"
     showgrid="false"
     fit-margin-top="0"
     fit-margin-left="0"
     fit-margin-right="0"
     fit-margin-bottom="0"
     inkscape:window-width="1440"
     inkscape:window-height="897"
     inkscape:window-x="-8"
     inkscape:window-y="-8"
     inkscape:window-maximized="1" />
  <metadata
     id="metadata7">
    <rdf:RDF>
      <cc:Work
         rdf:about="">
        <dc:format>image/svg+xml</dc:format>
        <dc:type
           rdf:resource="http://purl.org/dc/dcmitype/StillImage" />
        <dc:title />
      </cc:Work>
    </rdf:RDF>
  </metadata>
  <g
     inkscape:label="Layer 1"
     inkscape:groupmode="layer"
     id="layer1"
     transform="translate(-211.79457,-116.50621)">
    <path
       inkscape:connector-curvature="0"
       style="fill:none;fill-opacity:0.60355033;stroke:#000000;stroke-width:1;stroke-linecap:round;stroke-linejoin:round;stroke-miterlimit:4;stroke-dasharray:none;stroke-dashoffset:0;stroke-opacity:1"
       d="m 925.08622,202.12347 c 10.50445,1.07706 19.63973,5.63225 26.42118,12.43308 8.21547,8.23895 13.01253,19.80892 12.58654,32.62211 -0.168,5.05315 -0.34831,10.10649 -0.52615,15.14848 m -1.36531,-29.59205 c 0.10795,1.42363 0.15309,2.8698 0.13237,4.33552 -0.31328,22.15774 0.37411,44.94517 1.43727,67.8586 m -6.48015,-9.71848 c -1.0773,24.4295 -0.38444,48.70941 0.30472,72.15371 m 5.59461,-13.91352 c 1.44799,32.75707 0.69208,64.03357 1.70315,96.71051 m -8.14922,-36.01815 c -0.84915,27.56001 1.32941,55.7204 4.73603,82.95396 m -0.51729,-15.095 c -0.79693,26.23793 0.70791,49.86803 3.11913,72.16468 m -7.22068,-13.61759 c -0.72882,24.90548 0.58136,49.531 2.69777,73.88543 m 4.84179,-20.69833 c 0.47515,23.18318 -0.44305,47.57513 -2.06512,72.84832 m -1.02075,-13.6232 c 0.82747,31.2916 -0.29253,60.39524 -1.21555,88.74455 m 3.20727,-26.64015 c -0.60368,31.72302 0.89553,62.0093 2.96391,94.36939 m -4.87728,-23.80929 c 1.34785,27.79159 0.50952,54.76722 0.18708,81.70288 m -4.95272,-25.28743 c 1.42971,30.79803 0.19006,59.38489 -0.27131,87.65644 m -1.13504,-16.54802 c 1.05559,28.12625 1.22549,58.07317 2.73152,90.40908 m 3.83022,-28.24743 c -0.93792,25.70163 -1.25434,51.11333 -2.46009,78.16333 m 2.34334,-22.3074 c 0.15408,25.6211 -0.75235,52.3475 -2.40257,78.8501 m 0.68359,-15.9821 c -0.13956,8.5501 -0.12638,17.048 0.0138,25.5371 0.2138,12.9492 -4.41366,24.6061 -12.05785,33.2222 -6.5818,7.4186 -15.36618,12.5418 -25.15222,14.2914 m 22.52606,-10.8987 c -7.57056,6.2846 -17.30627,9.8206 -27.9565,9.4112 -22.24279,-0.8549 -44.77884,-3.0168 -67.01799,-5.8779 m 26.81052,1.1365 c -32.56711,0.7785 -64.75883,1.7659 -96.24459,5.2171 m 26.50652,-6.5844 c -27.24575,0.2459 -53.42184,-0.514 -78.19459,-1.7731 m 8.42017,9.1947 c -29.03083,-0.669 -58.27775,-0.6909 -85.23767,-1.7019 m 25.09066,0.5301 c -31.07929,-0.3692 -63.19244,-1.0673 -95.221,-3.1067 m 30.21002,1.1141 c -33.61307,-1.6071 -64.52638,0.6755 -95.41995,2.1761 m 25.7603,1.4961 c -31.48921,-0.5554 -63.09693,-2.7639 -94.61912,-8.1038 m 20.87421,7.5961 c -33.746,-0.3494 -65.45221,-0.1069 -96.94254,-0.3089 m 30.8503,-9.2609 c -22.37201,0.9902 -45.85064,1.7867 -69.48297,3.8247 -7.31133,0.6305 -14.23409,-0.2688 -20.41025,-2.3133 m 27.30552,6.8085 c -1.21776,-0 -2.43498,-0 -3.65173,-0 -12.91327,0.01 -24.51902,-4.9692 -33.00487,-13.023 -7.52901,-7.1458 -12.57919,-16.696 -13.90404,-27.303 m 6.96861,17.4531 c -2.51302,-5.951 -3.88689,-12.4867 -3.81781,-19.33 0.23166,-22.9516 0.363,-45.3657 0.85758,-68.1693 m -2.85098,23.6411 c -0.92651,-24.4962 -0.87996,-49.9192 -1.42366,-75.4835 m -0.80254,18.4562 c -0.0107,-27.46322 0.85056,-57.42025 2.56592,-88.70976 m -5.80832,14.43998 c -0.72277,-34.13111 0.62242,-65.03684 1.88339,-95.87447 m 0.0698,37.41632 c -0.35233,-26.13897 0.60522,-54.01564 2.15219,-81.18629 m 9.56679,11.62691 c 0.29127,-27.3928 0.008,-54.97332 -0.22163,-82.25237 m -3.2939,23.56797 c 0.6075,-30.54442 -1.21885,-59.92363 -3.92064,-88.21984 m 0.71715,17.35519 c -0.50172,-31.68373 0.0394,-62.3792 0.27237,-92.95859 m 4.80636,20.88625 c 1.2903,-29.26294 0.14448,-57.47611 -0.43512,-84.04062 m -9.95605,34.57701 c -0.33649,-30.25318 0.84945,-61.48881 2.66445,-92.30797 m -0.98508,9.86421 c -1.0147,-24.94892 -0.54179,-48.22855 -0.11578,-71.52031 m 3.28055,26.32061 c 0.59228,-20.70244 -0.64317,-41.46324 -3.04405,-62.49322 0.24661,-0.007 0.493,-0.0142 0.73917,-0.0214 -0.35358,11.74942 2.02859,22.90633 6.82168,32.32077 m 1.71147,-21.46248 c 7.47286,33.25821 35.33645,56.66295 69.72364,57.36086 m -36.40657,-21.99575 c 8.6891,3.8148 18.16239,5.91781 27.86441,6.22348 15.51713,0.48177 30.89076,-3.64851 44.02806,-11.53659 m -13.23867,22.43205 c 24.46081,-10.68287 42.80889,-36.77794 46.01686,-66.17782 0.29783,-2.7688 0.45839,-5.54024 0.48095,-8.30163 m -6.76956,18.25688 c 1.04735,-5.36583 1.59198,-10.74242 1.61211,-16.05137 0.0432,-19.99404 -7.3747,-37.82164 -20.64442,-49.52041 5.46372,-3.81892 10.34367,-8.26621 14.50223,-13.22182 m -5.2511,22.3198 c -1.62262,-1.7412 -3.32766,-3.39999 -5.10922,-4.9702 14.87765,-13.28055 23.60309,-32.33104 23.73029,-52.37718 0.0158,-3.05869 -0.16919,-6.11423 -0.55463,-9.14706 m -1.679,12.60826 c 0.19265,-2.5283 0.25038,-5.08758 0.17022,-7.6635 -0.73663,-22.78692 -12.18302,-45.055 -31.88043,-58.38155 m 9.64705,10.56891 c -12.92118,-13.74879 -29.69871,-21.95333 -47.46408,-23.04022 0.0175,-0.35386 0.039,-0.70663 0.0497,-1.0617 5.88804,0.0576 11.799,0.12466 17.71011,0.1949 m -17.88891,5.21925 c 29.42915,0.95731 60.13299,-0.61208 91.82267,-2.47678 m -25.93681,-1.15636 c 32.9545,-0.0128 66.14964,0.40146 99.8471,1.25264 m -35.02464,-3.63565 c 31.28249,-0.61733 62.51711,-0.11069 95.88077,0.0149 m -24.78469,-1.14762 c 33.24164,-0.27276 63.5813,-0.34574 90.97709,-1.04984 m -21.42211,2.80748 c 32.67879,-0.80602 61.42243,-1.71729 89.98879,-4.88756 m -22.23797,-2.7688 c 30.49936,-1.12956 61.70278,0.0106 91.9879,0.46208 m -18.03549,4.38227 c 28.68104,0.65154 57.06473,-1.01578 85.95628,-3.56404 m -30.5018,-2.06165 c 25.19483,-1.19056 52.292,0.99069 79.26235,4.31554 0,0 0.003,0.0127 0.003,0.0127 1.92341,0.23733 3.81857,0.58866 5.67849,1.04737 m -29.27053,7.00783 c 5.27826,0.0637 10.58619,0.1158 15.92512,0.16088 0,0 0.002,8.5e-4 0.002,8.5e-4 12.8732,0.10846 24.65054,5.27326 33.429,13.63171 6.56355,6.24953 11.43846,14.27057 13.86874,23.2992 m -32.07331,-43.68428 c 8.94205,1.75761 16.84497,6.0972 22.90794,12.1909 8.10989,8.15098 12.9453,19.4652 12.51111,31.91894 -0.40087,11.49794 -0.91293,22.93394 -1.52315,34.27216 m 5.4235,-22.94236 c -1.1071,27.5643 -0.049,55.12124 1.00615,83.74837 m -3.93568,-25.00213 c -0.69105,25.98468 0.99713,54.69752 3.70787,83.64896 m 6.01897,-25.24505 c 0.0611,25.80939 -1.83014,53.45402 -5.56189,82.02442 m -9.04717,-18.47615 c 1.01334,30.13189 2.02351,58.92988 5.50028,87.14983 m 4.14739,-26.81981 c -1.25916,28.64651 -1.41617,60.2287 -3.40582,93.24284 m -1.32007,-21.35937 c 0.76723,31.70485 -0.041,62.31554 -0.34764,91.86422 m 3.12066,-24.99981 c -0.43696,24.40955 0.38809,50.53835 1.73906,76.56824 m -3.57509,-24.9052 c -0.65707,24.2833 -0.33074,48.83527 -0.0783,73.49452 m 2.8125,-6.19383 c -1.34652,31.15259 0.45896,61.76247 2.06474,93.44082 m -3.3144,-30.70144 c -0.24565,24.33606 1.17289,49.28415 3.88256,75.02523 m 3.92996,-12.3248 c -0.21035,24.63696 -0.56199,50.89538 -1.43997,76.98844 m 1.20601,-23.29048 c 0.79361,22.91066 -0.50897,47.54708 -2.65676,72.35869 m -6.64014,-9.68042 c 0.82671,27.50162 1.1827,52.73442 2.63864,77.68302 m -4.08406,-26.1939 c 0.5039,25.5416 0.21253,50.7691 -0.003,76.1075 -0.003,0.3742 -0.0108,0.7473 -0.0227,1.1193 m 4.82946,-14.3641 c -0.17812,5.6176 -0.34317,11.1993 -0.51023,16.7498 -0.38087,12.6542 -5.84472,23.9249 -14.6389,31.9389 -8.78843,8.0089 -20.90081,12.7641 -34.62262,12.3158 -3.21505,-0.105 -6.44917,-0.2134 -9.70466,-0.3244 m 34.19369,-10.5722 c -6.08831,2.5026 -12.66333,3.8675 -19.43629,3.7804 -21.28709,-0.2739 -40.97257,-0.3206 -60.27815,-0.7277 m 21.65856,10.1612 c -24.3784,-0.7048 -48.42167,-0.9184 -72.11576,-1.7805 m 6.29948,0.336 c -27.88607,1.2994 -55.95905,0.3244 -85.40889,-0.3162 m 29.52423,-3.2785 c -29.36687,-1.2786 -62.63995,0.9955 -97.42253,3.6549 m 27.05669,-2.2875 c -32.3942,-0.7778 -62.02286,-1.7614 -92.2167,-4.9782 m 22.1716,3.8068 c -22.95516,0.5465 -47.26493,0.2984 -71.74066,0.094 m 10.4914,5.1407 c -23.52735,0.4532 -46.10431,0.3193 -67.48655,0.2755 m 16.57766,-6.1738 c -25.35097,0.7771 -48.23755,0.3224 -70.36408,-0.1508 m 21.11317,2.0645 c -27.25574,0.032 -55.28793,-0.8073 -84.54336,-2.4425 m 10.58014,1.3874 c -17.77194,-0.8143 -34.99742,-0.22 -51.6329,1.0764 -11.83463,0.9223 -22.21673,-3.0062 -29.17984,-10.0248 -1.96945,-1.9852 -3.66385,-4.2168 -5.0363,-6.6532 m 23.37206,15.3078 c -6.41013,-2.4348 -12.07509,-6.0725 -16.68961,-10.6029 -8.27321,-8.1223 -13.17201,-19.1291 -12.80259,-31.065 0.19025,-6.1469 0.41563,-12.2241 0.6574,-18.2458 m 5.60407,12.0214 c 1.16075,-24.3162 -0.0514,-46.6038 -1.93834,-68.2144 m -4.3907,18.3654 c -0.99655,-23.2298 -0.83709,-48.7178 -1.08498,-75.1617 m 2.76506,18.155 c -0.0737,-27.098 -0.6919,-53.84966 -1.97206,-80.64216 m -3.53552,14.06838 c 0.51792,-25.48195 1.32456,-50.71012 3.32173,-76.47062 m -3.79093,12.42617 c -0.58628,-23.1707 0.38052,-46.63843 1.99738,-69.36535 m 0.69812,16.82095 c -0.1356,-25.60412 0.98241,-50.10653 3.14117,-74.74121 m -0.71972,24.54879 c -1.18258,-24.21726 -0.13473,-48.77872 1.25249,-73.34262 m -1.52538,10.58607 c 0.20895,-28.8716 -1.49773,-58.98254 -4.60909,-88.18039 m 9.60899,27.90392 c -0.0827,-23.91759 0.32834,-48.01307 1.097,-72.83431 m -12.85478,18.06553 c -0.0111,-29.38751 1.37697,-58.69897 4.16812,-88.57635 m -3.6998,14.23712 c -1.09446,-24.58115 -0.34783,-49.67673 0.292,-73.23454 m 1.70025,23.31669 c -1.11886,-29.01491 0.96781,-60.55046 3.52146,-91.7873 m 9.87751,16.98645 c 0.14896,-9.50562 0.1358,-18.72316 -0.005,-27.74659 0.27498,0.002 0.54983,0.004 0.82456,0.006 1.11655,15.35176 6.8271,30.32726 16.32025,42.38474 m -12.62584,-7.16208 c 12.85584,22.91848 36.16894,35.77615 61.69171,34.30805 7.35027,-0.42624 14.67782,-2.03503 21.7413,-4.75749 m -26.27528,0.59219 c 1.9928,0.15448 3.99209,0.23757 5.9932,0.24891 25.59589,0.13316 49.11133,-11.4372 62.80794,-29.8265 m -19.31714,16.94632 c 12.58629,-12.58452 20.15605,-30.58916 20.4865,-49.57241 0.23465,-14.85136 -3.97902,-29.44443 -12.27817,-41.552 m 3.41402,25.78189 c -3.50504,-14.93327 -11.18024,-28.39111 -22.1825,-38.59465 7.41974,-6.54941 13.5059,-14.5676 17.81796,-23.59731 m -1.99116,22.08126 c 10.19983,-11.62947 15.58731,-27.14602 15.65817,-43.61809 0.0598,-18.76381 -6.7542,-37.46218 -18.55731,-52.12632 m 18.43893,17.56351 c -8.16696,-27.5978 -32.22056,-44.65283 -58.92909,-44.63233 0.0112,-0.14281 0.0231,-0.28545 0.0346,-0.42815 m 19.59457,2.32539 c -5.88226,-2.14636 -12.17568,-3.44698 -18.64644,-3.84279 0.0168,-0.35385 0.0373,-0.70688 0.0467,-1.06218 22.5082,0.20337 44.14978,0.0879 66.36654,0.28369 m -27.02959,5.15176 c 29.39399,-0.71565 57.65988,-2.00555 84.45175,-5.57991 m -18.52691,5.18992 c 23.20799,0.91219 46.14596,-0.94273 68.5604,-4.21435 m -14.67699,3.39392 c 30.61747,0.86799 61.79945,1.01773 91.76099,2.76449 m -21.96626,1.88318 c 26.14674,-1.32004 54.00723,-0.69594 81.78793,-0.7326 m -22.16007,-5.12652 c 32.55092,-0.75354 65.139,-0.36589 98.81483,-0.948 m -34.86723,3.33129 c 33.74702,0.78333 67.0749,0.0361 103.95652,-0.0348 M 797.352,188.7399 c 23.52364,-0.0457 46.45914,0.31024 68.93252,0.9818 m -7.10131,5.03397 c 20.24496,0.26398 40.81197,0.1628 60.64071,0.003 10e-6,0 -0.006,-7.6e-4 -0.006,-7.6e-4 9.93813,-0.0802 18.88264,3.39279 25.58163,9.31976 m -13.19138,-5.85924 c 8.95347,1.35359 16.96977,5.71698 23.04598,12.07224 7.85787,8.21877 12.52613,19.82955 11.78726,32.68469 -0.52773,9.1818 -1.18271,18.37548 -2.03543,27.50359 m -0.52621,-26.10718 c 0.1417,23.88172 -0.75504,48.39892 -2.46635,73.02092 m 0.31764,-19.30431 c -0.55185,26.13395 0.79671,53.01599 3.01304,80.53048 m -5.23943,-23.41817 c -0.13257,27.73104 -0.008,57.37912 0.10096,87.69347 m 0.8755,-22.27723 c -0.40059,27.95329 1.06413,55.70341 3.58864,83.64518 m -5.97177,-20.99601 c -1.18485,24.49133 -0.41691,51.76698 0.18706,79.63311 m 3.4459,-16.9803 c -0.9705,31.58955 -0.25737,63.18913 -0.3551,96.19431 m -7.6137,-30.37969 c -1.16783,32.96481 0.25347,62.64477 1.01399,91.321 m 4.92433,-24.79589 c 1.48289,32.56808 -1.82014,63.98009 -5.58059,93.75406 m 9.29117,-22.27862 c 0.24208,26.5598 0.0719,52.74822 -0.0974,79.90188 m -2.44214,-24.09263 c -1.23465,32.09599 -1.08423,63.16572 -2.89083,94.52997 m -1.32777,-20.89066 c -0.74224,32.13791 1.85991,59.05671 5.94079,84.51017 m 4.13778,-19.33366 c 0.60898,30.91554 -1.76184,60.82907 -5.59269,91.93457 m 4.96716,-24.7322 c -0.92611,29.4487 -1.39739,56.2845 -3.46909,82.4802 m -0.0465,-14.4763 c -0.4572,15.7779 -0.58725,30.5339 -0.67802,44.5012 -0.0627,9.6506 -3.7031,18.1527 -9.8617,24.3976 m 10.16449,-20.5122 c -2.45666,7.6741 -6.60688,14.6156 -11.9906,20.3168 -8.22762,8.7128 -19.25736,14.4487 -31.35107,15.5115 -6.5899,0.5791 -13.12381,1.2603 -19.63572,2.0515 m 15.86965,0.2596 c -29.86603,-0.2125 -59.32133,-1.0444 -87.56347,-3.0216 m 24.89685,-5.4548 c -26.73545,0.2291 -51.56097,0.958 -76.67604,2.5937 m 13.70029,7.9136 c -26.61684,-1.1744 -51.74265,-1.068 -75.80025,-1.8898 m 12.20701,2.8666 c -25.23927,-0.4623 -49.783,-0.4648 -74.5583,-0.7751 m 18.94828,0.5407 c -26.54478,-0.5773 -51.88921,-2.0339 -76.32744,-5.4385 m 8.5549,-7.2957 c -23.29769,-0.1758 -46.67164,0.9217 -69.46593,3.0242 m 24.58421,4.0856 c -25.53469,0.9643 -51.28671,1.9553 -75.92042,4.7637 m 10.28553,-6.7563 c -24.39021,-0.076 -48.30633,0.3638 -71.56779,1.2055 m 7.66458,-1.8697 c -29.19074,-0.4385 -60.28388,0.7773 -90.35326,2.5218 m 29.62239,7.8693 c -11.16988,0.3689 -22.71471,0.436 -34.50855,0.3337 -12.9827,-0.1126 -24.9862,-5.5142 -33.9207,-14.1003 -5.10948,-4.9102 -9.22124,-10.8645 -11.96357,-17.4837 m 20.74756,6.0473 c -1.09222,-0.9819 -2.14217,-2.0111 -3.14547,-3.0839 -7.83343,-8.3762 -12.80765,-19.4082 -12.82333,-31.1649 -0.0138,-10.3737 -0.14152,-20.3546 -0.21223,-30.0198 m 6.89109,26.618 c 0.55041,-27.2072 -0.96491,-54.8125 -3.45923,-83.0016 m -11.81409,14.8944 c 0.89762,-29.1038 2.1403,-55.54836 5.64293,-81.63189 m 6.23195,19.98021 c 0.60673,-29.26414 0.85302,-58.72436 2.14154,-88.26174 m 0.16269,18.44878 c -0.64893,-26.01109 -1.96719,-51.04412 -5.1382,-75.20851 m -3.84574,22.18029 c 0.44438,-25.03962 0.47566,-50.47899 0.84661,-75.88571 m 9.2309,16.78226 c -1.39261,-32.46123 -1.84112,-65.11879 -5.26469,-98.90856 m -8.01644,31.69085 c -0.74575,-22.90128 0.2991,-47.72392 2.00037,-72.96644 m 4.24974,9.76988 c -0.59966,-28.1827 0.84253,-57.38976 2.89507,-84.40688 m -5.59011,20.8256 c 0.23401,-32.35387 -1.26529,-66.39683 -3.78913,-99.20904 0,0 -7.6e-4,-0.01 -7.6e-4,-0.01 m -3.78826,30.42916 c 0.1306,-28.82819 1.69242,-56.58049 4.95292,-85.4277 m -2.41384,22.99322 c 0.17921,-28.54569 1.09668,-59.4926 3.17964,-92.62484 m -5.28865,24.07749 c 0.46201,-10.79154 0.91784,-21.44106 1.5137,-31.92959 0.29464,0.009 0.58937,0.0188 0.8842,0.0283 2.38786,16.96625 10.81709,33.24389 24.56556,46.20486 m -3.1738,-11.20458 c 13.41143,22.04658 35.05211,35.58042 57.65699,34.14083 2.14593,-0.13781 4.27983,-0.41143 6.39284,-0.82117 m -20.99899,-4.77089 c 4.40975,0.77497 8.83073,1.18797 13.21708,1.23243 29.67052,0.28692 54.3085,-16.30093 62.91005,-41.03679 m -18.27027,28.00753 c 12.33765,-13.77857 19.10042,-30.73182 18.62975,-47.89819 -0.37468,-12.85658 -4.80447,-25.15942 -12.8896,-35.51647 m 11.0788,11.95499 c -2.56935,-14.87351 -9.9146,-28.4475 -20.59663,-38.76435 11.58566,-9.92721 20.02753,-23.14812 24.54761,-37.91903 m -2.75842,30.70643 c 7.59844,-11.73257 11.18367,-24.88169 10.57273,-38.19699 -0.96671,-20.54862 -11.81572,-39.90848 -29.37916,-54.04326 m 25.76829,22.86885 c -11.7376,-22.52786 -33.83661,-37.6203 -59.3217,-38.30434 0.003,-0.11032 0.006,-0.22054 0.009,-0.33075 m 9.78582,3.46324 c -5.33081,-1.72426 -10.76207,-2.87233 -16.19387,-3.43083 0.0128,-0.36889 0.0298,-0.7369 0.0361,-1.10757 24.04502,-0.7983 49.31921,-2.6029 75.19687,-5.91596 m -20.9686,8.59461 c 29.15169,-0.32241 60.18695,-1.09944 89.5496,-3.15792 m -34.21727,-2.9357 c 28.34331,0.0846 55.25047,0.45645 83.25817,1.25087 m -24.68574,4.76516 c 30.50326,1.28365 61.77405,-1.60475 95.29849,-5.55495 m -22.47706,-1.16389 c 31.8808,1.0905 65.13914,0.85966 100.22187,2.30689 m -26.50951,-3.47862 c 28.94721,1.36686 55.25316,-0.42717 81.33784,-2.54496 m -27.22364,0.74737 c 29.88355,-0.68574 60.69168,1.15575 92.70375,3.87536 m -20.98215,-1.21851 c 27.80648,1.00179 53.81949,0.54938 79.59433,0.64066 m -14.44153,-1.89122 c 16.80104,-0.32305 33.82256,0.11167 50.99373,1.04689 0,0 0.002,0.006 0.002,0.006 7.232,0.39471 14.09836,2.46307 20.24528,5.84678 m -29.23312,-0.26907 c 11.52432,0.20831 22.4606,5.2668 30.84727,13.34694 8.78702,8.46586 14.77343,20.21785 16.03909,33.36341 0.60518,6.28571 1.27275,12.59253 1.97713,18.90961 M 954.96098,232.587 c 0.12848,1.70628 0.17098,3.44192 0.12209,5.20157 -0.78732,28.33724 1.28727,56.56152 3.61391,83.60826 m 2.61922,-23.78872 c 1.02022,27.46277 -0.33384,56.75772 -1.91802,86.52688 m 7.89406,-25.07087 c -0.43621,27.88862 -0.69938,55.64705 -1.66166,84.59675 m -0.56498,-22.63891 c -0.62144,25.04539 0.41965,50.86587 2.03063,76.33055 m 0.86043,-18.27203 c 0.60341,32.60775 0.19614,63.07706 0.35715,94.30264 m -9.26382,-20.0225 c -0.70665,32.68682 2.18408,61.78484 6.78159,91.18383 m -0.45297,-25.16422 c 0.86596,30.3932 -1.33033,62.60055 -4.26621,93.09152 m 0.20294,-23.02269 c -1.66191,34.8264 0.89347,66.46075 2.68375,99.5708 m -1.19914,-39.93848 c -0.75438,29.23545 0.414,58.44604 1.77771,88.50624 m -0.996,-13.38766 c 0.6498,31.03792 0.0179,66.9032 -0.0366,103.05483 m -0.7841,-35.00538 c -0.48276,28.87563 -0.85085,59.0901 -2.26835,89.38166 m -2.10676,-28.11389 c -0.65587,24.04479 0.18046,48.82262 1.47677,73.85362 m 6.99989,-20.4074 c -0.59497,34.6757 -2.275,66.1738 -6.78007,99.1809 m -1.57864,-22.4331 c 0.58601,11.7564 0.86734,23.517 1.07289,35.186 0.21704,12.3215 -4.76686,23.3522 -12.76176,31.0237 -2.77015,2.6581 -5.90346,4.9149 -9.30896,6.6839 m 15.23241,-15.4685 c -1.62653,2.4165 -3.5,4.6799 -5.58601,6.7541 -8.09013,8.0445 -19.35338,13.2229 -31.79545,13.52 -8.80567,0.2103 -17.57772,0.5208 -26.28235,0.8619 m 11.86313,4.0143 c -30.10304,-0.5284 -60.81146,1.1295 -92.12376,3.6789 m 26.49304,-4.2254 c -34.54002,0.7472 -65.83166,0.9554 -98.4103,2.8305 m 36.60901,3.7319 c -26.20121,0.1274 -50.93871,-1.1863 -75.98157,-3.7204 m 15.70319,-5.5763 c -33.92336,0.8899 -65.89996,1.2979 -98.56425,3.7962 m 30.69961,-1.2963 c -31.18414,0.4584 -61.61663,0.6551 -93.99484,1.7301 m 28.59895,-6.4566 c -31.40516,0.6854 -62.14434,1.7031 -95.11129,4.7173 m 26.41582,-0.1085 c -29.70985,-1.0133 -60.2668,-1.3578 -90.52888,-3.5454 m 20.72823,7.1399 c -24.80914,0.9602 -47.78823,0.3054 -70.68499,-0.4932 m 12.77359,-6.3819 c -17.61388,0.5127 -33.93137,0.6597 -49.54848,0.8291 -11.75835,0.1276 -22.00687,-4.8456 -28.95258,-12.8423 -0.33461,-0.3853 -0.66155,-0.7775 -0.98063,-1.1766 m 14.31857,18.5649 c -7.07005,-2.4303 -13.25666,-6.4625 -18.13466,-11.6837 -7.97075,-8.5315 -12.48078,-20.2824 -11.47679,-33.3889 0.67761,-8.8459 1.50689,-17.7575 2.46815,-26.7765 m 3.37564,14.1259 c 0.54384,-26.1376 -1.65648,-52.1725 -5.5549,-77.7721 m 4.85158,21.5682 c 0.0282,-23.0319 0.5913,-46.5774 1.75433,-69.20964 m -7.22279,4.27752 c 0.86288,-28.67602 0.0196,-55.60321 -0.62548,-81.52297 m 4.18035,25.03369 c 1.25766,-27.08474 0.7816,-53.14362 0.89727,-79.81836 m -5.85854,21.18288 c 0.38698,-25.15546 0.6647,-49.89439 1.51544,-73.76843 m -4.21042,11.66141 c 1.56677,-32.33156 0.6574,-64.99362 1.66142,-97.91693 m 0.25203,32.82506 c -0.31908,-25.05001 -0.0759,-48.34808 0.21608,-71.473 m 12.9873,15.78397 c 0.35165,-26.43213 -1.33991,-53.32733 -4.39424,-78.90154 m 1.50354,9.05035 c 0.12219,-23.68193 -1.45119,-47.5145 -4.52674,-70.76877 m -1.21554,16.63706 c -0.0973,-26.09357 0.25308,-50.66536 0.88037,-75.67581 m -5.76289,25.0412 c 0.80946,-33.78705 -0.51928,-63.7301 -1.65991,-93.7946 m 10.99519,24.12308 c -0.93272,-23.80318 -1.71776,-47.07076 -3.68197,-70.99924 0.25541,-0.0118 0.51064,-0.0237 0.7657,-0.0356 0.006,2.0258 0.0973,4.03596 0.27313,6.02315 m -8.68485,4.2184 c -0.0926,-3.52214 -0.1747,-7.03062 -0.24927,-10.52959 0.27315,-0.009 0.54635,-0.0186 0.8196,-0.0278 1.84964,26.29558 19.83035,49.37819 44.51386,56.71315 m -9.37555,-6.15709 c 12.42285,11.24038 28.09923,17.3993 44.17873,18.06723 10.70503,0.43955 21.20599,-1.5693 30.6368,-5.64905 m -28.30832,-0.47732 c 29.14516,-6.03703 52.09951,-27.95649 58.38725,-56.03232 m 0.0975,20.9158 c 5.48891,-9.72097 8.34616,-20.69669 8.45063,-31.89396 0.12939,-16.82735 -5.95487,-33.21813 -16.76607,-45.9117 m 10.02622,19.31823 c -4.35513,-8.95899 -10.40241,-17.15292 -17.84724,-24.02155 15.05806,-13.7382 24.13811,-33.96918 24.4154,-55.58847 0.0191,-1.62505 -0.0117,-3.2519 -0.0926,-4.87808 m -6.37407,25.98997 c 2.16262,-6.86587 3.35203,-13.89939 3.52011,-20.84415 0.38602,-16.804 -5.24038,-32.20853 -15.66064,-42.66395 m 7.26939,7.4739 c -11.70167,-19.42127 -33.02602,-33.56096 -57.2484,-36.45817 -0.001,-0.37635 0.002,-0.75206 -0.006,-1.12995 2.31103,-0.1288 4.61778,-0.26138 6.92001,-0.39598 m -2.59332,4.07227 c -3.24002,-0.66928 -6.49371,-1.1406 -9.74077,-1.4108 0.009,-0.36225 0.0224,-0.72374 0.025,-1.08788 22.95201,-0.35255 47.24139,-1.9111 72.20121,-4.63796 m -16.02773,-3.60611 c 25.59654,-1.27025 52.82052,-0.0415 79.12704,1.18499 m -18.13918,2.25257 c 24.27481,-1.05163 49.40791,-0.70905 73.84138,-0.75205 m -8.95296,6.2208 c 31.86729,-1.32164 62.36934,0.0496 92.92234,0.60795 m -30.57666,1.18916 c 24.86435,-0.46189 49.18594,-0.14473 72.42835,0.14505 m -12.34532,0.0118 c 30.12136,1.3467 61.41125,0.94167 91.39228,2.29239 m -29.3668,-3.93339 c 25.15253,0.16165 51.07957,-0.83939 76.4149,-2.73196 m -8.48808,8.78696 c 32.35988,1.23193 65.12649,-1.01297 95.76899,-3.10388 m -33.68362,-6.23276 c 18.16535,-0.62443 37.46696,-0.0818 57.03508,1.02584 -10e-6,-1e-5 0.003,0.006 0.003,0.006 5.17528,0.29346 10.16986,1.42001 14.84595,3.24908 m -8.55423,2.24465 c 10.54117,1.38563 20.21852,6.26003 27.75898,13.47427 8.72709,8.34953 14.53339,19.76679 15.62093,32.49107 0.83561,9.77677 1.84497,19.57502 2.99977,29.44749 m -2.89466,-29.58756 c 1.09727,23.14375 -0.45211,48.15539 -2.9274,73.31682 m 1.36456,-19.63943 c 0.31957,25.12964 -0.75441,51.73192 -2.63106,77.39368 m 2.94295,-20.02735 c -1.28864,26.98244 -2.00173,52.87609 -4.51886,79.14902 m 6.94077,-13.67733 c -1.27317,28.24542 -1.18477,55.99333 -2.39717,84.03528 m 1.30437,-28.35861 c 1.24981,25.23501 0.47926,50.67912 -0.14708,76.02707 m 1.27954,-8.33461 c 0.35004,23.70017 0.49342,49.29288 1.00728,74.78293 M 961.12051,590.92 c -0.0616,30.58774 -0.52663,65.03351 -1.53684,100.86991 m 4.62326,-27.22599 c 1.32902,29.13671 -1.33076,56.52088 -5.06776,83.83387 m 2.09871,-20.4518 c 0.38226,23.76834 0.0775,47.81607 -0.3137,71.95919 m 2.11063,-14.42655 c 0.5863,26.4538 0.35086,50.82162 0.37466,73.28747 m 0.0936,-9.52132 c -0.76162,28.73468 -0.26588,54.65673 -0.092,79.59488 M 959.949,903.82757 c 1.01025,28.98504 -0.50958,59.62132 -2.24152,91.70978 m 3.49166,-23.01136 c 1.4776,31.65281 -0.47477,60.40641 -2.10156,89.06791 m 6.00727,-28.3598 c -0.13766,25.7796 0.49611,52.0914 1.65471,79.9246 m -7.67034,-17.0821 c -0.0387,7.1699 -0.0496,14.3009 -0.0382,21.4063 0.0205,12.7326 -4.99646,24.1486 -13.15374,32.3922 -8.15734,8.2437 -19.4436,13.3013 -31.94453,13.3131 -1.08493,0 -2.16976,0 -3.25451,0 m 34.16277,-7.0801 c -6.90019,4.2255 -15.0216,6.6503 -23.7833,6.6916 -22.76623,0.1073 -46.00477,-0.087 -69.89712,-0.056 m 29.91329,-1.3051 c -32.95976,-1.1347 -67.04354,-1.5436 -104.12978,-4.4356 m 25.42567,2.4049 c -31.50132,0.7402 -62.07889,2.1447 -91.50231,6.211 m 23.4611,-1.3281 c -29.08997,0.9446 -60.33698,-0.9749 -90.90356,-3.4481 m 27.28525,5.9865 c -26.62148,-1.0556 -52.74885,-1.1779 -78.63831,-2.3969 m 14.90056,2.6316 c -27.49661,-0.2031 -58.0619,0.7445 -88.50356,2.3731 m 28.58367,-7.2953 c -29.37085,-1.039 -57.49722,-0.9691 -85.42474,-2.1671 m 24.56785,7.9878 c -29.16329,0.1771 -57.8293,0.059 -87.77041,0.038 m 26.28152,-6.327 c -27.81204,1.2764 -56.59717,0.7618 -87.0539,1.0485 -2.42511,0.023 -4.82005,-0.1015 -7.17544,-0.3622 m 24.95311,4.3523 c -5.58874,0.022 -11.2855,0.026 -17.07619,0.013 -12.79473,-0.03 -24.75384,-5.2405 -33.79686,-13.6703 -5.52144,-5.1471 -9.95617,-11.4907 -12.86604,-18.6014 m 8.50895,13.5875 c -6.27213,-8.0836 -10.08436,-18.1228 -10.20051,-28.9307 -0.1431,-13.3155 -0.43634,-26.3821 -0.8241,-39.3472 m 0.39301,13.8673 c -0.85252,-24.18 -1.02251,-49.544 -1.98507,-74.5673 m -0.31951,10.1592 c -0.64714,-26.3233 -0.9895,-52.86186 -2.32199,-77.9689 m 8.6892,15.38776 c -0.50204,-23.75532 -0.89518,-46.53729 -1.95339,-68.2692 m -1.24942,22.90158 c 0.25071,-25.92771 0.33882,-51.35708 0.71164,-76.74353 m -4.93011,12.55331 c 0.90582,-22.88279 0.05,-48.06533 -1.14178,-73.94493 m 3.40721,20.01723 c 0.52158,-26.76729 -1.21174,-54.03385 -4.13812,-80.76631 m 5.50548,17.10779 c 0.98983,-26.71273 0.66619,-53.94885 1.07345,-79.96882 m -5.87863,16.63649 c -0.36457,-27.65633 0.58408,-55.04918 2.13574,-82.54583 m -2.95568,20.58188 c 0.58759,-25.16196 0.35654,-50.081 0.26599,-76.16277 m 4.10873,26.13015 c -0.12574,-33.72199 -0.0322,-64.9586 -0.038,-97.99111 m 2.34302,19.89326 c 0.7075,-27.06986 -0.52813,-53.11487 -2.36039,-78.91615 m 10.40715,16.41757 c 0.26895,-18.67061 0.25969,-36.5735 0.21888,-54.20124 0.27868,0.008 0.55734,0.0154 0.836,0.0232 0.86459,10.1642 3.81534,20.10233 8.6937,29.10453 m -17.77039,-12.31863 c 5.84004,27.82172 28.22099,47.66314 56.84689,48.87919 m -17.36445,-1.88063 c 9.95827,4.85571 20.75155,7.28456 31.47687,6.96899 14.77057,-0.44183 28.73312,-6.07585 39.51253,-16.35993 m -8.55018,3.33539 c 25.80231,-10.7515 43.33845,-35.16909 43.30614,-61.31454 -0.003,-1.10948 -0.0388,-2.21654 -0.10638,-3.31992 m -4.7467,24.67604 c 1.36935,-5.83363 2.04198,-11.93564 1.96216,-18.119 -0.2858,-19.61336 -8.12459,-38.72016 -22.38262,-51.88604 1.96513,-1.64743 3.83851,-3.39104 5.61045,-5.22162 m 2.88142,12.73489 c -2.85844,-3.61192 -6.1069,-6.95218 -9.69685,-9.95303 14.8979,-12.55681 23.24547,-31.2533 22.71768,-50.25104 -0.21411,-7.3771 -1.76542,-14.60815 -4.60764,-21.30682 m 9.42021,24.41898 c 0.0579,-1.55177 0.0627,-3.11411 0.0139,-4.68383 -0.99064,-30.66794 -22.06051,-59.77327 -54.44047,-70.10125 m 19.36782,16.46817 c -10.52045,-8.55808 -23.51927,-13.78559 -37.02808,-14.99524 0.0212,-0.36345 0.0464,-0.72586 0.0608,-1.0908 10.96198,-0.18591 21.98653,-0.45033 33.18302,-0.77687 M 381.8457,196.474 c 26.89025,-0.74203 51.95227,-0.74593 77.37617,-1.34293 m -13.30298,3.56937 c 31.42245,-1.27524 61.71465,0.32155 91.66016,1.44719 m -22.74771,-9.88472 c 28.53219,-1.34415 59.30797,-0.042 88.9695,0.62363 m -33.90597,-6.6001 c 32.14419,-1.15357 64.49634,1.50909 96.1233,4.74344 m -19.04905,-0.681 c 30.41501,-1.2178 58.01863,0.48739 85.12402,2.29168 m -29.28672,7.98169 c 29.62846,-1.47879 63.92341,0.62812 99.92968,2.51083 m -23.50152,-5.36215 c 26.86121,-0.6216 52.88684,0.6156 79.4776,2.57164 m -23.50463,-5.38369 c 28.37929,0.5709 54.55995,-0.90471 81.09368,-3.2737 10e-6,0 -0.002,-0.009 -0.002,-0.009 4.16809,-0.37247 8.20817,-0.17993 12.05429,0.50527 m -637.55364,461.62759 0,-160.85937 m 353.5951,-297.17094 143.51563,0 m -465.50111,0 149.14063,0 m 489.76541,437.29983 0,190.15625 m -670.51566,326.96854 0,-169.53128"
       id="rect4272-1"
       inkscape:path-effect="#path-effect4218"
       inkscape:original-d="m 915.53655,193.77898 c 25.36157,0 45.77929,20.4177 45.77929,45.7793 l 0,878.95702 c 0,25.3616 -20.41772,45.7793 -45.77929,45.7793 l -578.95707,0 c -25.3616,0 -45.7793,-20.4177 -45.7793,-45.7793 l 0,-743.18352 0.8379,0 a 69.946564,69.946564 0 0 0 69.6328,63.6933 69.946564,69.946564 0 0 0 69.9473,-69.9472 69.946564,69.946564 0 0 0 -23.4375,-52.1289 69.886574,69.886574 0 0 0 23.7149,-52.3829 69.886574,69.886574 0 0 0 -65.0274,-69.7148 c 0.01,-0.3573 0.024,-0.7137 0.027,-1.0723 l 549.04103,0 z" />
    <path
       style="fill:none;fill-opacity:1;stroke:#000000;stroke-width:4;stroke-linecap:round;stroke-linejoin:miter;stroke-miterlimit:4;stroke-dasharray:none;stroke-dashoffset:0;stroke-opacity:1"
       id="path5711-9-2-3-3-4-4"
       r="22.973518"
       cy="553.55682"
       cx="944.66028" />
  </g>
</svg>
