<?xml version="1.0" encoding="UTF-8" standalone="no"?>
<!-- Created with Inkscape (http://www.inkscape.org/) -->

<svg
   xmlns:osb="http://www.openswatchbook.org/uri/2009/osb"
   xmlns:dc="http://purl.org/dc/elements/1.1/"
   xmlns:cc="http://creativecommons.org/ns#"
   xmlns:rdf="http://www.w3.org/1999/02/22-rdf-syntax-ns#"
   xmlns:svg="http://www.w3.org/2000/svg"
   xmlns="http://www.w3.org/2000/svg"
   xmlns:sodipodi="http://sodipodi.sourceforge.net/DTD/sodipodi-0.dtd"
   xmlns:inkscape="http://www.inkscape.org/namespaces/inkscape"
   width="233.67999mm"
   height="318.34668mm"
   viewBox="0 0 827.99997 1128"
   id="svg2"
   version="1.1"
   inkscape:version="0.91 r13725"
   sodipodi:docname="background0.svg">
  <defs
     id="defs4">
    <inkscape:path-effect
       effect="sketch"
       id="path-effect4152"
       is_visible="true"
       nbiter_approxstrokes="5"
       strokelength="100"
       strokelength_rdm="0.3;1"
       strokeoverlap="0.3"
       strokeoverlap_rdm="0.3;1"
       ends_tolerance="0.1;1"
       parallel_offset="5;1"
       tremble_size="5;1"
       tremble_frequency="1"
       nbtangents="5"
       tgt_places_rdmness="1;1"
       tgtscale="10"
       tgtlength="100"
       tgtlength_rdm="0.3;1" />
    <inkscape:path-effect
       effect="sketch"
       id="path-effect4220"
       is_visible="true"
       nbiter_approxstrokes="5"
       strokelength="100"
       strokelength_rdm="0.3;1"
       strokeoverlap="0.3"
       strokeoverlap_rdm="0.3;1"
       ends_tolerance="0.1;1"
       parallel_offset="5;1"
       tremble_size="5;1"
       tremble_frequency="1"
       nbtangents="5"
       tgt_places_rdmness="1;1"
       tgtscale="10"
       tgtlength="100"
       tgtlength_rdm="0.3;1" />
    <inkscape:path-effect
       effect="sketch"
       id="path-effect4218"
       is_visible="true"
       nbiter_approxstrokes="5"
       strokelength="100"
       strokelength_rdm="0.3;1"
       strokeoverlap="0.3"
       strokeoverlap_rdm="0.3;1"
       ends_tolerance="0.1;1"
       parallel_offset="5;1"
       tremble_size="5;1"
       tremble_frequency="1"
       nbtangents="5"
       tgt_places_rdmness="1;1"
       tgtscale="10"
       tgtlength="100"
       tgtlength_rdm="0.3;1" />
    <inkscape:path-effect
       effect="sketch"
       id="path-effect4216"
       is_visible="true"
       nbiter_approxstrokes="5"
       strokelength="100"
       strokelength_rdm="0.3;1"
       strokeoverlap="0.3"
       strokeoverlap_rdm="0.3;1"
       ends_tolerance="0.1;1"
       parallel_offset="5;1"
       tremble_size="5;1"
       tremble_frequency="1"
       nbtangents="5"
       tgt_places_rdmness="1;1"
       tgtscale="10"
       tgtlength="100"
       tgtlength_rdm="0.3;1" />
    <inkscape:path-effect
       effect="sketch"
       id="path-effect4384"
       is_visible="true"
       nbiter_approxstrokes="5"
       strokelength="100"
       strokelength_rdm="0.3;1"
       strokeoverlap="0.3"
       strokeoverlap_rdm="0.3;1"
       ends_tolerance="0.1;1"
       parallel_offset="5;1"
       tremble_size="5;1"
       tremble_frequency="1"
       nbtangents="5"
       tgt_places_rdmness="1;1"
       tgtscale="10"
       tgtlength="100"
       tgtlength_rdm="0.3;1" />
    <inkscape:path-effect
       effect="sketch"
       id="path-effect4382"
       is_visible="true"
       nbiter_approxstrokes="5"
       strokelength="100"
       strokelength_rdm="0.3;1"
       strokeoverlap="0.3"
       strokeoverlap_rdm="0.3;1"
       ends_tolerance="0.1;1"
       parallel_offset="5;1"
       tremble_size="5;1"
       tremble_frequency="1"
       nbtangents="5"
       tgt_places_rdmness="1;1"
       tgtscale="10"
       tgtlength="100"
       tgtlength_rdm="0.3;1" />
    <inkscape:path-effect
       effect="sketch"
       id="path-effect4380"
       is_visible="true"
       nbiter_approxstrokes="5"
       strokelength="100"
       strokelength_rdm="0.3;1"
       strokeoverlap="0.3"
       strokeoverlap_rdm="0.3;1"
       ends_tolerance="0.1;1"
       parallel_offset="5;1"
       tremble_size="5;1"
       tremble_frequency="1"
       nbtangents="5"
       tgt_places_rdmness="1;1"
       tgtscale="10"
       tgtlength="100"
       tgtlength_rdm="0.3;1" />
    <inkscape:path-effect
       effect="sketch"
       id="path-effect4376"
       is_visible="true"
       nbiter_approxstrokes="5"
       strokelength="100"
       strokelength_rdm="0.3;1"
       strokeoverlap="0.3"
       strokeoverlap_rdm="0.3;1"
       ends_tolerance="0.1;1"
       parallel_offset="5;1"
       tremble_size="5;1"
       tremble_frequency="1"
       nbtangents="5"
       tgt_places_rdmness="1;1"
       tgtscale="10"
       tgtlength="100"
       tgtlength_rdm="0.3;1" />
    <inkscape:path-effect
       effect="sketch"
       id="path-effect4374"
       is_visible="true"
       nbiter_approxstrokes="5"
       strokelength="100"
       strokelength_rdm="0.3;1"
       strokeoverlap="0.3"
       strokeoverlap_rdm="0.5;1"
       ends_tolerance="0.1;1"
       parallel_offset="3;1"
       tremble_size="5;1"
       tremble_frequency="1"
       nbtangents="5"
       tgt_places_rdmness="1;523070426"
       tgtscale="10"
       tgtlength="100"
       tgtlength_rdm="0.3;1" />
    <linearGradient
       id="linearGradient5674"
       osb:paint="solid">
      <stop
         style="stop-color:#ff0000;stop-opacity:1;"
         offset="0"
         id="stop5676" />
    </linearGradient>
  </defs>
  <sodipodi:namedview
     id="base"
     pagecolor="#ffffff"
     bordercolor="#666666"
     borderopacity="1.0"
     inkscape:pageopacity="0.0"
     inkscape:pageshadow="2"
     inkscape:zoom="0.49497475"
     inkscape:cx="-98.464558"
     inkscape:cy="729.29829"
     inkscape:document-units="px"
     inkscape:current-layer="layer1"
     showgrid="false"
     fit-margin-top="0"
     fit-margin-left="0"
     fit-margin-right="0"
     fit-margin-bottom="0"
     inkscape:window-width="1440"
     inkscape:window-height="897"
     inkscape:window-x="-8"
     inkscape:window-y="-8"
     inkscape:window-maximized="1" />
  <metadata
     id="metadata7">
    <rdf:RDF>
      <cc:Work
         rdf:about="">
        <dc:format>image/svg+xml</dc:format>
        <dc:type
           rdf:resource="http://purl.org/dc/dcmitype/StillImage" />
        <dc:title></dc:title>
      </cc:Work>
    </rdf:RDF>
  </metadata>
  <g
     inkscape:label="Layer 1"
     inkscape:groupmode="layer"
     id="layer1"
     transform="translate(-211.79457,-116.50621)">
    <path
       style="fill:none;fill-opacity:1;stroke:#000000;stroke-width:4;stroke-linecap:round;stroke-linejoin:miter;stroke-miterlimit:4;stroke-dasharray:none;stroke-dashoffset:0;stroke-opacity:1"
       id="path5711-9-2-3-3-4-4"
       r="22.973518"
       cy="553.55682"
       cx="944.66028" />
    <path
       style="fill:#ffffff;fill-opacity:0.4260355;stroke:#000000;stroke-width:0.990776;stroke-linecap:round;stroke-linejoin:miter;stroke-miterlimit:4;stroke-dasharray:none;stroke-dashoffset:0;stroke-opacity:1"
       d="m 343.1021,202.71297 c 27.99276,-0.90028 53.77806,-0.34725 79.63433,-0.12059 m -20.56521,-10.19174 c 23.44309,-0.40156 48.06853,-0.0509 73.12054,0.4428 m -21.9277,5.72907 c 23.77947,-0.42727 49.3291,-1.00414 74.87503,-2.4166 m -11.08758,2.76867 c 33.1407,1.06436 64.0775,0.64816 96.78127,1.63239 m -35.26877,-8.8986 c 27.40606,-0.6952 57.83984,-0.79002 89.50166,-1.81167 m -22.07293,6.46064 c 24.72391,0.71709 51.74959,-1.17364 79.68164,-4.39783 m -24.80613,3.96786 c 24.16701,0.01 50.37303,-0.26066 77.38527,-0.80207 m -11.89288,-3.96366 c 23.88661,-0.22828 46.37986,0.75222 68.16925,2.61395 m -15.81935,1.1754 c 31.54362,0.57546 61.13976,-1.03705 90.93289,-3.40389 m -22.26673,-1.16615 c 9.35534,0.43989 18.91903,0.73742 28.64324,1.00209 12.70933,0.34591 24.41196,5.62705 33.15569,14.18763 6.7409,6.59969 11.71096,15.13511 14.03592,24.86118 m -15.7829,-20.93314 c 7.78508,8.13672 12.40268,18.79729 12.41208,30.4272 0.0131,16.24117 -0.36213,32.30402 -0.55424,48.35268 m -4.95272,-25.28743 c 1.42971,30.79803 0.19006,59.38489 -0.27131,87.65644 m -1.13504,-16.54802 c 1.05559,28.12625 1.22549,58.07317 2.73152,90.40913 m 3.83022,-28.24748 c -0.93792,25.70168 -1.25434,51.11331 -2.46009,78.16334 m 2.34334,-22.30743 c 0.15408,25.62116 -0.75235,52.34748 -2.40257,78.85008 m 0.68359,-15.98207 c -0.51286,31.41924 1.03687,62.13331 3.37061,94.29305 m -0.51868,-26.69612 c 0.63325,33.10571 0.0766,62.85774 0.14862,91.12909 m -1.5941,-27.26804 c 0.10217,33.44776 0.57972,67.10442 1.76323,103.22482 m -2.31008,-35.40094 c 0.15008,27.64173 1.36983,54.27764 3.99292,80.41443 m -11.8442,-11.06972 c 1.02126,29.3831 1.82642,59.41325 4.91859,88.45439 m 0.70621,-23.85436 c 0.4181,31.12822 -0.19765,61.92754 -0.72881,91.38554 m 3.4237,-25.67223 c -0.9438,31.06212 0.81216,66.01401 2.58786,100.18384 m -3.0563,-27.32043 c 0.0863,31.02013 0.0541,60.38713 0.10745,86.62273 m -6.04516,-19.3233 c -0.42209,22.7636 0.13897,45.8125 1.07287,68.7999 0.43319,10.6628 -2.76815,20.4205 -8.4397,28.0583 m 11.03319,-36.6634 c 0.16032,12.6756 -4.78752,24.0982 -12.84419,32.6246 -8.24716,8.7281 -19.71571,14.4092 -32.51359,15.5291 -6.73597,0.5895 -13.48347,1.2812 -20.22046,2.1084 m 27.97296,2.0994 c -1.48188,0.1382 -2.98382,0.2095 -4.50283,0.2108 -22.69084,0.019 -45.22691,0.441 -68.16837,1.2089 m 18.35442,2.7768 c -28.73237,-0.8766 -57.85109,-0.423 -86.36828,-0.6142 m 20.09726,0.6928 c -25.90046,0.4777 -50.82787,0.029 -76.34553,-0.5616 m 16.03733,1.6163 c -28.03157,0.5576 -55.19112,-1.3786 -81.49659,-4.6473 m 15.3912,-6.7595 c -33.78267,-1.0712 -65.49738,1.083 -97.2963,3.3052 m 29.57965,7.9065 c -27.70909,1.2178 -54.10831,0.6979 -79.91811,0.884 m 29.7734,-8.5797 c -27.33894,0.2374 -55.25211,0.2871 -83.11226,0.6383 m 17.31867,2.9554 c -29.91334,-0.024 -62.26052,1.118 -95.48314,3.3426 m 25.86823,-7.7958 c -28.20894,-0.3035 -55.59949,0.1686 -83.11084,0.8099 -3.63161,0.085 -7.16116,-0.264 -10.54174,-0.998 m 31.22908,-4.3821 c -5.03354,0.043 -10.14461,0.1199 -15.31617,0.2333 -12.26115,0.269 -23.60684,-4.3054 -31.94812,-11.797 -8.33596,-7.4868 -13.6667,-17.8912 -13.92199,-29.1576 -0.0136,-0.6004 -0.027,-1.2001 -0.04,-1.7988 m -4.95035,33.7764 c -3.27554,-6.0681 -5.08307,-13.0372 -5.00442,-20.4735 0.24859,-23.502 1.27076,-47.3905 2.66317,-71.0339 m -0.98508,9.8642 c -1.0147,-24.9489 -0.54179,-48.2285 -0.11578,-71.52029 m 3.28055,26.32059 c 0.94792,-33.13327 -2.7858,-66.41606 -8.48609,-100.71259 m 12.90023,34.2589 c 1.14844,-31.40442 0.66592,-63.66922 1.72978,-95.28328 m -9.5817,11.23211 c 2.3e-4,-24.14016 0.84438,-47.67548 2.51595,-70.18937 m 0.60864,30.42808 c -1.19098,-29.07895 1.42463,-59.98017 5.04471,-91.43643 m -5.4352,18.40923 c -0.83497,-32.72326 1.35945,-61.76113 4.37554,-90.45661 m 2.46054,29.20816 c -0.31448,-25.2184 -0.14045,-50.35138 -0.0129,-75.5084 m -1.82331,12.65214 c -1.05638,-24.58413 -0.79293,-50.66895 -1.08464,-76.5777 m -3.60289,16.66267 c -1.05284,-24.35751 -0.44317,-48.19446 0.16897,-71.97663 m -2.23888,20.86929 c -0.11512,-28.58697 1.04445,-59.70063 3.18986,-91.1096 m -2.36948,22.41097 c 0.0899,-32.87734 0.42046,-65.32771 1.25334,-97.34111 m -5.86246,25.52653 c 0.87885,-31.02097 1.70983,-60.91799 4.66984,-91.19601 m 0.17362,23.81069 c -0.0104,-25.82216 -1.74224,-51.52583 -5.21449,-77.49057 -1.08271,-8.0962 -0.20646,-15.70882 2.10326,-22.35528 m 2.76013,31.6974 c 0.10461,-2.36962 0.18774,-4.73982 0.25089,-7.11146 0.34131,-12.81645 5.11153,-24.37286 12.75955,-33.01965 7.64329,-8.64145 18.0664,-14.25906 29.54573,-15.24048 4.94237,-0.42254 9.86039,-0.90094 14.77316,-1.44616 m -2.56426,-2.7688 c 30.49937,-1.12956 61.70278,0.0106 91.98791,0.46208 m -18.03549,4.38227 c 28.68103,0.65154 57.06473,-1.01578 85.95628,-3.56404 m -30.5018,-2.06165 c 26.99989,-1.27586 56.18445,1.32055 85.05644,5.04695 m -29.38321,7.33644 c 26.22772,0.31654 53.18829,0.34664 81.04237,0.65139 m -15.04657,-8.19066 c 32.65359,-0.27974 64.26782,-0.54477 95.12292,-1.56602 m -23.18672,5.66787 c 25.89811,0.55909 53.96143,1.11082 82.02177,2.73275 m -23.62627,-5.31154 c 26.54854,-1.25491 55.47629,0.21836 85.42662,1.9302 m -14.01489,-5.21117 c 26.36323,-0.4927 50.77402,0.84985 73.34435,3.11816 m -27.72575,0.20244 c 22.5254,0.22955 45.04911,-0.25293 68.53431,-1.15265 9.06121,-0.34713 17.66605,1.54814 25.29395,5.10911 m -18.73305,-9.07389 c 11.88935,-0.25646 22.81526,5.00684 30.58366,13.67294 7.79256,8.69304 12.48854,20.88013 11.90169,34.63221 -0.27186,6.37057 -0.59227,12.80796 -0.98357,19.30074 m -1.69811,-21.34316 c 0.29643,1.92632 0.4667,3.88758 0.5032,5.87547 0.54366,29.60946 -0.18518,58.25812 -0.4728,85.97254 m 3.12066,-24.99981 c -0.43696,24.40955 0.38809,50.53834 1.73906,76.56824 m -3.57509,-24.9052 c -0.65707,24.2833 -0.33074,48.83527 -0.0783,73.49452 m 2.8125,-6.19383 c -1.34652,31.15259 0.45896,61.76247 2.06474,93.44082 m -3.3144,-30.70144 c -0.24565,24.33606 1.17289,49.28415 3.88256,75.02523 m 3.92996,-12.3248 c -0.21035,24.63696 -0.56199,50.89538 -1.43997,76.98843 m 1.20601,-23.29047 c 0.79361,22.91066 -0.50897,47.54708 -2.65676,72.35869 m -6.64014,-9.68042 c 0.82671,27.50162 1.1827,52.73444 2.63864,77.68304 m -4.08406,-26.19389 c 0.51132,25.91772 0.20377,51.51201 -0.012,77.22689 m 4.81621,-14.36426 c -1.04134,32.84298 -1.63621,64.46035 -4.79567,95.7563 m 6.24084,-35.00135 c -1.28718,27.33163 0.79489,55.35731 3.52492,82.76842 m 0.57711,-10.92027 c 0.01,23.68319 0.35437,47.85765 1.0483,71.38354 m -9.75947,-15.72296 c -0.60742,28.57809 -1.40175,54.88166 -3.57295,81.51976 m 9.43287,-23.3698 c 0.95866,29.0469 -1.98891,61.6465 -6.44596,94.6314 m 2.22648,-27.1177 c -0.37844,8.9151 -0.51792,17.8124 -0.50303,26.6405 0.0203,12.0418 -4.70603,22.7601 -12.50529,30.172 -6.76179,6.426 -15.84975,10.3674 -26.05686,10.3865 m 19.80608,-6.137 c -7.43619,6.6075 -17.30311,10.5226 -28.25964,10.5289 -13.50637,0.01 -27.27999,-0.1218 -41.10658,-0.2375 m 10.4914,5.1407 c -23.52735,0.4532 -46.10431,0.3193 -67.48655,0.2755 m 16.57765,-6.1738 c -25.35096,0.7771 -48.23755,0.3224 -70.36407,-0.1508 m 21.11317,2.0645 c -27.25574,0.032 -55.28793,-0.8073 -84.54336,-2.4425 m 10.58013,1.3874 c -33.03408,-1.5135 -64.18012,1.8395 -93.15848,5.5223 m 30.34674,-2.983 c -25.70828,-0.4798 -50.11254,0.6675 -74.27521,2.6329 m 22.60234,-4.9768 c -22.2507,-0.9048 -46.87432,0.219 -72.17271,2.0199 m 10.40791,3.5668 c -25.07208,0.8457 -48.98814,-0.5668 -73.31155,-2.9351 m 18.41509,2.5049 c -26.96168,-0.2099 -54.46794,-0.074 -82.63612,0.022 m 15.98455,-5.4517 c -24.4951,-0.4689 -48.70148,-0.684 -71.71733,-1.4315 m 13.10165,-4.4664 c -7.52613,0.2065 -14.90484,0.3849 -22.16252,0.5654 -12.30564,0.3061 -23.10734,-4.4239 -30.60011,-12.1399 -3.05634,-3.1475 -5.56284,-6.793 -7.3929,-10.7963 m 9.8433,13.7057 c -0.2986,-0.2929 -0.59302,-0.5896 -0.88318,-0.8899 -8.16782,-8.453 -12.9878,-19.8237 -12.46489,-32.2629 0.53141,-12.6417 1.36095,-25.1547 2.46048,-37.702 m -0.71972,24.5488 c -1.18258,-24.2173 -0.13473,-48.7787 1.25249,-73.3426 m -1.52538,10.5861 c 0.20895,-28.8716 -1.49773,-58.98259 -4.60909,-88.18044 m 9.60899,27.90392 c -0.0827,-23.91759 0.32834,-48.01307 1.097,-72.8343 m -12.85478,18.06553 c -0.0111,-29.38752 1.37697,-58.69898 4.16812,-88.57635 m -3.6998,14.23711 c -1.09446,-24.58115 -0.34783,-49.67672 0.292,-73.23454 m 1.70025,23.31669 c -1.11886,-29.01491 0.96781,-60.55045 3.52146,-91.7873 m 9.87751,16.98645 c 0.40172,-25.63418 -0.37565,-49.1733 -1.65598,-72.46037 m -3.18772,22.1904 c 0.7016,-31.1064 0.31038,-65.12232 0.7982,-99.28826 m 1.15485,25.24414 c 0.37319,-26.71214 0.82657,-51.28843 2.09514,-74.08025 m -7.79876,20.90607 c -1.15488,-31.87653 0.19567,-65.98659 0.64584,-99.42927 m -8.22391,28.43475 c -0.72832,-24.92772 -0.20973,-49.64622 0.37606,-74.7738 m 6.49957,24.51632 c 1.09862,-31.69055 0.37353,-67.74352 1.1167,-103.99685 m 3.25831,22.01311 c 0.92014,-28.54023 1.07262,-54.36776 2.30739,-79.83462 m 0.30995,17.99023 c 0.75768,-15.19572 0.86496,-30.64615 0.82037,-46.13345 -0.0358,-12.44081 4.85906,-23.67672 13.0052,-31.7357 1.24831,-1.23495 2.57281,-2.39504 3.96734,-3.47301 m -17.85585,23.13852 c 2.24352,-5.6001 5.48312,-10.66852 9.47373,-14.97787 7.90895,-8.54065 18.72106,-14.05466 30.52499,-14.90441 11.25868,-0.8105 22.30041,-1.88028 33.10253,-3.32141 m -22.21846,5.18992 c 23.20798,0.91219 46.14595,-0.94273 68.56039,-4.21435 m -14.67699,3.39392 c 30.61747,0.86799 61.79946,1.01773 91.76099,2.76449 M 469.39692,200.33 c 26.14674,-1.32004 54.00723,-0.69594 81.78792,-0.7326 m -22.16007,-5.12652 c 32.55092,-0.75354 65.13901,-0.36589 98.81483,-0.948 m -34.86722,3.33129 c 33.74701,0.78333 67.0749,0.0361 103.95652,-0.0348 m -32.65455,-7.03577 c 23.52364,-0.0457 46.45914,0.31024 68.93253,0.9818 m -7.10131,5.03397 c 29.91904,0.39013 60.54144,-0.0173 88.44486,-0.23286 m -19.88525,2.92766 c 29.14642,-1.15594 58.71173,-0.16186 86.0735,0.10156 m -25.16488,-1.46851 c 20.69066,-0.29715 40.63299,-0.13636 59.96393,0.15773 3.52734,0.0537 6.93127,0.56517 10.15933,1.48096 m -15.43048,-4.76356 c 1.589,-0.003 3.1853,-0.003 4.78866,-8.8e-4 12.32009,0.0197 23.81543,5.21657 32.43862,13.64704 8.63784,8.44479 14.3854,20.10371 15.40893,33.18223 0.0809,1.0335 0.16305,2.0679 0.24645,3.1032 m -7.87143,-23.11605 c 1.68063,4.65891 2.59232,9.75234 2.58332,15.13039 -0.0388,23.18829 0.0605,47.50241 0.14964,72.26096 m 0.8755,-22.27723 c -0.40059,27.95329 1.06413,55.70341 3.58864,83.64518 m -5.97177,-20.99601 c -1.18485,24.49133 -0.41691,51.76698 0.18706,79.63311 m 3.4459,-16.9803 c -0.9705,31.58955 -0.25737,63.18913 -0.3551,96.19431 m -7.6137,-30.3797 c -1.16783,32.96482 0.25347,62.64478 1.01399,91.32101 m 4.92433,-24.79589 c 1.48289,32.56807 -1.82014,63.98009 -5.58059,93.75406 m 9.29117,-22.27862 c 0.24208,26.5598 0.0719,52.74822 -0.0974,79.90188 m -2.44214,-24.09263 c -1.23465,32.09599 -1.08423,63.16572 -2.89083,94.52997 m -1.32777,-20.89066 c -0.74224,32.13791 1.85991,59.05671 5.94079,84.51017 m 4.13778,-19.33366 c 0.60898,30.91553 -1.76184,60.82907 -5.59269,91.93459 m 4.96716,-24.73224 c -0.92611,29.44868 -1.39739,56.28451 -3.46909,82.48019 m -0.0465,-14.47627 c -0.75741,26.13818 -0.61699,49.47184 -0.88751,71.0609 m 2.25462,-22.51369 c -1.00936,26.89339 0.24602,54.96219 1.82772,84.66219 m -3.3116,-18.9217 c 0.23821,20.8747 0.67534,41.4495 1.58186,61.5471 0.41601,9.2233 -2.1069,17.6507 -6.65596,24.3773 m 8.3017,-28.4164 c -1.27465,11.4144 -6.27281,21.7158 -13.79145,29.5253 -8.1559,8.4714 -19.20304,13.9289 -31.47935,14.6319 -2.83248,0.1622 -5.66548,0.3353 -8.50218,0.5201 m 13.64435,7.0526 c -2.8834,0.4353 -5.84799,0.6153 -8.86524,0.5103 -23.33164,-0.8115 -45.52611,-0.8097 -66.87906,-1.5391 m 12.20701,2.8666 c -25.23928,-0.4623 -49.783,-0.4648 -74.55831,-0.7751 m 18.94829,0.5407 c -26.54478,-0.5773 -51.88921,-2.0339 -76.32744,-5.4385 m 8.5549,-7.2957 c -23.29769,-0.1758 -46.67164,0.9217 -69.46593,3.0242 m 24.58421,4.0856 c -25.53469,0.9643 -51.28671,1.9553 -75.92042,4.7637 m 10.28553,-6.7563 c -24.39022,-0.076 -48.30633,0.3638 -71.5678,1.2055 m 7.66459,-1.8697 c -29.19075,-0.4385 -60.28388,0.7773 -90.35327,2.5218 m 29.6224,7.8693 c -29.32636,0.9684 -61.23731,-0.1428 -93.4537,-0.9406 m 31.39847,-13.9037 c -23.5817,-0.4914 -48.71466,1.3765 -73.57103,4.7772 m 23.36422,10.1449 c -15.64608,-0.05 -32.00837,-0.2379 -48.86501,-0.6018 -12.43228,-0.2684 -23.97357,-5.0841 -32.97619,-12.8638 m 5.26375,4.8523 c -6.82692,-2.4706 -12.87397,-6.4315 -17.65509,-11.4861 -7.62555,-8.0618 -12.04257,-18.9423 -11.04165,-30.747 0.72115,-8.505 1.61126,-16.8975 2.73327,-25.2529 m 6.23195,19.9802 c 0.60673,-29.2642 0.85302,-58.7244 2.14154,-88.2618 m 0.16269,18.4488 c -0.64893,-26.0111 -1.96719,-51.04411 -5.1382,-75.2085 m -3.84574,22.18029 c 0.44438,-25.03962 0.47566,-50.47899 0.84661,-75.88571 m 9.2309,16.78226 c -1.39261,-32.46123 -1.84112,-65.11879 -5.26469,-98.90856 m -8.01644,31.69085 c -0.74575,-22.90128 0.2991,-47.72392 2.00037,-72.96644 m 4.24974,9.76988 c -0.59966,-28.18269 0.84253,-57.38976 2.89507,-84.40688 m -5.59011,20.8256 c 0.23401,-32.35387 -1.26529,-66.39683 -3.78913,-99.20904 0,0 -7.6e-4,-0.01 -7.6e-4,-0.01 m -3.78826,30.42916 c 0.1306,-28.82819 1.69242,-56.58049 4.95292,-85.4277 m -2.41384,22.99322 c 0.17921,-28.54569 1.09668,-59.4926 3.17964,-92.62483 m -5.28865,24.07748 c 1.16812,-27.28464 2.29671,-53.66138 5.74907,-78.82374 m 8.97753,25.31759 c 1.2744,-27.88505 -1.13324,-55.94472 -4.66432,-85.12018 m -0.76549,16.37996 c 1.11361,-33.00376 -0.80753,-63.93027 -2.49476,-93.44506 m -3.01349,32.58559 c -0.30573,-32.60966 -0.81602,-61.68253 -2.37813,-90.71391 m 1.08946,14.08351 c 0.43969,-15.06154 0.83262,-30.21144 1.44171,-45.48012 0.50588,-12.68128 6.12931,-24.20597 15.11389,-32.6958 2.11309,-1.99674 4.41233,-3.82581 6.8752,-5.46287 m -8.82867,26.80886 c 2.44853,-4.91274 5.55838,-9.31681 9.18849,-13.07136 8.17836,-8.45871 18.98754,-13.60147 30.63191,-13.73508 15.06363,-0.17284 29.53024,-0.34513 43.90556,-1.04188 m -38.68025,-0.50396 c 23.94174,0.49671 49.15209,0.85752 73.97724,1.92725 m -23.10799,0.0646 c 29.14055,-0.41743 60.42421,-2.20401 92.64334,-6.32895 m -20.96859,8.59461 c 29.15168,-0.32241 60.18694,-1.09944 89.5496,-3.15792 m -34.21728,-2.9357 c 28.34331,0.0846 55.25047,0.45645 83.25817,1.25087 m -24.68574,4.76516 c 30.50327,1.28365 61.77405,-1.60475 95.29849,-5.55495 m -22.47706,-1.16389 c 31.8808,1.0905 65.13914,0.85966 100.22187,2.30689 m -26.5095,-3.47862 c 28.94721,1.36686 55.25316,-0.42717 81.33783,-2.54496 m -27.22363,0.74737 c 29.88354,-0.68574 60.69168,1.15575 92.70374,3.87536 m -20.98215,-1.21851 c 22.78359,0.82083 44.36313,0.66537 65.59415,0.63264 4.83054,-0.007 9.45282,0.8103 13.74889,2.33808 m -14.19024,-4.22128 c 1.67618,-0.0322 3.35454,-0.0569 5.03504,-0.0743 12.42139,-0.12861 23.76484,5.15392 32.03383,13.76817 7.27423,7.57795 12.19774,17.7502 13.49032,29.23575 m -15.04148,-10.45179 c 2.4414,5.68963 3.85238,12.11646 3.92155,18.98541 0.23152,22.98966 2.36727,46.71062 5.02861,70.57819 m -7.38082,-29.97667 c -1.21843,30.08498 0.96695,60.11625 3.43623,88.82117 m 2.61922,-23.78873 c 1.02022,27.46278 -0.33384,56.75773 -1.91802,86.52689 m 7.89406,-25.07087 c -0.43621,27.88861 -0.69938,55.64705 -1.66166,84.59675 m -0.56498,-22.63891 c -0.62144,25.04538 0.41965,50.86586 2.03063,76.33054 m 0.86043,-18.27202 c 0.60341,32.60775 0.19614,63.07706 0.35715,94.30264 m -9.26382,-20.0225 c -0.70665,32.68681 2.18408,61.78484 6.78159,91.18382 m -0.45297,-25.16421 c 0.86596,30.39319 -1.33033,62.60055 -4.26621,93.09151 m 0.20294,-23.02268 c -1.66191,34.8264 0.89347,66.46075 2.68375,99.5708 m -1.19914,-39.93849 c -0.75438,29.23545 0.414,58.44605 1.77771,88.50625 m -0.996,-13.38766 c 0.6498,31.03792 0.0179,66.90319 -0.0366,103.05482 m -0.7841,-35.00537 c -0.48276,28.87563 -0.85085,59.09008 -2.26835,89.38168 m -2.10676,-28.1139 c -0.65587,24.0448 0.18046,48.8226 1.47677,73.8536 m 6.99989,-20.4074 c -0.34047,19.8426 -1.03623,38.6448 -2.41335,57.2846 -0.906,12.2631 -7.03377,23.2778 -16.59292,31.3106 -1.96868,1.6543 -4.08332,3.1826 -6.32874,4.5698 m 15.16621,-16.5888 c -1.76947,7.1715 -5.48125,13.5686 -10.54456,18.6407 -7.84415,7.8579 -18.97491,12.5737 -31.23144,12.0732 -8.63751,-0.3527 -17.24137,-0.7854 -25.72197,-1.3357 m 21.0949,-1.0872 c -23.57561,-0.8526 -47.31469,-0.16 -70.57249,0.7515 m 11.86313,4.0143 c -30.10304,-0.5284 -60.81145,1.1295 -92.12376,3.6789 m 26.49304,-4.2254 c -34.54001,0.7472 -65.83165,0.9554 -98.41029,2.8305 m 36.60901,3.7319 c -26.20122,0.1274 -50.93872,-1.1863 -75.98158,-3.7204 m 15.70319,-5.5763 c -33.92335,0.8899 -65.89996,1.2979 -98.56425,3.7962 m 30.69961,-1.2963 c -31.18413,0.4584 -61.61663,0.6551 -93.99483,1.7301 m 28.59894,-6.4566 c -31.40516,0.6854 -62.14433,1.7031 -95.11129,4.7173 m 26.41582,-0.1085 c -29.70985,-1.0133 -60.2668,-1.3578 -90.52888,-3.5454 m 20.72823,7.1399 c -20.22634,0.7828 -39.23629,0.4922 -57.97693,-0.075 -4.36977,-0.1322 -8.57324,-0.9273 -12.52799,-2.2874 m 12.59352,-4.5131 c -0.69507,0.02 -1.38813,0.04 -2.07921,0.059 -12.94133,0.358 -24.03642,-4.5143 -31.61032,-12.5156 -7.56921,-7.9964 -11.6653,-19.1824 -10.3953,-31.4444 0.52475,-5.0665 1.09046,-10.115 1.6801,-15.1343 m -4.46012,29.4507 c -0.47448,-2.6085 -0.71943,-5.2908 -0.71468,-8.0282 0.0446,-25.7119 1.72988,-51.2974 4.55565,-77.8099 m 3.37564,14.1259 c 0.54384,-26.1377 -1.65648,-52.1725 -5.5549,-77.77212 m 4.85158,21.56822 c 0.0282,-23.03199 0.5913,-46.57749 1.75433,-69.20969 m -7.22279,4.27752 c 0.86288,-28.67602 0.0196,-55.60321 -0.62548,-81.52298 m 4.18035,25.03369 c 1.25766,-27.08474 0.7816,-53.14361 0.89727,-79.81836 m -5.85854,21.18288 c 0.38698,-25.15545 0.6647,-49.89438 1.51544,-73.76842 m -4.21042,11.6614 c 1.56677,-32.33156 0.6574,-64.99362 1.66142,-97.91693 m 0.25203,32.82507 c -0.31908,-25.05002 -0.0759,-48.34809 0.21608,-71.473 m 12.9873,15.78396 c 0.35165,-26.43213 -1.33991,-53.32732 -4.39424,-78.90153 m 1.50354,9.05035 c 0.12219,-23.68194 -1.45119,-47.51451 -4.52674,-70.76877 m -1.21554,16.63706 c -0.0973,-26.09357 0.25308,-50.66537 0.88037,-75.67581 m -5.76289,25.04119 c 0.80946,-33.78705 -0.51928,-63.7301 -1.65991,-93.7946 m 10.99519,24.12308 c -1.03039,-26.29576 -1.88056,-51.9379 -4.33934,-78.53948 m -6.98865,17.74616 c -0.82689,-31.46414 -0.82187,-61.83775 -2.01674,-94.09043 m 11.97787,30.70781 c -0.087,-10.09815 -0.18245,-20.34009 -0.311,-30.57213 -0.1511,-12.02665 4.68445,-22.8518 12.56607,-30.34866 3.14734,-2.9937 6.78158,-5.45771 10.7759,-7.2524 m -24.68147,5.81804 c 1.20354,-1.5965 2.50823,-3.10519 3.9048,-4.51722 8.22062,-8.31165 19.64043,-13.29012 32.38355,-13.07613 15.08677,0.25335 30.33293,0.73043 45.78897,1.22851 m -32.14511,0.21684 c 28.63716,0.59844 56.30971,0.29214 84.63856,0.32357 m -22.1654,1.70762 c 30.21078,0.47462 62.35784,-1.17956 93.8847,-3.72127 m -29.39973,0.0884 c 24.39193,0.1543 50.14981,1.84517 76.9073,5.30449 m -18.70604,-5.73376 c 25.633,1.25885 51.05002,0.0386 75.93783,-1.41642 m -23.00383,1.65032 c 26.04657,0.0307 54.0227,-1.56029 82.89597,-4.71469 m -16.02772,-3.60611 c 25.59653,-1.27025 52.82051,-0.0415 79.12704,1.18499 m -18.13918,2.25257 c 24.27481,-1.05163 49.40791,-0.70905 73.84138,-0.75205 m -8.95296,6.2208 c 31.86729,-1.32164 62.36934,0.0496 92.92234,0.60795 m -30.57666,1.18916 c 24.86434,-0.46189 49.18594,-0.14473 72.42835,0.14505 m -12.34532,0.0118 c 7.28984,0.32592 14.64812,0.54924 22.03972,0.71968 12.26414,0.28279 23.38768,5.42044 31.36058,13.75454 7.94164,8.30143 12.75749,19.78163 12.34539,32.73544 m -10.64816,-28.55877 c 4.39656,7.13596 6.92549,15.55369 6.78702,24.48699 -0.2605,16.80566 -0.38223,33.13934 -0.7646,49.08033 m 9.63982,-9.34094 c -0.85627,34.44807 -1.3058,65.41932 -3.87945,96.54456 m -3.89419,-36.0222 c -1.10383,23.17272 -0.40908,48.19273 0.35216,73.86125 m 0.78101,-11.23376 c -0.34995,32.70747 1.87421,64.34519 5.66866,96.78422 m -2.89466,-29.58755 c 1.09727,23.14375 -0.45211,48.15539 -2.9274,73.31682 m 1.36456,-19.63944 c 0.31957,25.12964 -0.75441,51.73192 -2.63106,77.39369 m 2.94295,-20.02736 c -1.28864,26.98244 -2.00173,52.8761 -4.51886,79.14902 m 6.94077,-13.67733 c -1.27317,28.24543 -1.18477,55.99334 -2.39717,84.03528 m 1.30437,-28.3586 c 1.24981,25.235 0.47926,50.67912 -0.14708,76.02706 m 1.27954,-8.33461 c 0.35004,23.70017 0.49342,49.29289 1.00728,74.78293 m -3.39025,-26.71272 c -0.0616,30.58774 -0.52663,65.03352 -1.53684,100.86991 m 4.62326,-27.22598 c 1.32902,29.13671 -1.33076,56.52088 -5.06776,83.83387 m 2.09871,-20.45181 c 0.38226,23.76835 0.0775,47.81605 -0.3137,71.95915 m 2.11063,-14.4265 c 0.5863,26.4538 0.35086,50.8216 0.37466,73.2875 m 0.0936,-9.5213 c -0.43936,16.5761 -0.46029,32.2163 -0.36597,47.2715 0.0731,11.671 -4.8134,21.8742 -12.87734,28.8017 0,0 -0.005,0 -0.005,0 m 7.43531,-21.734 c -1.97512,6.7247 -5.65434,12.8351 -10.57061,17.8991 -8.17347,8.419 -19.7318,13.9297 -32.75451,14.7697 -10.75884,0.6941 -21.6474,1.5793 -32.56259,2.6468 m 26.31708,-0.1859 c -29.04323,1.1319 -61.51643,-0.6353 -93.66406,-2.4947 m 31.15834,-3.2086 c -25.34598,0.5713 -49.92055,1.6747 -73.97029,4.2996 m 9.48709,0.075 c -32.33722,0.427 -64.10165,0.051 -95.79358,0.1089 m 35.32284,-0.6557 c -30.69983,0.5482 -62.15849,0.1686 -94.84049,0.2108 m 29.91329,-1.3051 c -32.95976,-1.1347 -67.04354,-1.5436 -104.12978,-4.4356 m 25.42567,2.4049 c -31.50132,0.7402 -62.07889,2.1447 -91.5023,6.211 m 23.46109,-1.3281 c -29.08996,0.9446 -60.33698,-0.9749 -90.90356,-3.4481 m 27.28525,5.9865 c -26.62148,-1.0556 -52.74885,-1.1779 -78.63831,-2.3969 m 14.90056,2.6316 c -15.71262,-0.1161 -32.42729,0.1436 -49.54833,0.6914 -12.92103,0.4134 -24.78407,-4.0716 -33.52715,-11.571 -0.46007,-0.3946 -0.91148,-0.7975 -1.35393,-1.2085 m 24.75904,4.8467 c -6.78378,-2.4827 -12.78533,-6.4097 -17.62267,-11.4201 -8.09649,-8.3862 -12.93407,-19.8133 -12.62348,-32.5285 0.25455,-10.4211 0.57989,-20.8956 0.93002,-31.5282 m 1.9871,30.5686 c -0.82996,-28.1563 -1.16264,-56.6082 -2.77041,-84.9617 m 4.60651,15.3481 c -0.37053,-28.2459 -1.87276,-58.57473 -5.38273,-87.73522 m 1.28156,27.59876 c 0.67153,-24.83758 -0.69274,-50.02846 -2.94122,-75.43379 m 0.55823,15.69732 c 0.21438,-24.40227 -0.17585,-47.66901 -0.86219,-70.61798 m 0.39301,13.86727 c -0.85252,-24.17995 -1.02251,-49.54401 -1.98507,-74.56732 m -0.31951,10.15928 c -0.64714,-26.32332 -0.9895,-52.86189 -2.32199,-77.96894 m 8.6892,15.38776 c -0.50204,-23.75532 -0.89518,-46.53728 -1.95339,-68.2692 m -1.24942,22.90158 c 0.25071,-25.92771 0.33882,-51.35708 0.71164,-76.74352 m -4.93011,12.5533 c 0.90582,-22.88278 0.05,-48.06533 -1.14178,-73.94492 m 3.40721,20.01723 c 0.52158,-26.76729 -1.21174,-54.03386 -4.13812,-80.76631 m 5.50548,17.10779 c 0.98983,-26.71273 0.66619,-53.94886 1.07345,-79.96882 m -5.87863,16.63649 c -0.36457,-27.65634 0.58408,-55.04918 2.13574,-82.54584 m -2.95568,20.58189 c 0.58759,-25.16197 0.35654,-50.08101 0.26599,-76.16277 m 4.10873,26.13014 c -0.12426,-33.32469 -0.0344,-64.22222 -0.0379,-96.82432 -5e-5,-0.38982 0.005,-0.77873 0.0138,-1.16667 m 2.32905,19.89314 c 0.23764,-9.09228 0.25606,-18.06895 0.10628,-26.9596 -0.20861,-12.38283 4.30766,-23.38737 11.80122,-31.22459 3.82676,-4.00227 8.42462,-7.17003 13.54641,-9.25413 m -5.25934,8.04931 c 0.33608,-0.36518 0.67754,-0.7245 1.02426,-1.07785 8.28981,-8.44846 19.60388,-13.49827 32.06817,-13.31354 16.02997,0.23759 31.97298,0.81465 47.99948,1.39079 m 116.30337,975.56308 -160.85937,0 m -56.84793,-736.77589 0,-143.51562 m 0,446.82777 0,-149.14063 m 475.79626,-388.01235 190.15625,0 m 19.36102,970.61672 -169.53125,0"
       id="rect4149"
       inkscape:path-effect="#path-effect4152"
       inkscape:original-d="m 333.53125,194.82268 580.58954,0 c 24.93,0 45,20.07 45,45 l 0,880.61672 c 0,24.93 -20.07,45 -45,45 l -580.58954,0 c -24.93,0 -45,-20.07 -45,-45 l 0,-880.61672 c 0,-24.93 20.07,-45 45,-45 z" />
  </g>
</svg>
