<?xml version="1.0" encoding="UTF-8" standalone="no"?>
<!-- Created with Inkscape (http://www.inkscape.org/) -->

<svg
   xmlns:osb="http://www.openswatchbook.org/uri/2009/osb"
   xmlns:dc="http://purl.org/dc/elements/1.1/"
   xmlns:cc="http://creativecommons.org/ns#"
   xmlns:rdf="http://www.w3.org/1999/02/22-rdf-syntax-ns#"
   xmlns:svg="http://www.w3.org/2000/svg"
   xmlns="http://www.w3.org/2000/svg"
   xmlns:sodipodi="http://sodipodi.sourceforge.net/DTD/sodipodi-0.dtd"
   xmlns:inkscape="http://www.inkscape.org/namespaces/inkscape"
   width="233.67999mm"
   height="318.34668mm"
   viewBox="0 0 827.99997 1128"
   id="svg2"
   version="1.1"
   inkscape:version="0.91 r13725"
   sodipodi:docname="background1.svg">
  <defs
     id="defs4">
    <inkscape:path-effect
       effect="sketch"
       id="path-effect4220"
       is_visible="true"
       nbiter_approxstrokes="5"
       strokelength="100"
       strokelength_rdm="0.3;1"
       strokeoverlap="0.3"
       strokeoverlap_rdm="0.3;1"
       ends_tolerance="0.1;1"
       parallel_offset="5;1"
       tremble_size="5;1"
       tremble_frequency="1"
       nbtangents="5"
       tgt_places_rdmness="1;1"
       tgtscale="10"
       tgtlength="100"
       tgtlength_rdm="0.3;1" />
    <inkscape:path-effect
       effect="sketch"
       id="path-effect4218"
       is_visible="true"
       nbiter_approxstrokes="5"
       strokelength="100"
       strokelength_rdm="0.3;1"
       strokeoverlap="0.3"
       strokeoverlap_rdm="0.3;1"
       ends_tolerance="0.1;1"
       parallel_offset="5;1"
       tremble_size="5;1"
       tremble_frequency="1"
       nbtangents="5"
       tgt_places_rdmness="1;1"
       tgtscale="10"
       tgtlength="100"
       tgtlength_rdm="0.3;1" />
    <inkscape:path-effect
       effect="sketch"
       id="path-effect4216"
       is_visible="true"
       nbiter_approxstrokes="5"
       strokelength="100"
       strokelength_rdm="0.3;1"
       strokeoverlap="0.3"
       strokeoverlap_rdm="0.3;1"
       ends_tolerance="0.1;1"
       parallel_offset="5;1"
       tremble_size="5;1"
       tremble_frequency="1"
       nbtangents="5"
       tgt_places_rdmness="1;1"
       tgtscale="10"
       tgtlength="100"
       tgtlength_rdm="0.3;1" />
    <inkscape:path-effect
       effect="sketch"
       id="path-effect4384"
       is_visible="true"
       nbiter_approxstrokes="5"
       strokelength="100"
       strokelength_rdm="0.3;1"
       strokeoverlap="0.3"
       strokeoverlap_rdm="0.3;1"
       ends_tolerance="0.1;1"
       parallel_offset="5;1"
       tremble_size="5;1"
       tremble_frequency="1"
       nbtangents="5"
       tgt_places_rdmness="1;1"
       tgtscale="10"
       tgtlength="100"
       tgtlength_rdm="0.3;1" />
    <inkscape:path-effect
       effect="sketch"
       id="path-effect4382"
       is_visible="true"
       nbiter_approxstrokes="5"
       strokelength="100"
       strokelength_rdm="0.3;1"
       strokeoverlap="0.3"
       strokeoverlap_rdm="0.3;1"
       ends_tolerance="0.1;1"
       parallel_offset="5;1"
       tremble_size="5;1"
       tremble_frequency="1"
       nbtangents="5"
       tgt_places_rdmness="1;1"
       tgtscale="10"
       tgtlength="100"
       tgtlength_rdm="0.3;1" />
    <inkscape:path-effect
       effect="sketch"
       id="path-effect4380"
       is_visible="true"
       nbiter_approxstrokes="5"
       strokelength="100"
       strokelength_rdm="0.3;1"
       strokeoverlap="0.3"
       strokeoverlap_rdm="0.3;1"
       ends_tolerance="0.1;1"
       parallel_offset="5;1"
       tremble_size="5;1"
       tremble_frequency="1"
       nbtangents="5"
       tgt_places_rdmness="1;1"
       tgtscale="10"
       tgtlength="100"
       tgtlength_rdm="0.3;1" />
    <inkscape:path-effect
       effect="sketch"
       id="path-effect4376"
       is_visible="true"
       nbiter_approxstrokes="5"
       strokelength="100"
       strokelength_rdm="0.3;1"
       strokeoverlap="0.3"
       strokeoverlap_rdm="0.3;1"
       ends_tolerance="0.1;1"
       parallel_offset="5;1"
       tremble_size="5;1"
       tremble_frequency="1"
       nbtangents="5"
       tgt_places_rdmness="1;1"
       tgtscale="10"
       tgtlength="100"
       tgtlength_rdm="0.3;1" />
    <inkscape:path-effect
       effect="sketch"
       id="path-effect4374"
       is_visible="true"
       nbiter_approxstrokes="5"
       strokelength="100"
       strokelength_rdm="0.3;1"
       strokeoverlap="0.3"
       strokeoverlap_rdm="0.5;1"
       ends_tolerance="0.1;1"
       parallel_offset="3;1"
       tremble_size="5;1"
       tremble_frequency="1"
       nbtangents="5"
       tgt_places_rdmness="1;523070426"
       tgtscale="10"
       tgtlength="100"
       tgtlength_rdm="0.3;1" />
    <linearGradient
       id="linearGradient5674"
       osb:paint="solid">
      <stop
         style="stop-color:#ff0000;stop-opacity:1;"
         offset="0"
         id="stop5676" />
    </linearGradient>
  </defs>
  <sodipodi:namedview
     id="base"
     pagecolor="#ffffff"
     bordercolor="#666666"
     borderopacity="1.0"
     inkscape:pageopacity="0.0"
     inkscape:pageshadow="2"
     inkscape:zoom="0.7"
     inkscape:cx="403.14083"
     inkscape:cy="668.51828"
     inkscape:document-units="px"
     inkscape:current-layer="layer1"
     showgrid="false"
     fit-margin-top="0"
     fit-margin-left="0"
     fit-margin-right="0"
     fit-margin-bottom="0"
     inkscape:window-width="1440"
     inkscape:window-height="897"
     inkscape:window-x="-8"
     inkscape:window-y="-8"
     inkscape:window-maximized="1" />
  <metadata
     id="metadata7">
    <rdf:RDF>
      <cc:Work
         rdf:about="">
        <dc:format>image/svg+xml</dc:format>
        <dc:type
           rdf:resource="http://purl.org/dc/dcmitype/StillImage" />
        <dc:title />
      </cc:Work>
    </rdf:RDF>
  </metadata>
  <g
     inkscape:label="Layer 1"
     inkscape:groupmode="layer"
     id="layer1"
     transform="translate(-211.79457,-116.50621)">
    <path
       inkscape:connector-curvature="0"
       style="fill:none;fill-opacity:0.60355033;stroke:#000000;stroke-width:1;stroke-linecap:round;stroke-linejoin:round;stroke-miterlimit:4;stroke-dasharray:none;stroke-dashoffset:0;stroke-opacity:1"
       d="m 923.9869,203.22334 c 10.50445,1.07706 19.63974,5.63225 26.42119,12.43308 8.21546,8.23895 13.01252,19.80892 12.58653,32.62211 -0.168,5.05315 -0.34831,10.10649 -0.52615,15.14848 m -1.36531,-29.59205 c 0.10795,1.42363 0.15309,2.8698 0.13237,4.33552 -0.31328,22.15774 0.37411,44.94516 1.43727,67.8586 m -6.48015,-9.71848 c -1.0773,24.4295 -0.38444,48.7094 0.30472,72.15371 m 5.59461,-13.91353 c 1.44799,32.75708 0.69208,64.03358 1.70315,96.71052 m -8.14922,-36.01815 c -0.84915,27.56001 1.32941,55.72039 4.73603,82.95396 m -0.51729,-15.095 c -0.79693,26.23792 0.70791,49.86803 3.11913,72.16467 m -7.22068,-13.61759 c -0.72882,24.90549 0.58136,49.53101 2.69777,73.88544 m 4.84179,-20.69833 c 0.47515,23.18318 -0.44305,47.57513 -2.06512,72.84832 m -1.02075,-13.6232 c 0.82747,31.2916 -0.29253,60.39524 -1.21555,88.74455 m 3.20727,-26.64015 c -0.60368,31.72302 0.89553,62.00929 2.96391,94.36939 m -4.87728,-23.80929 c 1.34785,27.79159 0.50952,54.76722 0.18708,81.70288 m -4.95272,-25.28743 c 1.42971,30.79803 0.19006,59.38489 -0.27131,87.65644 m -1.13504,-16.54802 c 1.05559,28.12625 1.22549,58.07316 2.73152,90.40911 m 3.83022,-28.24746 c -0.93792,25.70166 -1.25434,51.11326 -2.46009,78.16336 m 2.34334,-22.3075 c 0.15408,25.6212 -0.75235,52.3475 -2.40257,78.8501 m 0.68359,-15.982 c -0.13956,8.5501 -0.12638,17.048 0.0138,25.5371 0.2138,12.9492 -4.41366,24.6061 -12.05784,33.2222 -6.58179,7.4186 -15.36617,12.5418 -25.1522,14.2914 m 22.52606,-10.8987 c -7.57057,6.2846 -17.30629,9.8206 -27.95653,9.4112 -22.24278,-0.8549 -44.77881,-3.0168 -67.01795,-5.8779 m 26.81051,1.1365 c -32.5671,0.7785 -64.75882,1.7659 -96.24458,5.2171 m 26.50651,-6.5844 c -27.24575,0.2459 -53.42184,-0.514 -78.19458,-1.7731 m 8.42016,9.1947 c -29.03083,-0.669 -58.27775,-0.6909 -85.23767,-1.7019 m 25.09066,0.5301 c -31.07929,-0.3692 -63.19244,-1.0673 -95.221,-3.1067 m 30.21002,1.1141 c -33.61306,-1.6071 -64.52637,0.6755 -95.41995,2.1761 m 25.7603,1.4961 c -31.4892,-0.5554 -63.09692,-2.7639 -94.61912,-8.1038 m 20.87421,7.5961 c -33.746,-0.3494 -65.4522,-0.1069 -96.94253,-0.3089 m 30.85029,-9.2609 c -22.372,0.9902 -45.85063,1.7867 -69.48295,3.8247 -7.31134,0.6305 -14.2341,-0.2688 -20.41026,-2.3133 m 27.30552,6.8085 c -1.21776,-0 -2.43498,-0 -3.65172,-0 -12.91327,0 -24.51901,-4.9692 -33.00487,-13.023 -7.52901,-7.1458 -12.57919,-16.696 -13.90404,-27.303 m 6.96861,17.4531 c -2.51302,-5.951 -3.88689,-12.4867 -3.81781,-19.33 0.23166,-22.9516 0.363,-45.3658 0.85758,-68.1693 m -2.85098,23.6411 c -0.92651,-24.4962 -0.87996,-49.9193 -1.42366,-75.4835 m -0.80254,18.4562 c -0.0107,-27.46324 0.85056,-57.42026 2.56592,-88.70978 m -5.80832,14.43998 c -0.72277,-34.13111 0.62242,-65.03683 1.88339,-95.87447 m 0.0698,37.41632 c -0.35233,-26.13896 0.60522,-54.01564 2.15219,-81.18628 m 9.56679,11.62691 c 0.29127,-27.39281 0.008,-54.97332 -0.22163,-82.25238 m -3.2939,23.56797 c 0.6075,-30.54442 -1.21885,-59.92362 -3.92064,-88.21984 m 0.71715,17.35519 c -0.50172,-31.68373 0.0394,-62.37919 0.27237,-92.95859 m 4.80636,20.88625 c 1.2903,-29.26293 0.14448,-57.4761 -0.43512,-84.04061 m -9.95605,34.57701 c -0.33649,-30.25318 0.84945,-61.48882 2.66445,-92.30797 m -0.98508,9.8642 c -1.0147,-24.94892 -0.54179,-48.22855 -0.11578,-71.5203 m 3.28055,26.3206 c 0.94792,-33.13329 -2.7858,-66.41607 -8.48609,-100.71261 m 12.90023,34.25891 c 1.14844,-31.40442 0.66592,-63.66922 1.72978,-95.28329 m -9.5817,11.23212 c 1.1e-4,-11.96309 0.20748,-23.77763 0.6201,-35.39293 0.33799,0.0127 0.67613,0.0256 1.01443,0.0386 -0.007,0.57317 -0.007,1.14704 3.1e-4,1.7215 0.42024,11.95458 3.84608,23.91041 10.03814,34.91744 m -5.26749,-0.53817 c 6.64964,30.11009 35.67337,49.96976 69.87353,49.25928 m -28.50522,-10.15489 c 7.97172,2.90008 16.71152,4.50436 25.73044,4.6544 23.68533,0.39412 46.91069,-9.24404 62.17139,-26.3515 m -16.38955,21.19583 c 19.07782,-13.02653 30.80806,-34.76037 30.92988,-58.05923 0.0121,-2.33028 -0.0925,-4.65922 -0.31369,-6.97816 m -2.20347,12.60523 c 0.34653,-3.21281 0.47412,-6.48234 0.37628,-9.77884 -0.65656,-22.09555 -11.37342,-43.72646 -30.01627,-57.19214 m 9.28133,10.9775 c -13.01216,-14.70914 -30.36182,-23.54406 -48.84953,-24.66843 0.0178,-0.35361 0.0397,-0.70623 0.0508,-1.06126 5.14884,0.0523 10.31298,0.11128 15.47722,0.17264 m -17.35848,5.76057 c 0.004,-0.17428 0.008,-0.34884 0.009,-0.52405 29.26485,0.92086 59.78711,-0.64074 91.28321,-2.49405 m -25.93681,-1.15636 c 32.9545,-0.0127 66.14963,0.40146 99.8471,1.25264 m -35.02465,-3.63565 c 31.2825,-0.61733 62.51712,-0.11069 95.88077,0.0149 m -24.78468,-1.14762 c 33.24164,-0.27276 63.5813,-0.34574 90.97709,-1.04984 m -21.42211,2.80748 c 32.67879,-0.80602 61.42242,-1.71729 89.98879,-4.88756 m -22.23797,-2.7688 c 30.49936,-1.12956 61.70277,0.0106 91.9879,0.46208 m -18.03549,4.38227 c 28.68104,0.65154 57.06473,-1.01578 85.95628,-3.56404 m -30.5018,-2.06165 c 25.89272,-1.22354 53.79463,1.11412 81.50324,4.59442 0,-1e-5 0.003,0.0129 0.003,0.0129 1.16017,0.14585 2.30994,0.33306 3.44778,0.56018 m -29.28107,7.21591 c 6.00886,0.0725 12.05618,0.13 18.1439,0.1792 0,0 0.002,8.2e-4 0.002,8.2e-4 12.89375,0.104 24.69137,5.26829 33.49068,13.62893 6.05053,5.7489 10.67453,12.99906 13.28189,21.15487 m -31.58212,-41.55546 c 8.94205,1.75761 16.84497,6.0972 22.90795,12.1909 8.10988,8.15098 12.94529,19.4652 12.5111,31.91894 -0.40087,11.49794 -0.91293,22.93394 -1.52315,34.27216 m 5.4235,-22.94236 c -1.1071,27.5643 -0.049,55.12124 1.00615,83.74837 m -3.93568,-25.00213 c -0.69105,25.98468 0.99713,54.69752 3.70787,83.64895 m 6.01897,-25.24504 c 0.0611,25.80939 -1.83014,53.45402 -5.56189,82.02441 m -9.04717,-18.47614 c 1.01334,30.13189 2.02351,58.92988 5.50028,87.14983 m 4.14739,-26.81981 c -1.25916,28.64651 -1.41617,60.2287 -3.40582,93.24283 m -1.32007,-21.35937 c 0.76723,31.70486 -0.041,62.31555 -0.34764,91.86423 m 3.12066,-24.99981 c -0.43696,24.40955 0.38809,50.53834 1.73906,76.56824 m -3.57509,-24.9052 c -0.65707,24.2833 -0.33074,48.83527 -0.0783,73.49452 m 2.8125,-6.19384 c -1.34652,31.1526 0.45896,61.76248 2.06474,93.44083 m -3.3144,-30.70144 c -0.24565,24.33606 1.17289,49.28415 3.88256,75.02523 m 3.92996,-12.3248 c -0.21035,24.63696 -0.56199,50.89538 -1.43997,76.98843 m 1.20601,-23.29047 c 0.79361,22.91066 -0.50897,47.54708 -2.65676,72.35869 m -6.64014,-9.68042 c 0.82671,27.50165 1.1827,52.73445 2.63864,77.68305 m -4.08406,-26.1939 c 0.5039,25.5416 0.21253,50.7691 -0.003,76.1075 -0.003,0.3741 -0.0108,0.7473 -0.0227,1.1193 m 4.82946,-14.3642 c -0.17812,5.6177 -0.34317,11.1994 -0.51023,16.7499 -0.38088,12.6542 -5.84472,23.9249 -14.63889,31.9389 -8.78844,8.0089 -20.90082,12.7641 -34.62263,12.3158 -3.21504,-0.105 -6.44915,-0.2134 -9.70462,-0.3244 m 34.19369,-10.5722 c -6.08833,2.5026 -12.66336,3.8675 -19.43632,3.7804 -21.28709,-0.2739 -40.97256,-0.3206 -60.27813,-0.7277 m 21.65857,10.1612 c -24.37841,-0.7048 -48.42167,-0.9184 -72.11576,-1.7805 m 6.29947,0.336 c -27.88607,1.2994 -55.95904,0.3244 -85.40889,-0.3162 m 29.52423,-3.2785 c -29.36686,-1.2786 -62.63994,0.9955 -97.42252,3.6549 m 27.05668,-2.2875 c -32.39419,-0.7778 -62.02285,-1.7614 -92.2167,-4.9782 m 22.17161,3.8068 c -22.95517,0.5465 -47.26493,0.2984 -71.74066,0.094 m 10.49139,5.1407 c -23.52734,0.4532 -46.1043,0.3193 -67.48654,0.2755 m 16.57765,-6.1738 c -25.35097,0.7771 -48.23755,0.3224 -70.36408,-0.1508 m 21.11318,2.0645 c -27.25575,0.032 -55.28793,-0.8073 -84.54336,-2.4425 m 10.58013,1.3874 c -17.77193,-0.8143 -34.9974,-0.22 -51.63288,1.0764 -11.83463,0.9223 -22.21674,-3.0062 -29.17984,-10.0248 -1.96946,-1.9852 -3.66386,-4.2168 -5.03631,-6.6532 m 23.37206,15.3078 c -6.41013,-2.4348 -12.07508,-6.0725 -16.6896,-10.6029 -8.27321,-8.1223 -13.17201,-19.1291 -12.80259,-31.065 0.19025,-6.1469 0.41563,-12.2241 0.6574,-18.2458 m 5.60407,12.0214 c 1.16075,-24.3162 -0.0514,-46.6038 -1.93834,-68.2144 m -4.3907,18.3653 c -0.99655,-23.2297 -0.83709,-48.7177 -1.08498,-75.16161 m 2.76506,18.15501 c -0.0737,-27.09801 -0.6919,-53.84967 -1.97206,-80.64217 m -3.53552,14.06837 c 0.51792,-25.48195 1.32456,-50.71012 3.32173,-76.47061 m -3.79093,12.42616 c -0.58628,-23.1707 0.38052,-46.63842 1.99738,-69.36534 m 0.69812,16.82094 c -0.1356,-25.60412 0.98241,-50.10652 3.14117,-74.7412 m -0.71972,24.54878 c -1.18258,-24.21726 -0.13473,-48.77871 1.25249,-73.34262 m -1.52538,10.58608 c 0.20895,-28.87161 -1.49773,-58.98255 -4.60909,-88.1804 m 9.60899,27.90392 c -0.0827,-23.91759 0.32834,-48.01307 1.097,-72.8343 m -12.85478,18.06553 c -0.0111,-29.38752 1.37697,-58.69898 4.16812,-88.57635 m -3.6998,14.23711 c -1.09446,-24.58115 -0.34783,-49.67672 0.292,-73.23454 m 1.70025,23.31669 c -1.11886,-29.01491 0.96781,-60.55045 3.52146,-91.7873 m 9.87751,16.98645 c 0.40172,-25.63417 -0.37565,-49.1733 -1.65598,-72.46037 m -3.18772,22.1904 c 0.60049,-26.62348 0.40044,-55.37829 0.63616,-84.53432 0.32964,-0.0202 0.65934,-0.0404 0.9891,-0.0607 -0.0213,0.5169 -0.0358,1.03394 -0.0436,1.55102 0.0361,3.51228 0.38242,7.01264 1.03918,10.46813 m -0.66779,-1.46821 c 0.0653,-4.67107 0.13297,-9.27683 0.20706,-13.81916 0.33205,0.007 0.66414,0.0141 0.99625,0.0217 -0.0173,0.56389 -0.0279,1.12898 -0.0319,1.69513 0.35366,21.97516 10.62158,43.9437 28.41071,60.20474 m -20.94152,-11.76471 c 12.35787,18.68862 33.74,29.03724 56.4859,28.56193 11.22752,-0.23458 22.32247,-3.09692 32.28242,-8.27473 m -36.19086,6.75682 c 24.37729,-1.72194 47.31951,-16.5701 59.17125,-39.63202 m -2.40388,21.81924 c 11.07156,-11.8748 16.94207,-28.14154 16.9923,-45.45212 0.0517,-18.02153 -6.18273,-35.98969 -17.09197,-50.39193 m 17.64591,18.02579 C 423.63399,213.19482 399.9464,195.36323 373.14465,194.6947 m 19.92825,2.51099 c -6.45116,-2.59836 -13.43957,-4.16333 -20.64598,-4.60996 0.0159,-0.35409 0.0355,-0.70745 0.0439,-1.06319 21.71329,0.17704 42.6605,0.0753 64.14563,0.26462 m -27.02959,5.15176 c 29.39399,-0.71565 57.65987,-2.00555 84.45175,-5.57991 m -18.52691,5.18992 c 23.20798,0.91219 46.14596,-0.94273 68.5604,-4.21435 m -14.67699,3.39392 c 30.61747,0.86799 61.79945,1.01773 91.76099,2.76449 m -21.96626,1.88318 c 26.14674,-1.32004 54.00723,-0.69594 81.78793,-0.7326 m -22.16007,-5.12652 c 32.55092,-0.75354 65.139,-0.36589 98.81482,-0.948 m -34.86722,3.33129 c 33.74701,0.78333 67.0749,0.0362 103.95652,-0.0348 m -32.65454,-7.03577 c 23.52363,-0.0457 46.45914,0.31024 68.93252,0.9818 m -7.10131,5.03397 c 20.94284,0.27308 42.23032,0.15539 62.68864,-0.0137 0,0 -0.006,-7.7e-4 -0.006,-7.7e-4 9.17508,-0.0759 17.49269,2.89493 23.96015,8.04038 m -11.43262,-4.56312 c 8.95347,1.35359 16.96978,5.71698 23.04598,12.07224 7.85788,8.21877 12.52613,19.82955 11.78726,32.68469 -0.52773,9.1818 -1.18271,18.37548 -2.03543,27.50359 m -0.52621,-26.10718 c 0.1417,23.88172 -0.75504,48.39892 -2.46635,73.02092 m 0.31764,-19.30431 c -0.55185,26.13394 0.79671,53.01599 3.01304,80.53048 m -5.23943,-23.41818 c -0.13257,27.73105 -0.008,57.37913 0.10096,87.69348 m 0.8755,-22.27723 c -0.40059,27.95329 1.06413,55.70341 3.58864,83.64518 m -5.97177,-20.99601 c -1.18485,24.49133 -0.41691,51.76698 0.18706,79.63311 m 3.4459,-16.9803 c -0.9705,31.58955 -0.25737,63.18913 -0.3551,96.19431 m -7.6137,-30.3797 c -1.16783,32.96482 0.25347,62.64478 1.01399,91.32101 m 4.92433,-24.79589 c 1.48289,32.56807 -1.82014,63.98009 -5.58059,93.75406 m 9.29117,-22.27862 c 0.24208,26.5598 0.0719,52.74822 -0.0974,79.90188 m -2.44214,-24.09263 c -1.23465,32.09599 -1.08423,63.16572 -2.89083,94.52997 m -1.32777,-20.89066 c -0.74224,32.1379 1.85991,59.05671 5.94079,84.51017 m 4.13778,-19.33366 c 0.60898,30.91553 -1.76184,60.8291 -5.59269,91.9346 m 4.96716,-24.7323 c -0.92611,29.4487 -1.39739,56.2846 -3.46909,82.4802 m -0.0465,-14.4762 c -0.4572,15.7779 -0.58725,30.5339 -0.67802,44.5012 -0.0627,9.6506 -3.70309,18.1527 -9.86168,24.3976 m 10.16448,-20.5122 c -2.45666,7.674 -6.60688,14.6156 -11.9906,20.3168 -8.22763,8.7128 -19.25737,14.4487 -31.35108,15.5115 -6.58988,0.5791 -13.12379,1.2603 -19.63569,2.0515 m 15.86966,0.2596 c -29.86604,-0.2125 -59.32133,-1.0444 -87.56347,-3.0216 m 24.89685,-5.4548 c -26.73545,0.2291 -51.56098,0.958 -76.67605,2.5937 m 13.70029,7.9136 c -26.61684,-1.1744 -51.74264,-1.068 -75.80024,-1.8898 m 12.207,2.8666 c -25.23927,-0.4623 -49.783,-0.4648 -74.5583,-0.7751 m 18.94829,0.5407 c -26.54478,-0.5773 -51.88922,-2.0339 -76.32745,-5.4385 m 8.55491,-7.2957 c -23.29769,-0.1758 -46.67164,0.9217 -69.46593,3.0242 m 24.58421,4.0856 c -25.53469,0.9643 -51.28671,1.9553 -75.92043,4.7637 m 10.28553,-6.7563 c -24.39021,-0.076 -48.30632,0.3638 -71.56779,1.2055 m 7.66459,-1.8697 c -29.19075,-0.4385 -60.28388,0.7773 -90.35327,2.5218 m 29.6224,7.8693 c -11.16988,0.3689 -22.7147,0.436 -34.50854,0.3337 -12.9827,-0.1126 -24.9862,-5.5142 -33.92069,-14.1003 -5.10949,-4.9102 -9.22125,-10.8645 -11.96359,-17.4837 m 20.74756,6.0473 c -1.09222,-0.9819 -2.14216,-2.0111 -3.14546,-3.0839 -7.83343,-8.3762 -12.80765,-19.4082 -12.82333,-31.1649 -0.0138,-10.3737 -0.14152,-20.3546 -0.21223,-30.0198 m 6.89109,26.618 c 0.55041,-27.2072 -0.96491,-54.8125 -3.45923,-83.0016 m -11.81409,14.8944 c 0.89762,-29.1039 2.1403,-55.54838 5.64293,-81.63191 m 6.23195,19.98022 c 0.60673,-29.26415 0.85302,-58.72436 2.14154,-88.26174 m 0.16269,18.44878 c -0.64893,-26.0111 -1.96719,-51.04413 -5.1382,-75.20851 m -3.84574,22.18029 c 0.44438,-25.03963 0.47566,-50.47899 0.84661,-75.88572 m 9.2309,16.78226 c -1.39261,-32.46123 -1.84112,-65.11878 -5.26469,-98.90856 m -8.01644,31.69086 c -0.74575,-22.90129 0.2991,-47.72393 2.00037,-72.96644 m 4.24974,9.76987 c -0.59966,-28.18269 0.84253,-57.38976 2.89507,-84.40687 m -5.59011,20.82559 c 0.23401,-32.35387 -1.26529,-66.39683 -3.78913,-99.20904 0,0 -7.6e-4,-0.01 -7.6e-4,-0.01 m -3.78826,30.42915 c 0.1306,-28.82819 1.69242,-56.58048 4.95292,-85.4277 m -2.41384,22.99322 c 0.17921,-28.54568 1.09668,-59.4926 3.17964,-92.62483 m -5.28865,24.07749 c 1.16812,-27.28464 2.29671,-53.66139 5.74907,-78.82375 m 8.97753,25.31759 c 1.2744,-27.88504 -1.13324,-55.94472 -4.66432,-85.12018 m -0.76549,16.37996 c 0.23785,-7.04902 0.33726,-14.00329 0.33008,-20.86927 0.32649,0.006 0.65276,0.0129 0.9788,0.0197 -0.0275,0.5626 -0.0492,1.12603 -0.065,1.69018 -0.12216,26.16079 12.37339,51.15762 33.45983,65.99451 M 300.15162,313.1322 c 13.04576,16.39343 33.18839,27.21792 54.29355,28.53467 9.66615,0.60311 19.14008,-0.82124 27.72659,-4.2274 m -24.47031,-6.18651 c 31.43861,-1.57938 57.98093,-23.11004 68.29225,-53.67065 m -3.40495,30.42604 c 8.3775,-12.16594 12.32957,-26.0091 11.61347,-40.06741 -1.0075,-19.76597 -11.13996,-38.50062 -27.64025,-52.56213 m 25.02899,23.40932 C 420.52487,215.8246 398.76754,200.00682 373.20957,198.65562 m 10.03694,3.65401 c -5.98018,-2.13865 -12.11082,-3.54339 -18.24716,-4.19243 0.0139,-0.36971 0.0321,-0.73863 0.0395,-1.11034 23.38219,-0.83401 47.90158,-2.62814 72.9881,-5.83991 m -20.9686,8.59461 c 29.15169,-0.32241 60.18695,-1.09944 89.5496,-3.15792 m -34.21728,-2.9357 c 28.34331,0.0846 55.25048,0.45645 83.25817,1.25087 m -24.68573,4.76516 c 30.50326,1.28365 61.77405,-1.60475 95.29849,-5.55495 m -22.47706,-1.16389 c 31.8808,1.0905 65.13914,0.85966 100.22186,2.30689 m -26.5095,-3.47862 c 28.94721,1.36686 55.25316,-0.42717 81.33784,-2.54496 m -27.22364,0.74737 c 29.88354,-0.68574 60.69168,1.15575 92.70375,3.87536 m -20.98215,-1.21851 c 27.80648,1.00179 53.81949,0.54938 79.59433,0.64066 m -14.44153,-1.89122 c 17.52538,-0.33698 35.29066,0.15056 53.21545,1.17062 0,0 0.002,0.006 0.002,0.006 6.44627,0.36755 12.60175,2.06063 18.21611,4.82629 m -27.24078,0.62743 c 11.52432,0.20831 22.4606,5.2668 30.84727,13.34694 8.78702,8.46586 14.77343,20.21785 16.03909,33.36341 0.60518,6.28571 1.27275,12.59252 1.97713,18.90961 m -7.68059,-29.96533 c 0.12848,1.70628 0.17098,3.44192 0.12209,5.20157 -0.78732,28.33723 1.28727,56.56152 3.61391,83.60826 m 2.61922,-23.78873 c 1.02022,27.46278 -0.33384,56.75773 -1.91802,86.52689 m 7.89406,-25.07087 c -0.43621,27.88862 -0.69938,55.64705 -1.66166,84.59675 m -0.56498,-22.63891 c -0.62144,25.04539 0.41965,50.86587 2.03063,76.33055 m 0.86043,-18.27203 c 0.60341,32.60775 0.19614,63.07706 0.35715,94.30264 m -9.26382,-20.0225 c -0.70665,32.68681 2.18408,61.78484 6.78159,91.18382 m -0.45297,-25.16421 c 0.86596,30.39319 -1.33033,62.60055 -4.26621,93.09152 m 0.20294,-23.02269 c -1.66191,34.8264 0.89347,66.46075 2.68375,99.5708 m -1.19914,-39.93849 c -0.75438,29.23546 0.414,58.44605 1.77771,88.50625 m -0.996,-13.38766 c 0.6498,31.03792 0.0179,66.9032 -0.0366,103.05482 m -0.7841,-35.00537 c -0.48276,28.87563 -0.85085,59.0901 -2.26835,89.38166 m -2.10676,-28.1139 c -0.65587,24.0448 0.18046,48.82266 1.47677,73.85366 m 6.99989,-20.4075 c -0.59497,34.6757 -2.275,66.1738 -6.78007,99.1809 m -1.57864,-22.433 c 0.58601,11.7564 0.86734,23.517 1.07289,35.186 0.21704,12.3215 -4.76685,23.3522 -12.76175,31.0237 -2.77014,2.658 -5.90345,4.9149 -9.30894,6.6839 m 15.2324,-15.4685 c -1.62653,2.4165 -3.5,4.6799 -5.58603,6.7541 -8.09013,8.0445 -19.35338,13.2229 -31.79545,13.52 -8.80565,0.2103 -17.57769,0.5208 -26.28231,0.8619 m 11.86312,4.0143 c -30.10303,-0.5284 -60.81145,1.1295 -92.12375,3.6789 m 26.49304,-4.2254 c -34.54002,0.7472 -65.83166,0.9554 -98.4103,2.8305 m 36.60901,3.7319 c -26.20122,0.1274 -50.93872,-1.1863 -75.98157,-3.7204 m 15.70318,-5.5763 c -33.92335,0.8899 -65.89996,1.2979 -98.56424,3.7962 m 30.6996,-1.2963 c -31.18413,0.4584 -61.61662,0.6551 -93.99483,1.7301 m 28.59894,-6.4566 c -31.40515,0.6854 -62.14433,1.7031 -95.11129,4.7173 m 26.41582,-0.1085 c -29.70984,-1.0133 -60.26679,-1.3578 -90.52888,-3.5454 m 20.72823,7.1399 c -24.80913,0.9602 -47.78823,0.3054 -70.68498,-0.4932 m 12.77358,-6.3819 c -17.61387,0.5127 -33.93135,0.6597 -49.54846,0.8291 -11.75835,0.1276 -22.00687,-4.8456 -28.95258,-12.8423 -0.33461,-0.3853 -0.66156,-0.7775 -0.98064,-1.1766 m 14.31856,18.5649 c -7.07003,-2.4303 -13.25665,-6.4625 -18.13464,-11.6837 -7.97075,-8.5315 -12.48078,-20.2824 -11.47679,-33.3889 0.67761,-8.8459 1.50689,-17.7575 2.46815,-26.7765 m 3.37564,14.1259 c 0.54384,-26.1377 -1.65648,-52.1725 -5.5549,-77.7721 m 4.85158,21.5682 c 0.0282,-23.0319 0.5913,-46.5774 1.75433,-69.20965 m -7.22279,4.27752 c 0.86288,-28.67603 0.0196,-55.60321 -0.62548,-81.52298 m 4.18035,25.03369 c 1.25766,-27.08474 0.7816,-53.14361 0.89727,-79.81836 m -5.85854,21.18288 c 0.38698,-25.15545 0.6647,-49.89438 1.51544,-73.76842 m -4.21042,11.6614 c 1.56677,-32.33156 0.6574,-64.99362 1.66142,-97.91693 m 0.25203,32.82506 c -0.31908,-25.05001 -0.0759,-48.34808 0.21608,-71.47299 m 12.9873,15.78396 c 0.35165,-26.43213 -1.33991,-53.32732 -4.39424,-78.90153 m 1.50354,9.05035 c 0.12219,-23.68194 -1.45119,-47.51451 -4.52674,-70.76877 m -1.21554,16.63706 c -0.0973,-26.09357 0.25308,-50.66537 0.88037,-75.67581 m -5.76289,25.04119 c 0.80946,-33.78705 -0.51928,-63.7301 -1.65991,-93.7946 m 10.99519,24.12308 c -1.03039,-26.29576 -1.88056,-51.9379 -4.33934,-78.53948 m -6.98865,17.74616 c -0.82689,-31.46414 -0.82187,-61.83775 -2.01674,-94.09043 m 11.97787,30.70781 c -0.15461,-17.94066 -0.33575,-36.33515 -0.68201,-54.32168 0.32083,0.0149 0.64161,0.0299 0.96234,0.0451 -0.0365,0.57677 -0.0666,1.15419 -0.0904,1.73217 -0.14014,7.64436 0.83731,15.3062 2.88109,22.78061 m -13.05382,-26.05567 c 1.07904,28.75981 20.8656,55.29237 50.18792,65.44244 m -12.40242,-9.74209 c 12.37154,9.05048 26.9419,13.82182 41.86406,13.81637 13.36127,-0.005 26.41912,-3.83897 37.83782,-10.93056 m -20.3097,10.13824 c 29.49149,-7.80798 51.47554,-37.00613 51.84991,-70.97004 0.009,-0.8404 0.005,-1.6813 -0.0123,-2.52238 m -7.15799,25.88088 c 2.60922,-7.48217 4.0482,-15.20165 4.24822,-22.8174 0.42018,-16.02059 -4.67406,-30.77851 -14.25437,-41.13624 m 6.8518,7.76775 c -11.41901,-20.42735 -33.31067,-35.48158 -58.35709,-38.49774 -0.001,-0.37658 0.001,-0.75263 -0.008,-1.13094 1.60377,-0.091 3.20544,-0.18352 4.80493,-0.27703 m 1.72178,4.55868 c -3.9406,-0.94089 -7.9106,-1.58664 -11.87284,-1.93081 0.0103,-0.36334 0.025,-0.726 0.029,-1.09145 22.30581,-0.41537 45.84572,-1.96039 70.01423,-4.60079 m -16.02773,-3.60611 c 25.59654,-1.27025 52.82052,-0.0415 79.12704,1.18499 m -18.13918,2.25257 c 24.27481,-1.05163 49.40791,-0.70905 73.84138,-0.75205 m -8.95296,6.2208 c 31.86729,-1.32164 62.36934,0.0496 92.92234,0.60795 m -30.57666,1.18916 c 24.86434,-0.46189 49.18594,-0.14473 72.42835,0.14505 m -12.34532,0.0118 c 30.12136,1.3467 61.41125,0.94167 91.39228,2.29239 m -29.3668,-3.93339 c 25.15253,0.16165 51.07957,-0.83939 76.4149,-2.73196 m -8.48808,8.78696 c 32.35988,1.23193 65.12649,-1.01297 95.76899,-3.10388 m -33.68362,-6.23276 c 18.86012,-0.64831 38.94506,-0.0386 59.28144,1.15538 0,0 0.004,0.006 0.004,0.006 4.39073,0.2582 8.64986,1.11347 12.69338,2.48638 m -6.46317,2.87758 c 10.54118,1.38562 20.21852,6.26003 27.75898,13.47427 8.72709,8.34953 14.53339,19.76679 15.62093,32.49107 0.83561,9.77677 1.84497,19.57502 2.99977,29.44749 m -2.89466,-29.58756 c 1.09727,23.14375 -0.45211,48.15539 -2.9274,73.31682 m 1.36456,-19.63943 c 0.31957,25.12964 -0.75441,51.73191 -2.63106,77.39368 m 2.94295,-20.02736 c -1.28864,26.98244 -2.00173,52.8761 -4.51886,79.14903 m 6.94077,-13.67734 c -1.27317,28.24543 -1.18477,55.99334 -2.39717,84.03528 m 1.30437,-28.3586 c 1.24981,25.23501 0.47926,50.67912 -0.14708,76.02707 m 1.27954,-8.33462 c 0.35004,23.70018 0.49342,49.29289 1.00728,74.78293 m -3.39025,-26.71272 c -0.0616,30.58775 -0.52663,65.03352 -1.53684,100.86992 m 4.62326,-27.22599 c 1.32902,29.13671 -1.33076,56.52088 -5.06776,83.83387 m 2.09871,-20.45181 c 0.38226,23.76835 0.0775,47.81608 -0.3137,71.9592 m 2.11063,-14.42656 c 0.5863,26.45381 0.35086,50.82163 0.37466,73.28748 m 0.0936,-9.52132 c -0.76162,28.73468 -0.26588,54.65673 -0.092,79.59488 m -3.46205,-25.01209 c 1.01025,28.98504 -0.50958,59.62132 -2.24152,91.70977 m 3.49166,-23.01135 c 1.4776,31.65284 -0.47477,60.40644 -2.10156,89.06784 m 6.00727,-28.3597 c -0.13766,25.7796 0.49611,52.0914 1.65471,79.9246 m -7.67034,-17.0821 c -0.0387,7.1699 -0.0496,14.3009 -0.0382,21.4063 0.0205,12.7326 -4.99645,24.1486 -13.15374,32.3922 -8.15733,8.2437 -19.4436,13.3013 -31.94453,13.3131 -1.08492,0 -2.16974,0 -3.25447,0 m 34.16276,-7.0801 c -6.9002,4.2255 -15.02161,6.6503 -23.78333,6.6916 -22.76622,0.1073 -46.00475,-0.087 -69.89708,-0.056 m 29.91328,-1.3051 c -32.95975,-1.1347 -67.04354,-1.5436 -104.12977,-4.4356 m 25.42567,2.4049 c -31.50132,0.7402 -62.0789,2.1447 -91.50231,6.211 m 23.46109,-1.3281 c -29.08996,0.9446 -60.33698,-0.9749 -90.90356,-3.4481 m 27.28525,5.9865 c -26.62147,-1.0556 -52.74885,-1.1779 -78.6383,-2.3969 m 14.90055,2.6316 c -27.4966,-0.2031 -58.0619,0.7445 -88.50355,2.3731 m 28.58366,-7.2953 c -29.37085,-1.039 -57.49722,-0.9691 -85.42473,-2.1671 m 24.56785,7.9878 c -29.1633,0.1771 -57.8293,0.059 -87.77041,0.038 m 26.28151,-6.327 c -27.81203,1.2764 -56.59715,0.7618 -87.05388,1.0485 -2.42511,0.023 -4.82006,-0.1015 -7.17545,-0.3622 m 24.95311,4.3523 c -5.58874,0.022 -11.28549,0.026 -17.07618,0.013 -12.79473,-0.029 -24.75383,-5.2405 -33.79686,-13.6703 -5.52144,-5.1471 -9.95617,-11.4907 -12.86604,-18.6014 m 8.50894,13.5875 c -6.27213,-8.0836 -10.08435,-18.1228 -10.2005,-28.9307 -0.1431,-13.3155 -0.43634,-26.3821 -0.8241,-39.3472 m 0.39301,13.8673 c -0.85252,-24.18 -1.02251,-49.5441 -1.98507,-74.5674 m -0.31951,10.1593 c -0.64714,-26.3233 -0.9895,-52.86188 -2.32199,-77.96892 m 8.6892,15.38776 c -0.50204,-23.75532 -0.89518,-46.53728 -1.95339,-68.2692 m -1.24942,22.90158 c 0.25071,-25.92771 0.33882,-51.35708 0.71164,-76.74353 m -4.93011,12.55331 c 0.90582,-22.88278 0.05,-48.06533 -1.14178,-73.94492 m 3.40721,20.01723 c 0.52158,-26.76729 -1.21174,-54.03386 -4.13812,-80.76631 m 5.50548,17.10779 c 0.98983,-26.71273 0.66619,-53.94886 1.07345,-79.96882 m -5.87863,16.63649 c -0.36457,-27.65634 0.58408,-55.04918 2.13574,-82.54584 m -2.95568,20.58188 c 0.58759,-25.16196 0.35654,-50.081 0.26599,-76.16276 m 4.10873,26.13014 c -0.12574,-33.72198 -0.0322,-64.95859 -0.038,-97.9911 m 2.34302,19.89325 c 0.7075,-27.06985 -0.52813,-53.11487 -2.36039,-78.91615 m 10.40715,16.41757 c 0.41983,-29.14486 0.16175,-56.41902 0.16396,-83.69606 m -10.20314,29.4523 c 0.0863,-27.48386 0.37622,-57.0375 1.07303,-88.46131 m 2.01292,25.30443 c 0.059,-14.09285 -0.26126,-28.16574 -0.92861,-42.38115 0.311,-0.0106 0.6218,-0.0212 0.9324,-0.0319 -0.0536,0.53307 -0.10122,1.06618 -0.14287,1.59923 -0.60754,11.36121 1.5109,22.41884 6.08048,32.01041 m 0.94455,-23.3688 c 6.30696,29.03863 31.16879,51.59384 60.75743,57.15578 m -23.94277,-3.29439 c 8.49734,4.36103 18.05934,6.60437 27.90772,6.68873 18.93004,0.16222 37.71194,-7.63282 51.44247,-21.00044 m -18.72548,9.98618 c 22.7413,-10.98962 36.74492,-34.50327 36.0116,-58.94842 -0.20021,-6.6661 -1.49828,-13.21192 -3.86353,-19.34927 m 8.55796,24.5209 c 0.15429,-2.24963 0.19659,-4.52467 0.12521,-6.81526 -0.93543,-29.98298 -21.0067,-58.54872 -52.27877,-69.52272 m 18.97188,17.21891 c -10.7922,-9.37272 -24.4388,-15.11958 -38.65667,-16.40873 0.0215,-0.36371 0.047,-0.72648 0.0617,-1.09188 10.21904,-0.18312 20.49887,-0.43339 30.92787,-0.73754 m -16.53341,4.06927 c 26.89025,-0.74203 51.95226,-0.74593 77.37617,-1.34293 m -13.30299,3.56937 c 31.42246,-1.27524 61.71466,0.32155 91.66017,1.44719 m -22.74772,-9.88472 c 28.5322,-1.34415 59.30798,-0.042 88.96951,0.62363 m -33.90597,-6.6001 c 32.14419,-1.15357 64.49634,1.50909 96.1233,4.74344 m -19.04905,-0.681 c 30.41501,-1.2178 58.01863,0.48739 85.12402,2.29168 m -29.28673,7.98169 c 29.62847,-1.47879 63.92342,0.62812 99.92969,2.51083 M 775.9499,196.8708 c 26.86121,-0.6216 52.88684,0.6156 79.47759,2.57164 m -23.50462,-5.38369 c 29.14231,0.58625 55.96617,-0.98553 83.23468,-3.4667 0,1e-5 -0.001,-0.009 -0.001,-0.009 3.42354,-0.31177 6.76193,-0.24229 9.97871,0.16834 m -635.43412,460.73236 0,-160.85938 m 353.46663,-295.7456 143.51562,0 m -465.70594,0 149.14062,0 m 490.09868,437.6583 0,190.15625 m -670.51561,325.5005 0,-169.53124"
       id="rect4272-0"
       inkscape:path-effect="#path-effect4220"
       inkscape:original-d="m 914.43723,194.87885 c 25.36158,0 45.77929,20.4177 45.77929,45.7793 l 0,878.95705 c 0,25.3616 -20.41771,45.7793 -45.77929,45.7793 l -578.95702,0 c -25.3616,0 -45.7793,-20.4177 -45.7793,-45.7793 l 0,-855.60345 0.9805,0 a 69.886574,69.886574 0 0 0 -0.059,1.6543 69.886574,69.886574 0 0 0 69.8867,69.8867 69.886574,69.886574 0 0 0 69.8867,-69.8867 69.886574,69.886574 0 0 0 -65.0273,-69.7149 c 0.01,-0.3572 0.024,-0.7136 0.027,-1.0723 l 549.04098,0 z" />
    <path
       style="fill:none;fill-opacity:1;stroke:#000000;stroke-width:4;stroke-linecap:round;stroke-linejoin:miter;stroke-miterlimit:4;stroke-dasharray:none;stroke-dashoffset:0;stroke-opacity:1"
       id="path5711-9-2-3-3-4-4"
       r="22.973518"
       cy="553.55682"
       cx="944.66028"
       d=""
       inkscape:connector-curvature="0" />
  </g>
</svg>
