<?xml version="1.0" encoding="UTF-8" standalone="no"?>
<!-- Created with Inkscape (http://www.inkscape.org/) -->

<svg
   xmlns:osb="http://www.openswatchbook.org/uri/2009/osb"
   xmlns:dc="http://purl.org/dc/elements/1.1/"
   xmlns:cc="http://creativecommons.org/ns#"
   xmlns:rdf="http://www.w3.org/1999/02/22-rdf-syntax-ns#"
   xmlns:svg="http://www.w3.org/2000/svg"
   xmlns="http://www.w3.org/2000/svg"
   xmlns:sodipodi="http://sodipodi.sourceforge.net/DTD/sodipodi-0.dtd"
   xmlns:inkscape="http://www.inkscape.org/namespaces/inkscape"
   width="233.67999mm"
   height="318.34668mm"
   viewBox="0 0 827.99997 1128"
   id="svg2"
   version="1.1"
   inkscape:version="0.91 r13725"
   sodipodi:docname="background3.svg">
  <defs
     id="defs4">
    <inkscape:path-effect
       effect="sketch"
       id="path-effect4220"
       is_visible="true"
       nbiter_approxstrokes="5"
       strokelength="100"
       strokelength_rdm="0.3;1"
       strokeoverlap="0.3"
       strokeoverlap_rdm="0.3;1"
       ends_tolerance="0.1;1"
       parallel_offset="5;1"
       tremble_size="5;1"
       tremble_frequency="1"
       nbtangents="5"
       tgt_places_rdmness="1;1"
       tgtscale="10"
       tgtlength="100"
       tgtlength_rdm="0.3;1" />
    <inkscape:path-effect
       effect="sketch"
       id="path-effect4218"
       is_visible="true"
       nbiter_approxstrokes="5"
       strokelength="100"
       strokelength_rdm="0.3;1"
       strokeoverlap="0.3"
       strokeoverlap_rdm="0.3;1"
       ends_tolerance="0.1;1"
       parallel_offset="5;1"
       tremble_size="5;1"
       tremble_frequency="1"
       nbtangents="5"
       tgt_places_rdmness="1;1"
       tgtscale="10"
       tgtlength="100"
       tgtlength_rdm="0.3;1" />
    <inkscape:path-effect
       effect="sketch"
       id="path-effect4216"
       is_visible="true"
       nbiter_approxstrokes="5"
       strokelength="100"
       strokelength_rdm="0.3;1"
       strokeoverlap="0.3"
       strokeoverlap_rdm="0.3;1"
       ends_tolerance="0.1;1"
       parallel_offset="5;1"
       tremble_size="5;1"
       tremble_frequency="1"
       nbtangents="5"
       tgt_places_rdmness="1;1"
       tgtscale="10"
       tgtlength="100"
       tgtlength_rdm="0.3;1" />
    <inkscape:path-effect
       effect="sketch"
       id="path-effect4384"
       is_visible="true"
       nbiter_approxstrokes="5"
       strokelength="100"
       strokelength_rdm="0.3;1"
       strokeoverlap="0.3"
       strokeoverlap_rdm="0.3;1"
       ends_tolerance="0.1;1"
       parallel_offset="5;1"
       tremble_size="5;1"
       tremble_frequency="1"
       nbtangents="5"
       tgt_places_rdmness="1;1"
       tgtscale="10"
       tgtlength="100"
       tgtlength_rdm="0.3;1" />
    <inkscape:path-effect
       effect="sketch"
       id="path-effect4382"
       is_visible="true"
       nbiter_approxstrokes="5"
       strokelength="100"
       strokelength_rdm="0.3;1"
       strokeoverlap="0.3"
       strokeoverlap_rdm="0.3;1"
       ends_tolerance="0.1;1"
       parallel_offset="5;1"
       tremble_size="5;1"
       tremble_frequency="1"
       nbtangents="5"
       tgt_places_rdmness="1;1"
       tgtscale="10"
       tgtlength="100"
       tgtlength_rdm="0.3;1" />
    <inkscape:path-effect
       effect="sketch"
       id="path-effect4380"
       is_visible="true"
       nbiter_approxstrokes="5"
       strokelength="100"
       strokelength_rdm="0.3;1"
       strokeoverlap="0.3"
       strokeoverlap_rdm="0.3;1"
       ends_tolerance="0.1;1"
       parallel_offset="5;1"
       tremble_size="5;1"
       tremble_frequency="1"
       nbtangents="5"
       tgt_places_rdmness="1;1"
       tgtscale="10"
       tgtlength="100"
       tgtlength_rdm="0.3;1" />
    <inkscape:path-effect
       effect="sketch"
       id="path-effect4376"
       is_visible="true"
       nbiter_approxstrokes="5"
       strokelength="100"
       strokelength_rdm="0.3;1"
       strokeoverlap="0.3"
       strokeoverlap_rdm="0.3;1"
       ends_tolerance="0.1;1"
       parallel_offset="5;1"
       tremble_size="5;1"
       tremble_frequency="1"
       nbtangents="5"
       tgt_places_rdmness="1;1"
       tgtscale="10"
       tgtlength="100"
       tgtlength_rdm="0.3;1" />
    <inkscape:path-effect
       effect="sketch"
       id="path-effect4374"
       is_visible="true"
       nbiter_approxstrokes="5"
       strokelength="100"
       strokelength_rdm="0.3;1"
       strokeoverlap="0.3"
       strokeoverlap_rdm="0.5;1"
       ends_tolerance="0.1;1"
       parallel_offset="3;1"
       tremble_size="5;1"
       tremble_frequency="1"
       nbtangents="5"
       tgt_places_rdmness="1;523070426"
       tgtscale="10"
       tgtlength="100"
       tgtlength_rdm="0.3;1" />
    <linearGradient
       id="linearGradient5674"
       osb:paint="solid">
      <stop
         style="stop-color:#ff0000;stop-opacity:1;"
         offset="0"
         id="stop5676" />
    </linearGradient>
  </defs>
  <sodipodi:namedview
     id="base"
     pagecolor="#ffffff"
     bordercolor="#666666"
     borderopacity="1.0"
     inkscape:pageopacity="0.0"
     inkscape:pageshadow="2"
     inkscape:zoom="0.12374369"
     inkscape:cx="-4043.5219"
     inkscape:cy="159.63282"
     inkscape:document-units="px"
     inkscape:current-layer="layer1"
     showgrid="false"
     fit-margin-top="0"
     fit-margin-left="0"
     fit-margin-right="0"
     fit-margin-bottom="0"
     inkscape:window-width="1440"
     inkscape:window-height="897"
     inkscape:window-x="-8"
     inkscape:window-y="-8"
     inkscape:window-maximized="1" />
  <metadata
     id="metadata7">
    <rdf:RDF>
      <cc:Work
         rdf:about="">
        <dc:format>image/svg+xml</dc:format>
        <dc:type
           rdf:resource="http://purl.org/dc/dcmitype/StillImage" />
        <dc:title />
      </cc:Work>
    </rdf:RDF>
  </metadata>
  <g
     inkscape:label="Layer 1"
     inkscape:groupmode="layer"
     id="layer1"
     transform="translate(-211.79457,-116.50621)">
    <path
       inkscape:connector-curvature="0"
       style="fill:none;fill-opacity:0.60355033;stroke:#000000;stroke-width:1;stroke-linecap:round;stroke-linejoin:round;stroke-miterlimit:4;stroke-dasharray:none;stroke-dashoffset:0;stroke-opacity:1"
       d="m 924.20909,203.30728 c 10.50446,1.07705 19.63975,5.63225 26.4212,12.43308 8.21546,8.23895 13.01252,19.80892 12.58653,32.62211 -0.168,5.05315 -0.34831,10.10649 -0.52615,15.14847 m -1.36531,-29.59205 c 0.10795,1.42363 0.15309,2.86981 0.13237,4.33553 -0.31328,22.15774 0.37411,44.94516 1.43727,67.85859 m -6.48015,-9.71849 c -1.0773,24.42951 -0.38444,48.70941 0.30472,72.15372 m 5.59461,-13.91353 c 1.44799,32.75708 0.69208,64.03358 1.70315,96.71052 m -8.14922,-36.01815 c -0.84915,27.56001 1.32941,55.72039 4.73603,82.95396 m -0.51729,-15.095 c -0.79693,26.23792 0.70791,49.86803 3.11913,72.16467 m -7.22068,-13.61759 c -0.72882,24.90549 0.58136,49.53101 2.69777,73.88543 m 4.84179,-20.69832 c 0.47515,23.18317 -0.44305,47.57513 -2.06512,72.84832 m -1.02075,-13.6232 c 0.82747,31.2916 -0.29253,60.39524 -1.21555,88.74455 m 3.20727,-26.64016 c -0.60368,31.72303 0.89553,62.0093 2.96391,94.3694 m -4.87728,-23.80929 c 1.34785,27.79159 0.50952,54.76721 0.18708,81.70287 M 955.7517,843.2253 c 1.42971,30.79802 0.19006,59.38489 -0.27131,87.65644 m -1.13504,-16.54802 c 1.05559,28.12625 1.22549,58.07316 2.73152,90.40908 m 3.83022,-28.24743 c -0.93792,25.70163 -1.25434,51.11333 -2.46009,78.16333 m 2.34334,-22.3074 c 0.15408,25.6211 -0.75235,52.3475 -2.40257,78.8501 m 0.68359,-15.9821 c -0.13956,8.5501 -0.12638,17.048 0.0138,25.5371 0.2138,12.9492 -4.41366,24.6061 -12.05784,33.2222 -6.5818,7.4186 -15.36618,12.5418 -25.15223,14.2914 m 22.52607,-10.8987 c -7.57057,6.2846 -17.30628,9.8206 -27.95652,9.4112 -22.24279,-0.8549 -44.77882,-3.0168 -67.01797,-5.8779 m 26.81051,1.1365 c -32.5671,0.7785 -64.75882,1.7659 -96.24458,5.2171 m 26.50651,-6.5844 c -27.24575,0.2459 -53.42184,-0.514 -78.19458,-1.7731 m 8.42016,9.1947 c -29.03083,-0.669 -58.27775,-0.6909 -85.23767,-1.7019 m 25.09066,0.5301 c -31.07929,-0.3692 -63.19243,-1.0673 -95.221,-3.1067 m 30.21003,1.1141 c -33.61307,-1.6071 -64.52638,0.6755 -95.41996,2.1761 m 25.7603,1.4961 c -31.4892,-0.5554 -63.09692,-2.7639 -94.61911,-8.1038 m 20.87421,7.5961 c -33.74601,-0.3494 -65.45221,-0.1069 -96.94254,-0.3089 m 30.85029,-9.2609 c -22.37199,0.9902 -45.8506,1.7867 -69.48291,3.8247 -7.31135,0.6305 -14.23412,-0.2688 -20.4103,-2.3134 m 27.30552,6.8086 c -1.21775,-0 -2.43495,-0 -3.65168,-0 -12.91327,0.01 -24.51901,-4.9692 -33.00487,-13.023 -7.52902,-7.1458 -12.5792,-16.696 -13.90404,-27.303 m 6.96859,17.4531 c -2.513,-5.951 -3.88687,-12.4867 -3.81779,-19.33 0.23166,-22.9516 0.363,-45.3658 0.85758,-68.1693 m -2.85098,23.641 c -0.92651,-24.4961 -0.87996,-49.9192 -1.42366,-75.4834 m -0.80254,18.4561 c -0.0107,-27.46317 0.85056,-57.4202 2.56592,-88.70972 m -5.80832,14.43998 c -0.72277,-34.13111 0.62242,-65.03683 1.88339,-95.87447 m 0.0698,37.41632 c -0.35233,-26.13896 0.60522,-54.01564 2.15219,-81.18628 m 9.56679,11.62691 c 0.29127,-27.39281 0.008,-54.97332 -0.22163,-82.25237 m -3.2939,23.56797 c 0.6075,-30.54443 -1.21885,-59.92363 -3.92064,-88.21985 m 0.71715,17.35519 c -0.50172,-31.68372 0.0394,-62.37919 0.27237,-92.95858 m 4.80636,20.88625 c 1.2903,-29.26294 0.14448,-57.47611 -0.43512,-84.04062 m -9.95605,34.57701 c -0.29302,-26.34515 0.56846,-53.43533 1.99449,-80.34672 0.34198,0.009 0.68078,0.0227 1.02459,0.0216 -2e-5,0 0.0444,-3.3e-4 0.0444,-3.3e-4 0.55677,3.59172 1.40281,7.15351 2.53142,10.65511 m -3.9155,-12.77346 c -0.19394,-4.76838 -0.33353,-9.47578 -0.4295,-14.13395 0.31787,0.003 0.63289,0.0108 0.95277,0.004 1e-5,0 0.037,-0.002 0.037,-0.002 1.54349,18.70361 11.60095,36.61802 27.10828,48.80204 m -7.73013,0.32739 c 13.88384,15.81694 32.37737,24.85503 50.80101,24.32724 10.96284,-0.31434 21.32265,-4.0285 29.88276,-10.85852 m -14.50206,14.29725 c 34.25594,-3.19025 59.51446,-30.08535 63.48213,-62.86626 m -17.24376,9.96098 c 5.20584,-9.8722 8.09758,-20.71628 8.45408,-31.56768 0.40066,-12.78932 -2.73883,-25.07105 -8.96064,-35.25253 m 7.60948,28.78257 c -4.33049,-10.79446 -10.74119,-20.69515 -18.85108,-28.80099 14.3538,-12.73693 24.28116,-30.68973 27.58371,-50.05476 m -10.76456,17.68596 c 3.33835,-8.91286 5.20458,-18.1177 5.44091,-27.20202 0.44351,-19.53322 -6.69957,-37.0774 -19.78454,-48.64172 2.19342,-1.4993 4.29564,-3.10253 6.29725,-4.80277 m 9.15493,22.28266 c -3.50129,-5.31514 -7.67325,-10.13687 -12.41325,-14.33677 14.28432,-12.65074 22.95509,-30.59592 23.80109,-49.70429 m -4.56736,12.38737 c 1.5753,-6.09275 2.3329,-12.51385 2.21115,-19.04185 -0.37699,-19.00178 -8.17575,-37.72682 -22.33979,-51.21935 m 7.52052,12.63782 c -12.84351,-19.14236 -32.57942,-31.06 -54.3049,-32.35351 0.0189,-0.3531 0.0418,-0.70524 0.0537,-1.05968 1.86474,0.0213 3.7302,0.0432 5.59569,0.0654 m 1.30704,7.51652 c -2.99235,-0.50589 -6.00698,-0.84338 -9.02597,-1.00738 0.0118,-0.35166 0.0277,-0.70276 0.0328,-1.05647 26.30102,0.35904 53.5744,-1.05993 81.61991,-2.7102 m -25.93681,-1.15636 c 32.9545,-0.0127 66.14964,0.40146 99.8471,1.25264 m -35.02464,-3.63565 c 31.28249,-0.61733 62.51711,-0.11069 95.88077,0.0149 m -24.78468,-1.14762 c 33.24163,-0.27276 63.58129,-0.34574 90.97708,-1.04984 m -21.4221,2.80748 c 32.67878,-0.80602 61.42242,-1.71729 89.98878,-4.88756 m -22.23797,-2.7688 c 30.49936,-1.12956 61.70278,0.0106 91.9879,0.46208 m -18.03549,4.38227 c 28.68104,0.65154 57.06473,-1.01578 85.95628,-3.56404 m -30.5018,-2.06165 c 26.99989,-1.27586 56.18446,1.32055 85.05644,5.04695 m -29.38321,7.33644 c 9.23591,0.11146 18.5627,0.18741 27.98738,0.25234 0,0 0.003,0.001 0.003,0.001 12.98593,0.0893 24.8744,5.25599 33.76719,13.63096 3.71981,3.50321 6.91399,7.56616 9.4479,12.05351 m -28.21792,-32.52916 c 8.94206,1.7576 16.84498,6.0972 22.90796,12.1909 8.10988,8.15098 12.94529,19.4652 12.5111,31.91894 -0.40087,11.49794 -0.91293,22.93393 -1.52315,34.27215 m 5.4235,-22.94236 c -1.1071,27.5643 -0.049,55.12124 1.00615,83.74837 m -3.93568,-25.00213 c -0.69105,25.98468 0.99713,54.69752 3.70787,83.64895 m 6.01897,-25.24504 c 0.0611,25.80938 -1.83014,53.45402 -5.56189,82.02441 m -9.04717,-18.47614 c 1.01334,30.13189 2.02351,58.92988 5.50028,87.14983 m 4.14739,-26.81981 c -1.25916,28.64651 -1.41617,60.2287 -3.40582,93.24283 m -1.32007,-21.35937 c 0.76723,31.70486 -0.041,62.31555 -0.34764,91.86423 m 3.12066,-24.99981 c -0.43696,24.40955 0.38809,50.53834 1.73906,76.56824 m -3.57509,-24.9052 c -0.65707,24.2833 -0.33074,48.83527 -0.0783,73.49452 m 2.8125,-6.19384 c -1.34652,31.1526 0.45896,61.76248 2.06474,93.44083 m -3.3144,-30.70144 c -0.24565,24.33606 1.17289,49.28415 3.88256,75.02523 m 3.92996,-12.3248 c -0.21035,24.63696 -0.56199,50.89538 -1.43997,76.98843 m 1.20601,-23.29047 c 0.79361,22.91066 -0.50897,47.54707 -2.65676,72.35869 m -6.64014,-9.68042 c 0.82671,27.50162 1.1827,52.73442 2.63864,77.68302 m -4.08406,-26.1939 c 0.5039,25.5416 0.21253,50.7691 -0.003,76.1075 -0.003,0.3741 -0.0108,0.7473 -0.0227,1.1193 m 4.82946,-14.3641 c -0.17812,5.6176 -0.34317,11.1993 -0.51023,16.7498 -0.38087,12.6542 -5.84472,23.9249 -14.63889,31.9389 -8.78843,8.0089 -20.90082,12.7641 -34.62264,12.3158 -3.21505,-0.105 -6.44916,-0.2134 -9.70464,-0.3244 m 34.19369,-10.5722 c -6.08832,2.5026 -12.66334,3.8675 -19.4363,3.7804 -21.28709,-0.2739 -40.97257,-0.3206 -60.27815,-0.7277 m 21.65857,10.1612 c -24.3784,-0.7048 -48.42167,-0.9184 -72.11576,-1.7805 m 6.29947,0.336 c -27.88606,1.2994 -55.95904,0.3244 -85.40888,-0.3162 m 29.52422,-3.2785 c -29.36686,-1.2786 -62.63994,0.9955 -97.42252,3.6549 m 27.05668,-2.2875 c -32.39419,-0.7778 -62.02285,-1.7614 -92.2167,-4.9782 m 22.17161,3.8068 c -22.95516,0.5465 -47.26493,0.2984 -71.74066,0.094 m 10.4914,5.1407 c -23.52735,0.4532 -46.10431,0.3193 -67.48655,0.2755 m 16.57765,-6.1738 c -25.35096,0.7771 -48.23755,0.3224 -70.36408,-0.1508 m 21.11318,2.0645 c -27.25575,0.032 -55.28793,-0.8073 -84.54336,-2.4425 m 10.58013,1.3874 c -17.77192,-0.8143 -34.99738,-0.22 -51.63284,1.0764 -11.83464,0.9223 -22.21674,-3.0062 -29.17984,-10.0248 -1.96947,-1.9852 -3.66388,-4.2169 -5.03633,-6.6532 m 23.37204,15.3078 c -6.41011,-2.4349 -12.07505,-6.0725 -16.68956,-10.6029 -8.27321,-8.1223 -13.17201,-19.1291 -12.80259,-31.065 0.19025,-6.147 0.41563,-12.2241 0.6574,-18.2459 m 5.60407,12.0215 c 1.16075,-24.3162 -0.0514,-46.6039 -1.93834,-68.2144 m -4.3907,18.3653 c -0.99655,-23.2297 -0.83709,-48.7178 -1.08498,-75.16165 m 2.76506,18.15495 c -0.0737,-27.09795 -0.6919,-53.84961 -1.97206,-80.64211 m -3.53552,14.06837 c 0.51792,-25.48195 1.32456,-50.71012 3.32173,-76.47061 m -3.79093,12.42616 c -0.58628,-23.17069 0.38052,-46.63842 1.99738,-69.36534 m 0.69812,16.82094 c -0.1356,-25.60412 0.98241,-50.10652 3.14117,-74.7412 m -0.71972,24.54878 c -1.18258,-24.21725 -0.13473,-48.77871 1.25249,-73.34262 m -1.52538,10.58608 c 0.20895,-28.87161 -1.49773,-58.98254 -4.60909,-88.1804 m 9.60899,27.90393 c -0.0827,-23.9176 0.32834,-48.01307 1.097,-72.83431 m -12.85478,18.06553 c -0.0111,-29.38751 1.37697,-58.69897 4.16812,-88.57635 m -3.6998,14.23712 c -0.68733,-15.43705 -0.64855,-31.07698 -0.36611,-46.41152 0.33054,0.0264 0.65755,0.0578 0.98991,0.0745 -2e-5,-1e-5 0.0408,0.005 0.0408,0.005 1.09141,9.66744 4.06858,19.15689 8.68789,28.06135 m -4.69711,-11.15732 c 6.25164,31.48794 35.13506,51.95385 68.8781,52.00404 m -14.02044,-12.74912 c 8.55986,3.02242 17.53358,4.65992 26.48195,4.72213 15.35637,0.1064 29.8946,-4.43883 41.38089,-13.26384 m -17.00629,14.38832 c 25.40996,-10.57521 41.1381,-36.63757 41.34527,-65.54659 0.0338,-5.84756 -0.56819,-11.69128 -1.78199,-17.40673 m 2.21371,25.03942 c 0.65632,-3.73638 1.01389,-7.47243 1.07205,-11.17287 0.27552,-19.37065 -7.67625,-36.78536 -21.49036,-47.5843 2.61712,-1.8445 5.07923,-3.83563 7.37118,-5.9548 m -8.49754,15.59811 c -2.04227,-2.17982 -4.2067,-4.2515 -6.48395,-6.20024 14.09781,-12.87685 22.70884,-31.91608 23.14525,-51.98196 0.20046,-10.79346 -1.97613,-21.472 -6.45501,-31.15845 m -1.21666,27.36321 c -1.25413,-19.38417 -9.51256,-37.48402 -23.39983,-50.5184 4.41308,-3.88266 8.36306,-8.29335 11.74997,-13.14394 m -4.20082,20.45225 c 15.3,-12.38489 23.68713,-31.91631 23.7644,-52.98211 0.0377,-14.6946 -3.95735,-29.37144 -11.24643,-42.13541 m 13.98599,19.76271 c -3.60349,-28.92856 -24.38498,-49.84406 -50.56656,-54.35386 m 19.08278,5.16603 c -8.66372,-5.06145 -18.71186,-8.0857 -29.20629,-8.76631 0.0124,-0.35531 0.0286,-0.7099 0.0337,-1.06671 18.27673,0.0901 36.14207,0.0409 54.39568,0.20171 m -27.02959,5.15176 c 29.39399,-0.71565 57.65988,-2.00555 84.45175,-5.57991 m -18.52691,5.18992 c 23.20799,0.91219 46.14596,-0.94273 68.5604,-4.21435 m -14.67699,3.39392 c 30.61747,0.86799 61.79945,1.01773 91.76099,2.76449 m -21.96626,1.88318 c 26.14674,-1.32004 54.00724,-0.69594 81.78793,-0.7326 m -22.16007,-5.12652 c 32.55092,-0.75354 65.139,-0.36589 98.81483,-0.948 m -34.86723,3.33129 c 33.74702,0.78333 67.0749,0.0362 103.95652,-0.0348 m -32.65454,-7.03577 c 23.52364,-0.0457 46.45914,0.31024 68.93252,0.9818 m -7.10131,5.03397 c 24.02538,0.31328 48.50431,0.11228 71.66467,-0.0907 0,0 -0.007,-4.1e-4 -0.007,-4.1e-4 5.8627,-0.0514 11.35503,1.17886 16.20772,3.45344 m -3.00404,0.1008 c 8.95348,1.35359 16.96979,5.71698 23.04599,12.07224 7.85788,8.21877 12.52613,19.82955 11.78726,32.68469 -0.52773,9.1818 -1.18271,18.37547 -2.03543,27.50358 m -0.52621,-26.10718 c 0.1417,23.88172 -0.75504,48.39892 -2.46635,73.02092 m 0.31764,-19.30431 c -0.55185,26.13394 0.79671,53.01598 3.01304,80.53048 m -5.23943,-23.41818 c -0.13257,27.73105 -0.008,57.37913 0.10096,87.69348 m 0.8755,-22.27723 c -0.40059,27.95329 1.06413,55.70341 3.58864,83.64518 m -5.97177,-20.99601 c -1.18485,24.49133 -0.41691,51.76698 0.18706,79.6331 m 3.4459,-16.98029 c -0.9705,31.58955 -0.25737,63.18913 -0.3551,96.19431 m -7.6137,-30.3797 c -1.16783,32.96482 0.25347,62.64478 1.01399,91.32101 m 4.92433,-24.79589 c 1.48289,32.56807 -1.82014,63.98009 -5.58059,93.75406 m 9.29117,-22.27862 c 0.24208,26.5598 0.0719,52.74822 -0.0974,79.90188 m -2.44214,-24.09263 c -1.23465,32.09599 -1.08423,63.16572 -2.89083,94.52997 m -1.32777,-20.89066 c -0.74224,32.1379 1.85991,59.05671 5.94079,84.51017 m 4.13778,-19.33366 c 0.60898,30.91553 -1.76184,60.82907 -5.59269,91.93457 m 4.96716,-24.7322 c -0.92611,29.4487 -1.39739,56.2845 -3.46909,82.4802 m -0.0465,-14.4763 c -0.4572,15.7779 -0.58725,30.5339 -0.67802,44.5012 -0.0627,9.6506 -3.7031,18.1527 -9.8617,24.3976 m 10.16449,-20.5122 c -2.45666,7.6741 -6.60687,14.6156 -11.99059,20.3168 -8.22762,8.7128 -19.25737,14.4487 -31.35109,15.5115 -6.58989,0.5791 -13.1238,1.2603 -19.6357,2.0515 m 15.86965,0.2596 c -29.86604,-0.2125 -59.32133,-1.0444 -87.56347,-3.0216 m 24.89685,-5.4548 c -26.73545,0.2291 -51.56098,0.958 -76.67605,2.5937 m 13.7003,7.9136 c -26.61684,-1.1744 -51.74265,-1.068 -75.80025,-1.8898 m 12.20701,2.8666 c -25.23928,-0.4623 -49.783,-0.4648 -74.55831,-0.7751 m 18.94829,0.5407 c -26.54478,-0.5773 -51.88921,-2.0339 -76.32744,-5.4385 m 8.5549,-7.2957 c -23.29769,-0.1758 -46.67164,0.9217 -69.46593,3.0242 m 24.58421,4.0856 c -25.53469,0.9643 -51.28671,1.9553 -75.92042,4.7637 m 10.28552,-6.7563 c -24.39021,-0.076 -48.30632,0.3638 -71.56779,1.2055 m 7.66459,-1.8697 c -29.19075,-0.4385 -60.28388,0.7773 -90.35327,2.5218 m 29.6224,7.8693 c -11.16986,0.3689 -22.71467,0.436 -34.5085,0.3337 -12.9827,-0.1126 -24.9862,-5.5142 -33.92069,-14.1003 -5.1095,-4.9102 -9.22127,-10.8646 -11.9636,-17.4837 m 20.74754,6.0472 c -1.09221,-0.9818 -2.14214,-2.011 -3.14543,-3.0838 -7.83343,-8.3762 -12.80765,-19.4082 -12.82333,-31.1649 -0.0138,-10.3737 -0.14152,-20.3546 -0.21223,-30.0199 m 6.89109,26.6181 c 0.55041,-27.2073 -0.96491,-54.8125 -3.45923,-83.0017 m -11.81409,14.8944 c 0.89762,-29.1038 2.1403,-55.54832 5.64293,-81.63185 m 6.23195,19.98022 c 0.60673,-29.26414 0.85302,-58.72436 2.14154,-88.26174 m 0.16269,18.44878 c -0.64893,-26.01109 -1.96719,-51.04413 -5.1382,-75.20851 m -3.84574,22.18029 c 0.44438,-25.03963 0.47566,-50.47899 0.84661,-75.88572 m 9.2309,16.78226 C 296.7332,765.14 296.28469,732.48245 292.86112,698.69267 m -8.01644,31.69086 c -0.74575,-22.90129 0.2991,-47.72392 2.00037,-72.96644 m 4.24974,9.76988 c -0.59966,-28.1827 0.84253,-57.38977 2.89507,-84.40688 m -5.59011,20.8256 c 0.23401,-32.35388 -1.26529,-66.39683 -3.78913,-99.20905 0,0 -7.6e-4,-0.01 -7.6e-4,-0.01 m -3.78826,30.42916 c 0.0859,-18.95517 0.79051,-37.44519 2.18994,-56.08716 0.34952,0.003 0.69612,0.0118 1.04779,0.005 -3e-5,0 0.0468,-0.002 0.0468,-0.002 1.6356,8.9491 5.23304,17.59707 10.65766,25.33805 m -9.41731,-17.406 c 5.88474,28.97618 30.21854,49.24576 61.53899,48.95386 m -26.32946,-4.71692 c 10.18381,4.92435 21.34587,7.65352 32.8113,8.01566 17.74062,0.55996 35.14339,-4.56563 49.97601,-14.16413 m -8.09965,15.87952 c 26.28256,-11.68306 40.35276,-37.35046 36.87332,-66.49927 -0.0838,-0.69387 -0.1774,-1.38831 -0.28082,-2.08314 m -3.13109,16.16953 c 1.79838,-5.95898 2.70603,-12.03151 2.72363,-18.06 0.0276,-19.35826 -9.11182,-37.20621 -24.68177,-48.85773 5.00406,-4.30856 9.19236,-9.34892 12.43342,-14.91844 m -11.42282,25.60685 c -1.64636,-1.91386 -3.38749,-3.72057 -5.21659,-5.41458 14.29937,-13.71094 22.29277,-31.66668 21.69531,-50.12111 -0.32089,-8.95535 -2.66476,-17.71558 -6.94027,-25.77611 m 6.83925,13.28984 c -0.0387,-19.26708 -8.03613,-37.55131 -21.43457,-50.73698 8.49532,-7.24513 15.41572,-16.26779 20.40451,-26.43294 m -6.27075,28.88319 c 12.2497,-13.58205 18.15415,-30.3859 17.01412,-47.7637 -1.0932,-16.37371 -8.37047,-32.24852 -20.43649,-45.45002 m 21.57613,25.51015 c -7.74041,-24.12681 -27.06153,-42.82351 -52.04366,-47.6548 m 9.38711,5.87159 c -8.58362,-4.45359 -17.72909,-7.28641 -26.93939,-8.38636 0.0187,-0.37397 0.0416,-0.7471 0.0538,-1.12303 20.38838,-0.95569 41.56039,-2.66988 63.15254,-5.43427 m -20.96859,8.59461 c 29.15168,-0.32241 60.18694,-1.09944 89.54959,-3.15792 m -34.21727,-2.9357 c 28.34331,0.0846 55.25047,0.45645 83.25817,1.25087 m -24.68574,4.76516 c 30.50327,1.28365 61.77405,-1.60475 95.29849,-5.55495 m -22.47706,-1.16389 c 31.8808,1.0905 65.13914,0.85966 100.22187,2.30689 m -26.50951,-3.47862 c 28.94722,1.36686 55.25317,-0.42717 81.33784,-2.54496 m -27.22364,0.74737 c 29.88355,-0.68574 60.69168,1.15575 92.70375,3.87536 m -20.98215,-1.21851 c 27.80648,1.00179 53.81949,0.54938 79.59433,0.64066 m -14.44153,-1.89122 c 20.72479,-0.3985 41.78506,0.35606 63.04787,1.78074 0,1e-5 0.002,0.007 0.002,0.007 3.00934,0.20193 5.95489,0.68881 8.81125,1.43525 m -18.01771,3.4073 c 11.52433,0.20831 22.46061,5.2668 30.84729,13.34694 8.78701,8.46586 14.77343,20.21785 16.03908,33.36341 0.60518,6.2857 1.27275,12.59252 1.97713,18.9096 m -7.68059,-29.96533 c 0.12848,1.70628 0.17098,3.44192 0.12209,5.20158 -0.78732,28.33723 1.28727,56.56151 3.61391,83.60825 m 2.61922,-23.78873 c 1.02022,27.46278 -0.33384,56.75773 -1.91802,86.52689 m 7.89406,-25.07087 c -0.43621,27.88862 -0.69938,55.64705 -1.66166,84.59675 m -0.56498,-22.63891 c -0.62144,25.04539 0.41965,50.86587 2.03063,76.33054 m 0.86043,-18.27202 c 0.60341,32.60775 0.19614,63.07706 0.35715,94.30264 m -9.26382,-20.0225 c -0.70665,32.68681 2.18408,61.78484 6.78159,91.18382 m -0.45297,-25.16421 c 0.86596,30.39319 -1.33033,62.60055 -4.26621,93.09151 m 0.20294,-23.02268 c -1.66191,34.8264 0.89347,66.46075 2.68375,99.5708 m -1.19914,-39.93849 c -0.75438,29.23546 0.414,58.44605 1.77771,88.50625 m -0.996,-13.38766 c 0.6498,31.03792 0.0179,66.9032 -0.0366,103.05482 m -0.7841,-35.00537 c -0.48276,28.87563 -0.85085,59.0901 -2.26835,89.38166 m -2.10676,-28.1139 c -0.65587,24.0448 0.18046,48.82263 1.47677,73.85363 m 6.99989,-20.4074 c -0.59497,34.6757 -2.275,66.1738 -6.78007,99.1809 m -1.57864,-22.4331 c 0.58601,11.7564 0.86734,23.517 1.07289,35.186 0.21704,12.3215 -4.76685,23.3522 -12.76175,31.0237 -2.77015,2.6581 -5.90346,4.9149 -9.30896,6.6839 m 15.2324,-15.4685 c -1.62652,2.4165 -3.49999,4.6799 -5.58601,6.7541 -8.09013,8.0445 -19.35338,13.2229 -31.79546,13.52 -8.80566,0.2103 -17.5777,0.5208 -26.28233,0.8619 m 11.86312,4.0143 c -30.10303,-0.5284 -60.81145,1.1295 -92.12375,3.6789 m 26.49304,-4.2254 c -34.54002,0.7472 -65.83166,0.9554 -98.4103,2.8305 m 36.60901,3.7319 c -26.20122,0.1274 -50.93872,-1.1863 -75.98157,-3.7204 m 15.70318,-5.5763 c -33.92335,0.8899 -65.89996,1.2979 -98.56424,3.7962 m 30.6996,-1.2963 c -31.18413,0.4584 -61.61662,0.6551 -93.99483,1.7301 m 28.59894,-6.4566 c -31.40515,0.6854 -62.14433,1.7031 -95.11128,4.7173 m 26.41582,-0.1085 c -29.70985,-1.0133 -60.2668,-1.3578 -90.52888,-3.5454 m 20.72822,7.1399 c -24.80913,0.9602 -47.78822,0.3054 -70.68498,-0.4932 m 12.77359,-6.3819 c -17.61386,0.5127 -33.93134,0.6597 -49.54844,0.8291 -11.75834,0.1276 -22.00687,-4.8456 -28.95257,-12.8423 -0.33462,-0.3853 -0.66158,-0.7775 -0.98067,-1.1766 m 14.31855,18.5649 c -7.07002,-2.4303 -13.25662,-6.4625 -18.1346,-11.6837 -7.97075,-8.5315 -12.48079,-20.2824 -11.47679,-33.3889 0.67761,-8.8459 1.50689,-17.7576 2.46815,-26.7765 m 3.37564,14.1259 c 0.54384,-26.1377 -1.65648,-52.1725 -5.5549,-77.7721 m 4.85158,21.5682 c 0.0282,-23.032 0.5913,-46.5775 1.75433,-69.20969 m -7.22279,4.27752 c 0.86288,-28.67602 0.0196,-55.60321 -0.62548,-81.52298 m 4.18035,25.03369 c 1.25766,-27.08474 0.7816,-53.14361 0.89727,-79.81835 m -5.85854,21.18287 c 0.38698,-25.15545 0.6647,-49.89438 1.51544,-73.76842 m -4.21042,11.6614 c 1.56677,-32.33156 0.6574,-64.99362 1.66142,-97.91693 m 0.25203,32.82507 c -0.31908,-25.05001 -0.0759,-48.34809 0.21608,-71.473 m 12.9873,15.78397 c 0.35165,-26.43213 -1.33991,-53.32733 -4.39424,-78.90154 m 1.50354,9.05035 c 0.12219,-23.68194 -1.45119,-47.51451 -4.52674,-70.76877 m -1.21554,16.63706 c -0.0973,-26.09357 0.25308,-50.66537 0.88037,-75.67581 m -5.76289,25.04119 c 0.28064,-11.71399 0.30426,-22.96594 0.16782,-33.92108 0.32089,0.018 0.63818,0.0412 0.96038,0.0497 10e-6,0 0.0377,0.003 0.0377,0.003 1.84147,21.63257 12.568,42.07777 29.5515,55.17263 m -8.99584,-24.02171 c 12.01649,18.61577 33.12592,30.05202 54.54741,29.06638 2.22929,-0.10263 4.4439,-0.34003 6.63176,-0.71324 m -24.31147,0.035 c 3.22849,0.34591 6.49741,0.46589 9.77822,0.35373 27.03159,-0.92481 52.06368,-17.47855 62.17346,-44.57774 m -1.77332,26.37199 c 12.5169,-12.17673 19.43862,-29.22577 19.11894,-46.61762 -0.17271,-8.6722 -2.14435,-17.17877 -5.83405,-24.90807 m -4.87445,12.30418 c -1.74173,-17.42446 -9.52892,-33.03833 -21.75129,-44.15153 8.90353,-7.54773 15.82103,-16.99487 20.21471,-27.5568 m -3.32048,19.43807 c 9.6538,-11.81185 14.79792,-26.59471 14.93339,-41.85278 0.0723,-12.83277 -3.39978,-25.45769 -9.87011,-36.38881 m 6.90003,20.95759 c -3.87714,-13.34442 -11.32835,-25.73637 -21.66444,-35.56088 13.28525,-12.23147 21.98793,-29.44314 24.02941,-48.28021 m -10.69886,25.07393 c 5.10607,-9.90188 8.00501,-20.57996 8.44548,-31.10405 0.5134,-12.64634 -2.55138,-24.53206 -8.75639,-33.97709 m 4.90574,8.90412 c -9.08106,-23.71846 -31.60956,-42.63395 -58.82803,-47.32881 m 12.31976,6.07728 c -6.84018,-2.65264 -13.90383,-4.37072 -20.97372,-5.10026 0.0159,-0.36861 0.0361,-0.73645 0.0456,-1.10708 19.37455,-0.63416 39.58801,-2.09125 60.2614,-4.34981 m -16.02773,-3.60611 c 25.59654,-1.27025 52.82052,-0.0415 79.12704,1.18499 m -18.13918,2.25257 c 24.27481,-1.05163 49.40791,-0.70905 73.84138,-0.75205 m -8.95296,6.2208 c 31.86729,-1.32164 62.36934,0.0496 92.92234,0.60795 m -30.57666,1.18916 c 24.86435,-0.46189 49.18594,-0.14473 72.42835,0.14505 m -12.34532,0.0118 c 30.12136,1.3467 61.41125,0.94167 91.39228,2.29239 m -29.3668,-3.93339 c 25.15253,0.16165 51.07957,-0.83939 76.4149,-2.73196 m -8.48807,8.78696 c 32.35987,1.23193 65.12649,-1.01297 95.76898,-3.10388 M 842.76485,191.798 c 21.92888,-0.7538 45.5136,0.19309 69.22413,1.78172 0,0 0.004,0.007 0.004,0.007 0.9732,0.0653 1.93958,0.15943 2.8982,0.28159 m 3.03998,4.45516 c 10.54119,1.38562 20.21853,6.26003 27.75899,13.47427 8.7271,8.34953 14.53339,19.76679 15.62093,32.49107 0.83561,9.77677 1.84497,19.57501 2.99977,29.44748 m -2.89466,-29.58756 c 1.09727,23.14375 -0.45211,48.15539 -2.9274,73.31682 m 1.36456,-19.63943 c 0.31957,25.12963 -0.75441,51.73191 -2.63106,77.39368 m 2.94295,-20.02736 c -1.28864,26.98244 -2.00173,52.8761 -4.51886,79.14903 m 6.94077,-13.67734 c -1.27317,28.24543 -1.18477,55.99334 -2.39717,84.03528 m 1.30437,-28.3586 c 1.24981,25.235 0.47926,50.67912 -0.14708,76.02707 m 1.27954,-8.33462 c 0.35004,23.70018 0.49342,49.29289 1.00728,74.78293 m -3.39025,-26.71272 c -0.0616,30.58774 -0.52663,65.03352 -1.53684,100.86992 m 4.62326,-27.22599 c 1.32902,29.13671 -1.33076,56.52088 -5.06776,83.83387 m 2.09871,-20.45181 c 0.38226,23.76835 0.0775,47.81608 -0.3137,71.9592 m 2.11063,-14.42656 c 0.5863,26.45381 0.35086,50.82163 0.37466,73.28748 m 0.0936,-9.52132 c -0.76162,28.73468 -0.26588,54.65673 -0.092,79.59488 m -3.46205,-25.01209 c 1.01025,28.98504 -0.50958,59.62132 -2.24152,91.70977 m 3.49166,-23.01135 c 1.4776,31.65281 -0.47477,60.40641 -2.10156,89.06791 m 6.00727,-28.3598 c -0.13766,25.7796 0.49611,52.0914 1.65471,79.9246 m -7.67034,-17.0821 c -0.0387,7.1699 -0.0496,14.3009 -0.0382,21.4063 0.0205,12.7326 -4.99645,24.1486 -13.15373,32.3922 -8.15734,8.2437 -19.44361,13.3013 -31.94455,13.3131 -1.08493,0 -2.16975,0 -3.25449,0 m 34.16276,-7.0801 c -6.90018,4.2255 -15.0216,6.6503 -23.78331,6.6916 -22.76622,0.1073 -46.00476,-0.087 -69.8971,-0.056 m 29.91328,-1.3051 c -32.95975,-1.1347 -67.04353,-1.5436 -104.12977,-4.4356 m 25.42567,2.4049 c -31.50132,0.7402 -62.07889,2.1447 -91.50231,6.211 m 23.46109,-1.3281 c -29.08996,0.9446 -60.33697,-0.9749 -90.90356,-3.4481 m 27.28526,5.9865 c -26.62148,-1.0556 -52.74886,-1.1779 -78.63831,-2.3969 m 14.90056,2.6316 c -27.49661,-0.2031 -58.06191,0.7445 -88.50356,2.3731 m 28.58366,-7.2953 c -29.37085,-1.039 -57.49722,-0.9691 -85.42473,-2.1671 m 24.56785,7.9878 c -29.1633,0.1771 -57.8293,0.059 -87.77041,0.038 m 26.28151,-6.327 c -27.81201,1.2764 -56.59713,0.7618 -87.05383,1.0485 -2.42513,0.023 -4.82009,-0.1015 -7.1755,-0.3622 m 24.95311,4.3523 c -5.58873,0.022 -11.28546,0.026 -17.07614,0.013 -12.79473,-0.03 -24.75383,-5.2405 -33.79686,-13.6703 -5.52144,-5.1471 -9.95619,-11.4908 -12.86605,-18.6014 m 8.50893,13.5875 c -6.27212,-8.0836 -10.08433,-18.1228 -10.20048,-28.9307 -0.1431,-13.3155 -0.43634,-26.3821 -0.8241,-39.3472 m 0.39301,13.8672 c -0.85252,-24.1799 -1.02251,-49.544 -1.98507,-74.5673 m -0.31951,10.1593 c -0.64714,-26.3233 -0.9895,-52.86191 -2.32199,-77.96896 m 8.6892,15.38776 c -0.50204,-23.75532 -0.89518,-46.53728 -1.95339,-68.2692 m -1.24942,22.90158 c 0.25071,-25.9277 0.33882,-51.35708 0.71164,-76.74352 m -4.93011,12.55331 c 0.90582,-22.88279 0.05,-48.06534 -1.14178,-73.94493 m 3.40721,20.01723 c 0.52158,-26.76729 -1.21174,-54.03386 -4.13812,-80.76631 m 5.50548,17.10779 c 0.98983,-26.71273 0.66619,-53.94886 1.07345,-79.96882 m -5.87863,16.63649 c -0.36457,-27.65634 0.58408,-55.04918 2.13574,-82.54584 m -2.95568,20.58189 c 0.58759,-25.16196 0.35654,-50.08101 0.26599,-76.16277 m 4.10873,26.13014 c -0.10377,-27.8309 -0.0582,-53.96895 -0.0424,-80.8208 0.32484,0.007 0.64674,0.0182 0.97317,0.0145 -10e-6,0 0.0391,-0.001 0.0391,-0.001 0.5302,5.18792 1.65079,10.27057 3.33901,15.12968 m -2.00386,-12.42017 c 0.0984,-3.76445 0.1592,-7.50908 0.18605,-11.236 0.32708,0.008 0.65071,0.0216 0.97888,0.0201 0,0 0.0396,-4.7e-4 0.0396,-4.7e-4 2.43452,22.86162 14.74367,43.65291 33.39889,55.49681 m -4.94241,-14.16594 c 13.36454,12.29749 30.91089,19.69519 49.2122,20.1982 10.21992,0.28065 20.30241,-1.60395 29.58117,-5.57579 m -30.87591,13.84951 c 28.26754,-3.53112 51.75928,-25.84444 59.72371,-57.15035 m -6.07228,23.56708 c 6.86176,-11.33678 10.19805,-24.34517 9.61165,-37.71174 -0.63251,-13.9644 -5.51968,-27.75979 -14.1758,-39.92366 m 15.69478,10.92213 c -4.00883,-11.70932 -10.86333,-21.98991 -19.98726,-29.78012 12.39647,-10.68862 20.42315,-25.05881 22.38009,-40.27751 m -8.49654,23.94071 c 3.87947,-8.9205 5.99876,-18.87433 6.05927,-29.05913 0.0488,-18.28761 -6.54694,-36.09485 -18.97676,-49.01711 m 11.36013,14.55325 c -3.98788,-7.3999 -9.42216,-14.08679 -16.03381,-19.61998 14.83006,-12.62727 23.09913,-31.21437 22.47227,-49.92573 -0.1241,-3.57014 -0.57191,-7.10427 -1.34121,-10.55586 m 4.68519,24.64207 c 1.12945,-5.22411 1.63637,-10.67199 1.48988,-16.21168 -0.74346,-26.91505 -16.7227,-52.93418 -43.02525,-66.10166 m 16.95049,20.37258 c -11.50012,-13.28192 -27.94116,-21.62771 -45.27898,-23.28511 0.0232,-0.36526 0.0504,-0.72952 0.0668,-1.09638 6.93037,-0.15211 13.90151,-0.33285 20.94061,-0.53814 m -16.53341,4.06927 c 26.89025,-0.74203 51.95227,-0.74593 77.37617,-1.34293 m -13.30298,3.56937 c 31.42245,-1.27524 61.71465,0.32155 91.66016,1.44719 m -22.74771,-9.88472 c 28.53219,-1.34415 59.30797,-0.042 88.9695,0.62363 m -33.90597,-6.6001 c 32.14419,-1.15357 64.49634,1.50909 96.1233,4.74344 m -19.04905,-0.681 c 30.41501,-1.2178 58.01863,0.48739 85.12402,2.29168 m -29.28672,7.98169 c 29.62846,-1.47879 63.92341,0.62812 99.92968,2.51083 m -23.50152,-5.36215 c 26.86121,-0.6216 52.88684,0.6156 79.4776,2.57164 m -23.50463,-5.38369 c 32.51253,0.65405 62.13936,-1.37794 92.71738,-4.36207 0,0 -0.001,-0.009 -0.001,-0.009 0.19294,-0.0188 0.38562,-0.0365 0.57805,-0.0529 m -22.53549,6.33769 c 8.62433,-0.3112 17.11807,-0.56721 25.49304,-0.8305 0,-1e-5 -0.002,-0.003 -0.002,-0.003 12.38695,-0.38955 23.33642,4.34085 30.92227,12.05762 7.53384,7.66386 11.78463,18.32938 10.71891,29.76487 m -670.46258,408.22687 0,-160.85937 m 352.90147,-289.4502 143.51562,0 m -466.61072,0 149.14062,0 m 491.56861,439.24204 0,190.15625 m -670.5156,319.01622 0,-169.53125"
       id="rect4272-7"
       inkscape:path-effect="#path-effect4216"
       inkscape:original-d="m 914.65942,194.96279 c 25.3616,0 45.7793,20.4177 45.7793,45.7793 l 0,878.95701 c 0,25.3616 -20.4177,45.7793 -45.7793,45.7793 l -578.957,0 c -25.3616,0 -45.7793,-20.4177 -45.7793,-45.7793 l 0,-639.14651 c 0.3247,0.01 0.6463,0.025 0.9726,0.025 0.013,0 0.026,0 0.039,0 a 69.946564,69.946564 0 0 0 69.5957,62.9531 69.946564,69.946564 0 0 0 69.9453,-69.9472 69.946564,69.946564 0 0 0 -22.9765,-51.7266 69.946564,69.946564 0 0 0 22.8418,-51.5957 69.946564,69.946564 0 0 0 -23.4375,-52.1289 69.886574,69.886574 0 0 0 23.7148,-52.3828 69.886574,69.886574 0 0 0 -65.0273,-69.7149 c 0.01,-0.3572 0.024,-0.7136 0.027,-1.0722 l 549.041,0 z" />
    <path
       style="fill:none;fill-opacity:1;stroke:#000000;stroke-width:4;stroke-linecap:round;stroke-linejoin:miter;stroke-miterlimit:4;stroke-dasharray:none;stroke-dashoffset:0;stroke-opacity:1"
       id="path5711-9-2-3-3-4-4"
       r="22.973518"
       cy="553.55682"
       cx="944.66028"
       d=""
       inkscape:connector-curvature="0" />
  </g>
</svg>
