<?xml version="1.0" encoding="UTF-8" standalone="no"?>
<!-- Created with Inkscape (http://www.inkscape.org/) -->

<svg
   xmlns:osb="http://www.openswatchbook.org/uri/2009/osb"
   xmlns:dc="http://purl.org/dc/elements/1.1/"
   xmlns:cc="http://creativecommons.org/ns#"
   xmlns:rdf="http://www.w3.org/1999/02/22-rdf-syntax-ns#"
   xmlns:svg="http://www.w3.org/2000/svg"
   xmlns="http://www.w3.org/2000/svg"
   xmlns:sodipodi="http://sodipodi.sourceforge.net/DTD/sodipodi-0.dtd"
   xmlns:inkscape="http://www.inkscape.org/namespaces/inkscape"
   width="233.67999mm"
   height="318.34668mm"
   viewBox="0 0 827.99997 1128"
   id="svg2"
   version="1.1"
   inkscape:version="0.91 r13725"
   sodipodi:docname="background4.svg">
  <defs
     id="defs4">
    <inkscape:path-effect
       effect="sketch"
       id="path-effect4220"
       is_visible="true"
       nbiter_approxstrokes="5"
       strokelength="100"
       strokelength_rdm="0.3;1"
       strokeoverlap="0.3"
       strokeoverlap_rdm="0.3;1"
       ends_tolerance="0.1;1"
       parallel_offset="5;1"
       tremble_size="5;1"
       tremble_frequency="1"
       nbtangents="5"
       tgt_places_rdmness="1;1"
       tgtscale="10"
       tgtlength="100"
       tgtlength_rdm="0.3;1" />
    <inkscape:path-effect
       effect="sketch"
       id="path-effect4218"
       is_visible="true"
       nbiter_approxstrokes="5"
       strokelength="100"
       strokelength_rdm="0.3;1"
       strokeoverlap="0.3"
       strokeoverlap_rdm="0.3;1"
       ends_tolerance="0.1;1"
       parallel_offset="5;1"
       tremble_size="5;1"
       tremble_frequency="1"
       nbtangents="5"
       tgt_places_rdmness="1;1"
       tgtscale="10"
       tgtlength="100"
       tgtlength_rdm="0.3;1" />
    <inkscape:path-effect
       effect="sketch"
       id="path-effect4216"
       is_visible="true"
       nbiter_approxstrokes="5"
       strokelength="100"
       strokelength_rdm="0.3;1"
       strokeoverlap="0.3"
       strokeoverlap_rdm="0.3;1"
       ends_tolerance="0.1;1"
       parallel_offset="5;1"
       tremble_size="5;1"
       tremble_frequency="1"
       nbtangents="5"
       tgt_places_rdmness="1;1"
       tgtscale="10"
       tgtlength="100"
       tgtlength_rdm="0.3;1" />
    <inkscape:path-effect
       effect="sketch"
       id="path-effect4384"
       is_visible="true"
       nbiter_approxstrokes="5"
       strokelength="100"
       strokelength_rdm="0.3;1"
       strokeoverlap="0.3"
       strokeoverlap_rdm="0.3;1"
       ends_tolerance="0.1;1"
       parallel_offset="5;1"
       tremble_size="5;1"
       tremble_frequency="1"
       nbtangents="5"
       tgt_places_rdmness="1;1"
       tgtscale="10"
       tgtlength="100"
       tgtlength_rdm="0.3;1" />
    <inkscape:path-effect
       effect="sketch"
       id="path-effect4382"
       is_visible="true"
       nbiter_approxstrokes="5"
       strokelength="100"
       strokelength_rdm="0.3;1"
       strokeoverlap="0.3"
       strokeoverlap_rdm="0.3;1"
       ends_tolerance="0.1;1"
       parallel_offset="5;1"
       tremble_size="5;1"
       tremble_frequency="1"
       nbtangents="5"
       tgt_places_rdmness="1;1"
       tgtscale="10"
       tgtlength="100"
       tgtlength_rdm="0.3;1" />
    <inkscape:path-effect
       effect="sketch"
       id="path-effect4380"
       is_visible="true"
       nbiter_approxstrokes="5"
       strokelength="100"
       strokelength_rdm="0.3;1"
       strokeoverlap="0.3"
       strokeoverlap_rdm="0.3;1"
       ends_tolerance="0.1;1"
       parallel_offset="5;1"
       tremble_size="5;1"
       tremble_frequency="1"
       nbtangents="5"
       tgt_places_rdmness="1;1"
       tgtscale="10"
       tgtlength="100"
       tgtlength_rdm="0.3;1" />
    <inkscape:path-effect
       effect="sketch"
       id="path-effect4376"
       is_visible="true"
       nbiter_approxstrokes="5"
       strokelength="100"
       strokelength_rdm="0.3;1"
       strokeoverlap="0.3"
       strokeoverlap_rdm="0.3;1"
       ends_tolerance="0.1;1"
       parallel_offset="5;1"
       tremble_size="5;1"
       tremble_frequency="1"
       nbtangents="5"
       tgt_places_rdmness="1;1"
       tgtscale="10"
       tgtlength="100"
       tgtlength_rdm="0.3;1" />
    <inkscape:path-effect
       effect="sketch"
       id="path-effect4374"
       is_visible="true"
       nbiter_approxstrokes="5"
       strokelength="100"
       strokelength_rdm="0.3;1"
       strokeoverlap="0.3"
       strokeoverlap_rdm="0.5;1"
       ends_tolerance="0.1;1"
       parallel_offset="3;1"
       tremble_size="5;1"
       tremble_frequency="1"
       nbtangents="5"
       tgt_places_rdmness="1;523070426"
       tgtscale="10"
       tgtlength="100"
       tgtlength_rdm="0.3;1" />
    <linearGradient
       id="linearGradient5674"
       osb:paint="solid">
      <stop
         style="stop-color:#ff0000;stop-opacity:1;"
         offset="0"
         id="stop5676" />
    </linearGradient>
  </defs>
  <sodipodi:namedview
     id="base"
     pagecolor="#ffffff"
     bordercolor="#666666"
     borderopacity="1.0"
     inkscape:pageopacity="0.0"
     inkscape:pageshadow="2"
     inkscape:zoom="0.35"
     inkscape:cx="-160.42412"
     inkscape:cy="517.64302"
     inkscape:document-units="px"
     inkscape:current-layer="layer1"
     showgrid="false"
     fit-margin-top="0"
     fit-margin-left="0"
     fit-margin-right="0"
     fit-margin-bottom="0"
     inkscape:window-width="1440"
     inkscape:window-height="897"
     inkscape:window-x="-8"
     inkscape:window-y="-8"
     inkscape:window-maximized="1" />
  <metadata
     id="metadata7">
    <rdf:RDF>
      <cc:Work
         rdf:about="">
        <dc:format>image/svg+xml</dc:format>
        <dc:type
           rdf:resource="http://purl.org/dc/dcmitype/StillImage" />
        <dc:title />
      </cc:Work>
    </rdf:RDF>
  </metadata>
  <g
     inkscape:label="Layer 1"
     inkscape:groupmode="layer"
     id="layer1"
     transform="translate(-211.79457,-116.50621)">
    <path
       style="fill:none;fill-opacity:0.60355033;stroke:#000000;stroke-width:1;stroke-linecap:round;stroke-linejoin:round;stroke-miterlimit:4;stroke-dasharray:none;stroke-dashoffset:0;stroke-opacity:1"
       d="m 922.51721,203.32727 c 10.50444,1.07705 19.63972,5.63225 26.42117,12.43307 8.21547,8.23895 13.01254,19.80892 12.58655,32.62211 -0.168,5.05315 -0.34831,10.1065 -0.52615,15.14849 m -1.95648,-23.34095 c 0.003,0.41136 5e-4,0.82437 -0.007,1.23895 -0.42728,23.13067 0.27386,46.97706 1.38671,70.96151 m -5.12077,-8.13404 c -1.0773,24.42951 -0.38444,48.70941 0.30472,72.15372 m 4.25086,-10.96468 c 1.44799,32.75708 0.69208,64.03358 1.70315,96.71052 m -5.8211,-32.3166 c -0.84915,27.56001 1.32942,55.72039 4.73603,82.95395 m -1.84541,-12.63729 c -0.79693,26.23793 0.70791,49.86803 3.11913,72.16468 m -7.03318,-12.23185 c -0.72882,24.90548 0.58136,49.531 2.69777,73.88543 m 4.23242,-14.4954 c 0.47514,23.18318 -0.44306,47.57513 -2.06513,72.84832 m 1.41675,-8.59831 c 0.82748,31.2916 -0.29253,60.39524 -1.21554,88.74455 m 1.19164,-26.24001 c -0.60368,31.72302 0.89553,62.0093 2.96391,94.3694 m -3.23666,-21.12058 c 1.34786,27.79159 0.50952,54.76722 0.18709,81.70288 m -4.92148,-22.172 c 1.42972,30.79803 0.19007,59.38489 -0.2713,87.65644 m -1.80692,-18.50427 c 1.05559,28.12625 1.22549,58.07319 2.73152,90.40909 m 3.53334,-25.0201 c -0.93792,25.7016 -1.25433,51.1133 -2.46009,78.1633 m 1.89022,-15.179 c 0.0872,14.5015 -0.16532,29.3571 -0.70016,44.3257 -0.43312,12.1217 -5.63428,23.1893 -13.91509,31.4183 m 8.82874,-12.2553 c -2.3977,5.4421 -5.68541,10.3309 -9.65716,14.4666 -8.19821,8.5366 -19.29139,13.8414 -31.38513,14.1587 -12.2585,0.3216 -24.28256,0.7389 -36.16761,1.4125 m 24.43683,0 c -31.80165,0.6708 -64.79322,-2.0121 -97.15607,-6.1756 m 25.87973,0.9178 c -32.5671,0.7785 -64.75883,1.7659 -96.24459,5.217 m 23.85039,-5.7718 c -27.24575,0.2459 -53.42184,-0.5141 -78.19458,-1.7731 m 8.74223,5.8196 c -29.03083,-0.6689 -58.27775,-0.6909 -85.23767,-1.7018 m 22.37821,3.3582 c -31.07929,-0.3692 -63.19244,-1.0673 -95.221,-3.1067 m 27.38788,-1.2609 c -33.61306,-1.6071 -64.52637,0.6755 -95.41995,2.1761 m 24.9323,3.1055 c -31.4892,-0.5554 -63.09692,-2.7639 -94.61912,-8.1039 m 23.39077,7.9399 c -29.02455,-0.3005 -56.54016,-0.1632 -83.70729,-0.2473 -4.55313,-0.014 -8.92946,-0.7583 -13.02701,-2.1311 m 30.68181,-6.8476 c -5.05543,0.2237 -10.16737,0.4376 -15.32482,0.6582 -12.56268,0.5372 -24.14341,-4.0375 -32.64122,-11.5473 -8.5021,-7.5136 -13.93183,-17.9818 -14.26243,-29.1432 -0.0183,-0.6177 -0.0365,-1.2339 -0.0546,-1.8486 m 7.32477,22.7681 c -2.90781,-5.9295 -4.5714,-12.5237 -4.68497,-19.456 -0.27656,-16.8818 -0.53976,-33.5358 -1.0399,-49.9878 m 1.93616,13.0702 c 0.42127,-30.0302 0.4562,-58.7302 1.09265,-88.0751 m -1.10098,21.7915 c -0.92651,-24.49622 -0.87996,-49.91927 -1.42366,-75.4835 m -2.92754,14.4171 c -0.0107,-27.4632 0.85056,-57.42023 2.56592,-88.70974 m -4.77707,12.96361 c -0.72277,-34.13111 0.62242,-65.03684 1.88339,-95.87447 m 0.81983,35.70673 c -0.35233,-26.13896 0.60522,-54.01564 2.15219,-81.18628 m 6.64492,10.71516 c 0.29127,-27.3928 0.008,-54.97332 -0.22164,-82.25237 m -3.3564,18.77843 c 0.6075,-30.54442 -1.21884,-59.92362 -3.92063,-88.21984 m 0.59215,16.1382 c -0.19173,-12.10778 -0.23118,-24.07124 -0.19372,-35.93906 0.23772,0.002 0.47546,0.004 0.71324,0.007 1.30391,19.54658 10.78188,37.93317 25.92981,50.70132 m -10.81402,-22.48777 c 13.58173,21.95419 35.97048,36.16384 60.47985,38.22742 4.94609,0.41075 9.87768,0.31583 14.72324,-0.26941 m -30.39418,9.17106 c 2.06771,0.22801 4.15009,0.35721 6.24038,0.38779 29.562,0.39913 57.02761,-18.68918 68.65382,-46.63818 m -13.0677,7.61181 c 9.55369,-13.26223 15.12878,-28.86993 15.32583,-44.7913 0.0835,-7.74147 -1.11041,-15.36627 -3.57884,-22.60514 m 7.67984,19.22295 c -2.28776,-15.45141 -10.65777,-29.62254 -23.56199,-40.31698 11.58589,-12.05947 17.40682,-28.83504 16.02201,-47.13286 m 1.45835,32.69032 c 6.17211,-10.1455 9.39658,-21.709 9.55314,-33.50087 0.20385,-19.63077 -8.08617,-38.44002 -22.08444,-51.48161 0.58637,-0.50498 1.16517,-1.01877 1.73622,-1.54114 m 5.0416,8.03638 c -3.81291,-7.16966 -8.77564,-13.54538 -14.65841,-18.81305 12.49936,-10.57066 21.06791,-24.69733 24.42338,-39.68423 m -2.85484,22.2948 c 1.90824,-6.73098 2.96698,-13.8592 3.09809,-21.12993 0.29853,-20.14702 -6.5399,-39.85141 -19.15797,-54.2846 2.43072,-2.01801 4.75878,-4.16726 6.97161,-6.43626 m -2.78236,11.76396 c -2.81289,-3.69889 -5.89427,-7.06026 -9.20964,-10.04981 15.06743,-13.46223 24.70321,-31.40006 26.33589,-49.96028 0.58322,-6.72762 0.0937,-13.35235 -1.44723,-19.64945 m 6.10636,26.57261 c 0.0556,-1.27903 0.0774,-2.55955 0.0654,-3.84016 -0.25935,-24.47201 -12.84105,-47.08394 -33.61254,-59.74564 m 8.84135,3.78768 c -12.28075,-9.97998 -27.23567,-16.2901 -42.99577,-17.54826 0.007,-0.36102 0.0197,-0.7213 0.0213,-1.08387 9.5624,-0.10646 19.14627,-0.2776 28.65134,-0.42375 m -15.63072,-1.26653 c 23.02267,-0.28199 47.70786,-0.0434 72.39552,0.24994 m -14.14257,6.07863 c 29.42915,0.95731 60.133,-0.61208 91.82268,-2.47678 m -23.49993,-1.64074 c 32.9545,-0.0127 66.14964,0.40146 99.8471,1.25264 m -33.98172,-2.82315 c 31.28249,-0.61733 62.51711,-0.11069 95.88077,0.0149 m -22.86887,-1.94449 c 33.24164,-0.27276 63.5813,-0.34575 90.97709,-1.04985 m -21.28159,3.94811 c 32.67878,-0.80602 61.42242,-1.71729 89.98878,-4.88756 m -22.68231,-1.90942 c 30.49937,-1.12957 61.70278,0.0106 91.98791,0.46207 m -19.07004,5.0854 c 20.94921,0.4759 41.73978,-0.28535 62.6855,-1.72339 0,2e-5 0.001,-0.007 0.001,-0.007 8.03734,-0.55263 15.60347,0.82599 22.25028,3.68001 m -19.93123,-6.28396 c 8.53252,1.42359 16.34969,5.83959 22.51008,12.29066 8.25567,8.64522 13.57291,20.96078 13.88248,34.95733 0.17912,8.09866 0.38106,16.32208 0.56184,24.62198 m -5.82161,-14.96934 c 0.0819,26.46237 0.89663,52.6383 2.60487,79.08888 m 2.95763,-20.56224 c 0.10151,32.27235 -0.83634,64.5594 -2.53332,96.09024 m 2.62663,-24.09397 c -1.1071,27.5643 -0.049,55.12123 1.00614,83.74837 m -2.31067,-21.30107 c -0.69105,25.98467 0.99712,54.69752 3.70786,83.64895 m 4.98773,-20.92907 c 0.0611,25.80938 -1.83015,53.45401 -5.5619,82.02441 m -6.46904,-14.47541 c 1.01334,30.13189 2.02351,58.92987 5.50028,87.14982 m 1.61614,-25.38603 c -1.25916,28.64651 -1.41617,60.2287 -3.40582,93.24284 m 0.61743,-19.87732 c 0.76723,31.70486 -0.041,62.31555 -0.34764,91.86422 m 2.27691,-25.86075 c -0.43696,24.40955 0.38809,50.53834 1.73906,76.56824 m -4.34072,-19.41654 c -0.65706,24.2833 -0.33073,48.83527 -0.0783,73.49451 m 2.34376,-3.79823 c -1.34652,31.1526 0.45896,61.76248 2.06473,93.44083 m -3.64252,-29.15632 c -0.24565,24.33606 1.17289,49.28411 3.88256,75.02521 m 3.55496,-8.4018 c -0.21035,24.6369 -0.56199,50.8954 -1.43997,76.9884 m 1.51851,-18.0986 c 0.35636,10.2878 0.29006,20.9236 -0.0856,31.7669 -0.44353,12.8008 -6.3636,24.6331 -15.63701,33.325 -0.94082,0.8818 -1.91643,1.7317 -2.92474,2.5475 m 3.3091,-4.9012 c -1.42652,2.2419 -3.03713,4.3255 -4.80821,6.231 -7.93587,8.5385 -19.12817,13.5327 -31.42995,13.1222 -11.50216,-0.3839 -22.92477,-1.0032 -34.12659,-1.6796 m 10.29289,-5.9646 c -25.16576,0.2406 -51.15039,0.1578 -77.04328,0.1956 m 19.95402,2.6091 c -33.55436,0.3299 -66.66225,-0.5657 -102.33473,-1.7828 m 32.69299,-3.991 c -29.22988,-0.611 -55.09052,-0.5281 -80.30319,-1.0597 m 18.38474,9.13 c -24.3784,-0.7049 -48.42167,-0.9184 -72.11575,-1.7805 m 6.15387,-0.3672 c -27.88607,1.2994 -55.95905,0.3244 -85.40889,-0.3161 m 24.67628,-3.4192 c -29.36686,-1.2785 -62.63995,0.9955 -97.42252,3.6549 m 24.93046,-0.1469 c -32.39419,-0.7777 -62.02285,-1.7613 -92.2167,-4.9782 m 22.47178,2.4943 c -22.95516,0.5466 -47.26493,0.2985 -71.74066,0.094 m 7.09102,3.3126 c -12.99959,0.2504 -25.70905,0.3216 -38.08714,0.3278 -10.56146,0.01 -19.99121,-3.9957 -26.91678,-10.6131 m 9.3179,2.0468 c -4.82464,-2.0707 -9.10648,-4.9461 -12.7039,-8.452 -8.32358,-8.1118 -13.03039,-19.6504 -12.22525,-32.503 0.45807,-7.3123 1.02777,-14.6579 1.66448,-22.0052 m 4.16132,13.7448 c -0.21148,-27.0128 -1.19939,-54.8959 -3.41055,-83.5754 m -7.29247,17.2298 c 0.10394,-34.6516 2.09592,-64.43657 6.25558,-93.89175 m -0.084,26.23744 c -0.61713,-25.57097 0.0698,-49.51481 0.99823,-72.64057 m 3.19782,9.29896 c 1.16076,-24.31625 -0.0514,-46.60386 -1.93833,-68.21441 m -1.65633,13.62167 c -0.99655,-23.22974 -0.83709,-48.71777 -1.08498,-75.16165 m 1.42131,13.17429 c -0.0737,-27.098 -0.6919,-53.84966 -1.97206,-80.64216 m -1.81677,13.16769 c 0.51792,-25.48195 1.32456,-50.71012 3.32173,-76.47061 m -3.72843,9.49257 c -0.58628,-23.1707 0.38052,-46.63842 1.99738,-69.36534 m -0.4425,12.49746 c -0.0456,-8.612 0.0506,-17.09935 0.28054,-25.50902 0.2435,-0.001 0.4871,-0.003 0.73081,-0.004 1.51427,16.29718 9.2569,32.01639 22.00369,44.0456 m -8.46899,-5.54211 c 11.74288,20.004 34.70129,31.85754 59.58259,31.75336 1.35199,-0.007 2.70493,-0.0495 4.05714,-0.12701 m -12.22877,-4.44176 c 2.78366,0.41957 5.56822,0.6629 8.33901,0.73096 27.56212,0.64591 51.2035,-16.04453 59.44864,-40.94166 m -5.88418,23.24418 c 11.36684,-13.07409 17.86593,-29.96663 18.27216,-47.78179 0.14597,-6.85362 -0.613,-13.71448 -2.25011,-20.40457 m -7.03526,11.71223 c -2.15997,-16.73907 -9.72511,-32.09563 -21.25381,-43.50672 10.12908,-8.60797 18.02938,-19.65875 23.00858,-32.07715 m -12.64127,11.87062 c 7.28985,-10.96821 11.45647,-24.17285 11.6542,-37.54479 0.13337,-11.33344 -2.59426,-22.35312 -8.08019,-31.73495 m 6.23771,18.63524 c -4.18883,-11.4265 -10.92178,-22.03452 -19.72936,-30.59207 13.948,-12.39712 23.3738,-29.89176 26.14287,-48.49494 m 1.99253,14.24158 c 3.7079,-8.93332 5.5327,-18.19409 5.40146,-27.34854 -0.26978,-15.32225 -6.00931,-29.69185 -16.26335,-41.13908 m 5.09506,15.09915 c -3.73206,-7.22606 -8.86147,-13.8799 -15.09994,-19.59022 15.21979,-13.475 23.79601,-33.59662 24.00806,-54.8895 0.0368,-4.15479 -0.24522,-8.30917 -0.83883,-12.41847 m -1.07476,25.15486 c 1.19313,-5.0303 1.83646,-10.08901 1.92554,-15.08732 0.3531,-21.24772 -9.34496,-40.03696 -25.65893,-50.186 m 4.45198,11.60583 c -12.87742,-14.09716 -30.32334,-23.28592 -49.02301,-24.9726 0.0155,-0.36402 0.0367,-0.72711 0.047,-1.09263 13.95588,-0.26281 28.00208,-0.61984 41.89178,-0.86086 m -34.64005,-1.27431 c 23.81595,-0.38344 48.8788,-0.55768 74.00887,-1.14098 m -7.89845,8.29782 c 34.19758,1.40841 66.57145,-1.54561 100.41358,-4.69997 m -27.13479,-4.26963 c 28.31597,-1.1444 55.86428,0.42391 84.49488,2.35288 m -16.8546,-3.1335 c 30.4947,0.61311 58.7076,0.33263 87.91457,0.58998 m -24.14497,4.44863 c 29.39399,-0.71565 57.65987,-2.00555 84.45175,-5.57991 m -16.16815,6.26804 c 23.20798,0.9122 46.14595,-0.94273 68.56039,-4.21435 m -11.78326,1.23768 c 30.61747,0.86799 61.79945,1.01772 91.76099,2.76449 m -20.04052,2.32068 c 25.45855,-1.2853 52.54183,-0.72745 79.5942,-0.73103 0,0 0.003,-2e-5 0.003,-2e-5 0.70058,-1.3e-4 1.39747,0.0141 2.09035,0.0424 m -19.56048,-3.38925 c 4.90895,-0.11364 9.81876,-0.20133 14.73301,-0.2703 0,0 0.001,-0.001 0.001,-0.001 12.84318,-0.17959 24.48115,4.88212 33.01212,13.10221 8.54305,8.23173 13.96778,19.61918 14.48185,32.15138 0.13338,3.25168 0.27704,6.49546 0.43211,9.72907 m -44.28884,-51.66909 c 9.69529,1.94435 18.33265,6.53532 25.14126,12.95853 8.82271,8.32331 14.51167,19.65472 15.50871,32.24318 0.87935,11.10258 2.01965,22.19468 3.58556,33.36777 m -4.08973,-33.87557 c 0.0731,23.40484 -0.44191,47.21129 -1.41904,71.33337 m 6.96546,-6.11118 c -1.30491,31.61408 -1.90647,62.43064 -5.22701,93.43901 m 6.54739,-24.46006 c -1.06192,29.0524 -1.70494,60.25481 -4.5515,90.72656 m 0.25504,-23.82984 c 0.14169,23.88172 -0.75504,48.39892 -2.46635,73.02092 m 0.005,-16.52196 c -0.55185,26.13394 0.7967,53.01598 3.01303,80.53048 m -2.80193,-18.65829 c -0.13257,27.73105 -0.008,57.37912 0.10097,87.69348 m -2.17138,-20.52335 c -0.40059,27.95328 1.06413,55.7034 3.58864,83.64517 m -4.37802,-17.11235 c -1.18485,24.49134 -0.41691,51.76699 0.18706,79.63311 m 4.5084,-15.00124 c -0.9705,31.58955 -0.25737,63.18913 -0.3551,96.19431 m -6.95745,-26.98772 c -1.16783,32.96481 0.25347,62.64478 1.01399,91.32101 m 4.9712,-23.69561 c 1.48289,32.56807 -1.82014,63.98008 -5.58059,93.75406 m 8.47867,-23.96449 c 0.24208,26.5598 0.0719,52.74822 -0.0974,79.90192 m -2.97339,-19.6364 c -1.156,30.0515 -1.09777,59.2033 -2.56855,88.5395 -0.10151,2.0248 -0.34121,4.0186 -0.71168,5.9736 m -1.17274,-19.6145 c -0.16103,6.9724 -0.16465,13.6992 -0.0299,20.2186 0.25659,12.4143 -4.13254,22.9175 -11.41442,29.8697 -7.25291,6.9245 -17.41574,10.3126 -28.40891,8.1552 -2e-5,0 -0.096,-0.019 -0.096,-0.019 m 25.66911,-2.2455 c -6.54464,4.0674 -14.35431,6.4256 -22.89445,6.571 -22.70292,0.3866 -46.7995,0.5455 -71.6855,1.3488 m 27.55701,0.9013 c -29.49382,0.881 -58.53281,-0.8509 -89.17222,-3.2229 m 19.02237,6.9651 c -26.27825,0.6173 -51.65865,-1.5699 -77.45001,-5.5016 m 16.29808,-4.2876 c -27.66301,0.2397 -53.06128,1.6548 -78.13323,4.7012 m 14.1181,0.3377 c -29.86604,-0.2126 -59.32133,-1.0445 -87.56347,-3.0216 m 21.88513,-3.5642 c -26.73545,0.229 -51.56098,0.958 -76.67605,2.5936 m 11.05213,6.3512 c -26.61684,-1.1745 -51.74264,-1.0681 -75.80024,-1.8899 m 9.28035,2.0854 c -25.23927,-0.4623 -49.783,-0.4647 -74.5583,-0.7751 m 15.59879,1.3688 c -26.54478,-0.5772 -51.88922,-2.0339 -76.32745,-5.4385 m 6.62826,-5.9363 c -7.75469,-0.059 -15.51783,0.024 -23.26523,0.2378 -12.4491,0.3435 -23.6197,-4.1243 -31.52698,-11.5323 -2.58337,-2.4203 -4.81543,-5.1523 -6.62475,-8.1272 m 13.16185,10.4065 c -7.77798,-7.8212 -12.49642,-18.7305 -12.11252,-30.6205 0.44123,-13.6657 0.9985,-27.0801 1.89235,-39.9475 m -5.83762,10.2275 c 0.115,-24.5816 0.70409,-48.6465 1.94783,-72.31 m -8.00218,10.2467 c 1.17384,-30.80305 0.44529,-59.95183 0.74049,-88.57189 m 4.0563,29.81275 c 0.92104,-29.279 -0.74252,-60.63759 -2.71151,-91.68277 m 6.88354,11.68109 c 1.11882,-25.19196 0.68638,-48.02462 0.53053,-69.32444 m 4.09422,19.35794 c 0.55041,-27.20725 -0.96491,-54.81249 -3.45923,-83.00164 m -9.12659,13.28407 c 0.89762,-29.10382 2.1403,-55.54833 5.64293,-81.63186 m 3.79445,16.00385 c 0.60673,-29.26415 0.85302,-58.72436 2.14154,-88.26174 m 0.31894,19.48235 c -0.45518,-18.245 -1.23968,-36.0088 -2.76189,-53.32914 0.21716,0.0115 0.43419,0.0231 0.6511,0.0347 -0.1571,7.88406 0.77297,15.70681 2.68774,23.20053 m -5.07603,-11.2273 c 4.97687,25.77108 23.26041,46.55603 48.3228,54.36351 m -6.76492,-7.01201 c 9.82819,5.59645 21.0748,8.4564 32.44106,8.24618 19.87605,-0.39086 38.62061,-10.14686 49.69744,-27.0751 m -26.73241,20.03813 c 20.88707,-10.41228 35.95923,-33.17286 39.1928,-58.90909 m 0.33066,7.64204 c 1.04956,-4.84515 1.59032,-9.83439 1.60365,-14.8552 0.0197,-19.06861 -7.57155,-37.40667 -21.09297,-49.38998 3.89918,-2.90855 7.47586,-6.13713 10.67549,-9.6144 m -7.14705,14.03164 c -1.56879,-1.67704 -3.23356,-3.28128 -4.98764,-4.80521 14.80719,-12.78659 22.73783,-31.82569 21.7279,-51.6786 -0.61443,-11.43056 -4.17385,-22.66496 -10.41943,-32.58027 0,0 -0.005,-0.009 -0.005,-0.009 m 5.07262,29.23422 c -1.02729,-18.92995 -8.53993,-36.18156 -20.71008,-48.8325 7.97563,-6.78849 14.67132,-15.05481 19.75459,-24.38867 m -12.60057,17.54538 c 9.93097,-12.30006 15.59997,-28.26084 16.23779,-45.38955 0.48738,-14.23086 -2.51216,-28.60735 -8.51551,-41.76188 m 3.36435,19.58399 c -3.07287,-12.70038 -9.73011,-23.89793 -18.8409,-32.20143 11.66446,-8.91972 20.38336,-20.62508 25.57641,-33.39962 m -0.52148,18.56037 c 5.84437,-10.2286 8.5361,-21.65648 7.99909,-33.33218 -0.78817,-16.72024 -8.14522,-33.13663 -20.61554,-46.69155 m 10.3794,12.2324 c -9.93992,-22.92977 -33.18245,-37.21186 -59.5318,-37.01922 -0.008,-0.32955 -0.0113,-0.65847 -0.0253,-0.98891 7.39107,0.60813 14.75171,1.30449 22.12551,2.08022 m -20.39041,2.81576 c -1.43738,-0.24781 -2.88068,-0.44427 -4.32786,-0.58953 0.005,-0.36853 0.0162,-0.73584 0.016,-1.10488 29.19602,-0.86149 58.1671,1.24226 86.20341,3.38288 m -24.98683,-9.21539 c 30.36958,-0.1038 60.55845,-0.54913 92.56416,-1.56696 m -16.77814,6.38685 c 34.54405,-1.53631 64.36311,-0.76397 93.79938,-2.19069 m -22.01453,0.23041 c 23.94173,0.49672 49.15209,0.85753 73.97723,1.92726 m -19.30728,1.11147 c 29.14055,-0.41743 60.4242,-2.20401 92.64334,-6.32895 m -19.30503,6.54773 c 29.15169,-0.32241 60.18694,-1.09943 89.5496,-3.15792 m -29.84792,-1.23257 c 28.34331,0.0846 55.25047,0.45645 83.25817,1.25087 m -21.45237,4.35891 c 29.7712,1.25285 60.27351,-1.46851 92.88864,-5.27242 0,1e-5 0.0118,-0.013 0.0118,-0.013 0.76879,-0.0897 1.53468,-0.16453 2.29741,-0.22476 m -22.57352,-2.03674 c 6.74127,0.23059 13.54413,0.40209 20.41281,0.54288 0,0 0.002,0.002 0.002,0.002 12.9921,0.26569 24.91857,5.50903 33.91093,14.00113 9.00147,8.5007 15.00286,20.18599 16.29639,33.40764 0.10239,1.04652 0.20659,2.09463 0.31261,3.14442 m -43.60258,-49.60071 c 12.53155,1.01167 23.3287,5.99976 31.01892,13.62892 8.01396,7.95032 12.58998,18.74267 11.87191,30.5365 -0.24622,4.04398 -0.50714,8.06915 -0.77347,12.08639 m -5.09963,-17.11191 c 0.18378,1.60881 0.28381,3.25168 0.29576,4.92432 0.19801,27.71959 1.2335,57.60742 3.34127,88.27733 m 0.55433,-25.59962 c 0.80127,28.00699 -0.19092,54.55979 -1.42129,81.65629 m 5.07719,-16.67764 c -0.12983,23.30861 0.17659,48.11659 0.72212,73.70787 m -9.55062,-9.14194 c -1.25541,28.9869 1.29926,59.46329 4.7246,90.18257 m -5.72457,-25.80295 c -1.21844,30.08498 0.96695,60.11625 3.43622,88.82116 m 1.40048,-21.7358 c 1.02022,27.46277 -0.33385,56.75772 -1.91802,86.52688 m 7.14406,-22.9078 c -0.43622,27.88862 -0.69938,55.64705 -1.66166,84.59675 m -1.58061,-19.02607 c -0.62144,25.04539 0.41965,50.86587 2.03063,76.33055 m 0.73543,-15.9834 c 0.60341,32.60775 0.19614,63.07706 0.35715,94.30264 m -8.71695,-19.42437 c -0.70665,32.68682 2.18408,61.78484 6.78159,91.18382 m -1.03109,-23.83805 c 0.86596,30.39319 -1.33033,62.60055 -4.26621,93.09152 m 0.78107,-24.08676 c -1.66192,34.8264 0.89347,66.46073 2.68374,99.57083 m -0.94913,-36.4543 c -0.75438,29.2355 0.41399,58.4461 1.7777,88.5063 m 0.30088,-14.1806 c 0.14244,6.8037 0.2233,13.8394 0.26215,21.0592 0.0689,12.8102 -5.09837,24.895 -13.4456,34.0649 -8.35958,9.1834 -19.89025,15.4409 -32.62148,16.7966 -1.4975,0.1595 -2.99397,0.32 -4.48924,0.4811 m 25.8237,-11.9661 c -6.8345,3.6988 -14.73331,5.8353 -23.19059,5.8579 -21.84405,0.058 -43.79456,0.6482 -66.30394,1.279 m 19.98614,-1.6237 c -25.00483,-0.3042 -48.51746,0.1247 -71.57011,0.8068 m 17.56974,-4.6187 c -33.69392,1.5767 -68.47291,-0.024 -106.07694,-0.116 m 29.97071,5.8653 c -26.69018,-0.5809 -55.0449,-1.139 -82.14125,-2.8974 m 16.00953,-2.4465 c -23.57561,-0.8526 -47.31469,-0.16 -70.57249,0.7515 m 10.01794,3.0455 c -30.10304,-0.5284 -60.81145,1.1296 -92.12376,3.6789 m 23.95569,-2.2097 c -34.54001,0.7471 -65.83165,0.9553 -98.41029,2.8304 m 34.36904,2.2788 c -26.20121,0.1274 -50.93871,-1.1863 -75.98157,-3.7204 m 12.41073,-5.1388 c -27.21805,0.714 -53.18289,1.1178 -79.25521,2.5399 -6.67738,0.3642 -13.01281,-0.6853 -18.72562,-2.8315 m 30.80545,2.3228 c -3.34168,0.049 -6.67474,0.095 -10.00248,0.1397 -13.07963,0.175 -24.83141,-4.7926 -33.50177,-12.8767 -8.68622,-8.0989 -14.24576,-19.2848 -15.06418,-31.5979 -0.18571,-2.794 -0.3869,-5.581 -0.60594,-8.36 m 6.26153,17.2394 c -1.54659,-4.2574 -2.44808,-8.7897 -2.61096,-13.4832 -0.86289,-24.8655 -1.57001,-49.3094 -3.8686,-72.3271 m 2.36963,23.0387 c 0.45943,-31.1826 0.0718,-61.6963 -0.0211,-94.05317 m -5.01864,29.96537 c -1.16331,-22.68566 -0.49657,-46.98622 0.25251,-71.43065 m -1.66655,6.55996 c -1.36519,-28.49286 1.22151,-58.10053 4.58793,-86.75718 m -4.19696,24.29301 c -0.33551,-28.44101 1.39421,-56.59344 4.51531,-85.87686 m 3.09439,13.30473 c 0.54384,-26.13767 -1.65648,-52.17248 -5.5549,-77.77209 m 2.89846,16.62996 c 0.0282,-23.03196 0.5913,-46.57746 1.75432,-69.20966 m -5.28528,2.78142 c 0.86288,-28.67602 0.0196,-55.60321 -0.62548,-81.52298 m 2.22722,20.74932 c 0.55036,-11.85244 0.76871,-23.50843 0.84994,-35.10554 0.23865,-0.003 0.47725,-0.006 0.71579,-0.009 1.02862,14.40318 6.38244,28.24418 15.6921,39.28026 m -10.88524,-9.68349 c 12.18451,23.52795 36.11917,38.88737 63.04602,40.78007 m -17.58902,-7.74289 c 4.99614,1.01694 10.02866,1.5268 15.03446,1.52141 29.12246,-0.0632 54.07895,-17.42786 65.76045,-44.08665 m -14.93953,26.89837 c 12.94312,-13.91722 20.43382,-31.47411 20.61991,-49.52829 0.0479,-5.50473 -0.58682,-10.95745 -1.89494,-16.25267 m 11.26019,10.4405 c -1.18847,-17.25701 -10.04069,-33.55353 -24.65533,-44.83726 6.48917,-6.06736 11.38118,-13.4783 14.31696,-21.64393 m -6.1567,6.34835 c 9.96604,-12.05118 14.75431,-27.21255 13.4656,-42.66226 -0.71448,-8.27263 -3.15832,-16.44233 -7.25753,-24.04824 m 2.43849,12.03368 c -2.98267,-15.42028 -10.46789,-28.96102 -21.36849,-39.06921 7.60979,-6.81001 13.71459,-15.0936 17.90585,-24.41175 m -10.1143,17.58924 c 7.95569,-12.03119 11.99443,-25.37723 11.77045,-38.64227 -0.37088,-18.31686 -8.84551,-35.1428 -23.21453,-46.93324 m 24.66339,20.463 c -4.45721,-9.72037 -10.87463,-18.33896 -18.9518,-25.37798 10.8103,-10.54143 17.80801,-24.60697 19.3052,-40.40864 m -8.89913,14.16947 c 3.24432,-8.81439 4.87497,-18.12732 4.73124,-27.51913 -0.36359,-22.10375 -10.50276,-42.86048 -28.28864,-57.52391 m 26.02298,19.82644 c -12.14133,-17.28823 -32.21741,-28.56163 -54.5164,-28.93155 0.001,-0.33838 0.009,-0.67594 0.005,-1.01522 5.02959,0.27606 10.04524,0.59274 15.04415,0.96751 m -23.78932,-4.30948 c -0.0409,-0.004 -0.0818,-0.008 -0.12264,-0.0115 0.0111,-0.36546 0.028,-0.72973 0.0338,-1.09608 28.26716,-0.60482 56.94683,0.26775 86.38806,1.21651 m -14.67843,-0.0488 c 28.63716,0.59844 56.30971,0.29215 84.63856,0.32357 m -19.57872,1.33262 c 30.21078,0.47463 62.35783,-1.17956 93.88469,-3.72126 m -28.61562,-0.70851 c 24.39193,0.1543 50.14981,1.84517 76.9073,5.30449 m -12.42345,-2.43688 c 25.633,1.25884 51.05002,0.0386 75.93783,-1.41642 m -19.69097,1.74407 c 26.04657,0.0307 54.0227,-1.5603 82.89597,-4.71469 m -12.70131,-3.46549 c 25.59654,-1.27025 52.82052,-0.0415 79.12704,1.18499 m -15.45725,1.97132 c 24.27481,-1.05163 49.40791,-0.70905 73.84138,-0.75205 m -7.69175,4.39267 c 12.13014,-0.50307 24.06247,-0.61598 35.8751,-0.53206 0,0 -9.5e-4,7e-4 -9.5e-4,7e-4 12.5465,0.0903 23.76679,5.48679 31.76176,14.03407 5.00662,5.35248 8.75653,11.94732 10.78869,19.26856 M 920.481,198.49964 c 10.51308,0.96557 19.83273,5.70429 26.64819,12.87326 7.87409,8.28251 12.45191,19.8641 11.60268,32.67697 -0.19287,2.90997 -0.39904,5.82078 -0.61932,8.73124 m 2.29743,-13.74489 c 0.11259,1.63413 0.14941,3.28831 0.10625,4.95895 -0.79048,30.59272 -0.64328,59.77026 -1.6743,90.52832 m -2.77509,-27.60189 c -0.75892,26.07311 -0.74334,50.98353 -1.31947,75.00242 m 8.71795,-8.03559 c -0.85627,34.44808 -1.3058,65.41933 -3.87946,96.54457 m -3.23793,-34.56151 c -1.10383,23.17272 -0.40909,48.19273 0.35216,73.86125 m 0.82788,-6.72204 c -0.34995,32.70746 1.87421,64.34519 5.66866,96.78422 m -1.87904,-29.6409 c 1.09727,23.14375 -0.4521,48.15539 -2.92739,73.31682 m 1.00518,-13.98209 c 0.31957,25.12964 -0.75441,51.73192 -2.63106,77.39368 m 3.88045,-16.33314 c -1.28864,26.98244 -2.00173,52.87609 -4.51886,79.14902 m 5.31577,-12.77682 c -1.27317,28.24542 -1.18477,55.99334 -2.39717,84.03528 m 2.24187,-24.00631 c 1.24981,25.235 0.47926,50.67912 -0.14708,76.02707 m -1.28296,-6.91177 c 0.35004,23.70017 0.49342,49.29289 1.00728,74.78293 m -0.59338,-20.49416 c -0.0616,30.58774 -0.52662,65.03347 -1.53683,100.86987 m 3.85763,-25.3569 c 1.32902,29.1367 -1.33076,56.5208 -5.06776,83.8338 m 0.59871,-18.0276 c 0.21688,13.4855 0.21259,27.0609 0.0969,40.6927 -0.0929,10.9467 -4.00606,21.0169 -10.46432,28.9648 m 8.30936,-8.8395 c -2.15699,5.017 -5.22297,9.4596 -8.9908,13.1354 -8.12778,7.9292 -19.59284,12.3454 -32.27017,11.111 -8.91923,-0.8685 -17.85062,-1.9617 -26.75236,-3.2725 m 14.65305,7.5721 c -28.6262,0.8701 -55.99504,-1.0724 -83.68577,-3.9988 m 16.83691,-3.2046 c -28.06528,-0.091 -58.66062,1.4703 -89.46808,4.4832 m 25.5887,-1.1391 c -29.04323,1.132 -61.51643,-0.6352 -93.66405,-2.4946 m 26.06635,-2.2555 c -25.34599,0.5713 -49.92056,1.6747 -73.97029,4.2996 m 9.03474,-2.0341 c -32.33722,0.427 -64.10165,0.051 -95.79358,0.109 m 31.45694,0.2817 c -30.69984,0.5482 -62.15849,0.1686 -94.84049,0.2108 m 28.82129,0.9762 c -32.95975,-1.1347 -67.04354,-1.5436 -104.12978,-4.4356 m 25.51601,0.5924 c -31.50132,0.7402 -62.07889,2.1447 -91.50231,6.211 m 23.16515,0.3438 c -9.6873,0.3145 -19.61381,0.3115 -29.67474,0.076 -12.66428,-0.2963 -24.30065,-6.0219 -32.75285,-15.0635 -5.85177,-6.2598 -10.19636,-14.1242 -12.33357,-22.9251 m 14.14482,25.1634 c -7.6985,-8.6185 -12.34003,-19.9033 -12.22284,-32.3162 0.1451,-15.369 0.41317,-30.7209 0.75763,-46.4248 m -2.96272,16.7187 c 1.42266,-29.1223 -0.22336,-57.094 -1.74574,-84.3847 m 2.14353,15.5815 c -0.45158,-29.95826 0.34133,-58.80764 1.33308,-88.92487 m 4.06522,25.41148 c -0.82996,-28.15632 -1.16263,-56.60821 -2.77041,-84.96168 m 3.07527,13.75115 c -0.37054,-28.24589 -1.87277,-58.5747 -5.38273,-87.73519 m 2.96906,25.43258 c 0.67153,-24.83758 -0.69275,-50.02846 -2.94123,-75.43379 m 0.29261,12.06849 c 0.21438,-24.40227 -0.17585,-47.66901 -0.86219,-70.61798 m 0.23676,10.5539 c -0.85252,-24.17995 -1.02251,-49.54401 -1.98507,-74.56732 m 0.64924,7.37428 c -0.46285,-18.82733 -0.7698,-37.76477 -1.39462,-56.20979 0.22936,0.012 0.45867,0.024 0.68793,0.0362 0.23489,7.88431 1.62814,15.71032 4.0848,23.2422 m 2.06067,-20.49251 c 2.98071,24.18508 18.34776,45.63053 39.63868,57.37015 m -9.2145,-0.36402 c 11.32815,6.99215 24.39853,10.78261 37.77377,10.87053 12.6722,0.0692 25.12235,-3.18879 36.11484,-9.46733 m -17.03559,2.61435 c 23.98784,-6.89615 40.48926,-27.71197 44.42399,-53.53771 m 0.57464,14.55589 c 3.39108,-8.00606 4.98278,-16.60774 4.71955,-25.29553 -0.59108,-18.54218 -9.58251,-36.42645 -24.98229,-49.16465 m 15.63959,10.06736 c -3.27151,-5.51097 -7.42636,-10.51965 -12.29908,-14.83814 15.16548,-12.75006 23.56867,-31.25962 23.84519,-50.12104 0.014,-1.20049 -0.005,-2.3983 -0.057,-3.59186 m -6.90232,14.31607 c 0.85168,-4.55401 1.29051,-9.17882 1.30642,-13.81091 0.0112,-19.7965 -7.69646,-38.52461 -21.31796,-51.77487 2.71823,-2.318 5.27244,-4.82142 7.64262,-7.49077 m -5.82126,14.01101 c -1.5385,-1.86373 -3.17491,-3.6422 -4.90153,-5.33008 14.86732,-13.91594 23.04604,-33.24921 22.98896,-54.16 -0.0155,-2.68873 -0.16722,-5.38621 -0.45339,-8.08327 m 2.93346,19.55868 c 0.0878,-1.52464 0.13054,-3.04672 0.12805,-4.56456 -0.0986,-20.71845 -8.61103,-39.62065 -23.47615,-52.93089 8.39206,-7.41367 14.89693,-16.76874 18.95307,-27.46066 m -11.80622,17.38231 c 12.88051,-13.24984 19.45068,-30.36862 18.60631,-47.92302 -0.43027,-8.72681 -2.6851,-17.32097 -6.62909,-25.31989 m 13.28345,11.90629 c -4.02541,-29.66783 -26.26093,-51.75556 -54.83666,-56.57744 m 10.87862,13.50953 c -8.4052,-4.30285 -17.56857,-7.08155 -26.9453,-8.18349 0.0122,-0.37395 0.0302,-0.74728 0.0371,-1.1233 17.95058,-0.86294 36.01579,-2.55639 54.25004,-5.02691 m -16.5021,4.17199 c 26.45398,-0.61736 51.52024,-1.16167 75.42376,-2.77026 m -9.92878,-4.47171 c 28.24426,-0.0335 57.41863,1.26952 86.19642,3.80506 m -22.03447,2.35156 c 27.04699,1.02068 56.69554,0.52592 85.96909,0.77081 m -20.82439,-3.91136 c 32.15248,1.39932 63.93421,1.51853 95.00332,4.25497 m -22.13962,-2.04415 c 30.72904,1.0059 62.30519,-0.80363 91.79316,-2.69731 m -29.97504,1.82205 c 25.7111,0.12607 50.96311,-0.29791 77.15604,-1.06181 m -14.20957,4.22553 c 26.89026,-0.74204 51.95227,-0.74594 77.37617,-1.34293 m -9.46748,2.88187 c 18.41248,-0.74725 36.43689,-0.50837 54.23086,0.044 -10e-6,1e-5 -0.002,0.003 -0.002,0.003 12.37449,0.38496 23.44636,5.98157 31.2889,14.68553 0.5722,0.63505 1.12726,1.28667 1.66442,1.95407 m 9.67052,557.29012 0,160.85938 m -74.84945,-738.42948 58.14032,0 M 437.71342,585.69474 409.8987,519.19612 m 25.72936,-271.88414 -48.37415,-53.39352 m 572.10229,173.60849 0,169.53125"
       id="rect4272"
       inkscape:path-effect="#path-effect4374"
       inkscape:original-d="m 913.57691,196.7484 c 25.36155,0 45.77929,20.4177 45.77929,45.77929 l 0,878.95701 c 0,25.3616 -20.41774,45.7793 -45.77929,45.7793 l -578.95704,0 c -25.3616,0 -45.77929,-20.4177 -45.77929,-45.7793 l 0,-537.69333 0.71093,0 a 69.946564,69.946564 0 0 0 69.72461,65.48242 69.946564,69.946564 0 0 0 69.94727,-69.94727 69.946564,69.946564 0 0 0 -23.17188,-51.89648 69.946564,69.946564 0 0 0 23.3418,-52.06055 69.946564,69.946564 0 0 0 -22.97656,-51.72656 69.946564,69.946564 0 0 0 22.8418,-51.5957 69.946564,69.946564 0 0 0 -23.4375,-52.12891 69.886574,69.886574 0 0 0 23.71484,-52.38281 69.886574,69.886574 0 0 0 -65.02734,-69.71485 c 0.009,-0.35725 0.0237,-0.71366 0.0273,-1.07226 l 549.04102,0 z"
       inkscape:connector-curvature="0" />
    <path
       style="fill:none;fill-opacity:1;stroke:#000000;stroke-width:4;stroke-linecap:round;stroke-linejoin:miter;stroke-miterlimit:4;stroke-dasharray:none;stroke-dashoffset:0;stroke-opacity:1"
       id="path5711-9-2-3-3-4-4"
       r="22.973518"
       cy="553.55682"
       cx="944.66028"
       d=""
       inkscape:connector-curvature="0" />
  </g>
</svg>
