<?xml version="1.0" encoding="UTF-8" standalone="no"?>
<!-- Created with Inkscape (http://www.inkscape.org/) -->

<svg
   xmlns:dc="http://purl.org/dc/elements/1.1/"
   xmlns:cc="http://creativecommons.org/ns#"
   xmlns:rdf="http://www.w3.org/1999/02/22-rdf-syntax-ns#"
   xmlns:svg="http://www.w3.org/2000/svg"
   xmlns="http://www.w3.org/2000/svg"
   xmlns:sodipodi="http://sodipodi.sourceforge.net/DTD/sodipodi-0.dtd"
   xmlns:inkscape="http://www.inkscape.org/namespaces/inkscape"
   width="40.492954mm"
   height="37.755108mm"
   viewBox="0 0 143.47897 133.77794"
   id="svg4831"
   version="1.1"
   inkscape:version="0.91 r13725"
   sodipodi:docname="bug_big.svg">
  <defs
     id="defs4833">
    <inkscape:path-effect
       effect="sketch"
       id="path-effect4384"
       is_visible="true"
       nbiter_approxstrokes="5"
       strokelength="100"
       strokelength_rdm="0.3;1"
       strokeoverlap="0.3"
       strokeoverlap_rdm="0.3;1"
       ends_tolerance="0.1;1"
       parallel_offset="5;1"
       tremble_size="5;1"
       tremble_frequency="1"
       nbtangents="5"
       tgt_places_rdmness="1;1"
       tgtscale="10"
       tgtlength="100"
       tgtlength_rdm="0.3;1" />
  </defs>
  <sodipodi:namedview
     id="base"
     pagecolor="#ffffff"
     bordercolor="#666666"
     borderopacity="1.0"
     inkscape:pageopacity="0.0"
     inkscape:pageshadow="2"
     inkscape:zoom="1.979899"
     inkscape:cx="24.398329"
     inkscape:cy="10.625633"
     inkscape:document-units="px"
     inkscape:current-layer="layer1"
     showgrid="false"
     fit-margin-top="0"
     fit-margin-left="0"
     fit-margin-right="0"
     fit-margin-bottom="0"
     inkscape:window-width="1440"
     inkscape:window-height="897"
     inkscape:window-x="-8"
     inkscape:window-y="-8"
     inkscape:window-maximized="1" />
  <metadata
     id="metadata4836">
    <rdf:RDF>
      <cc:Work
         rdf:about="">
        <dc:format>image/svg+xml</dc:format>
        <dc:type
           rdf:resource="http://purl.org/dc/dcmitype/StillImage" />
        <dc:title />
      </cc:Work>
    </rdf:RDF>
  </metadata>
  <g
     inkscape:label="Layer 1"
     inkscape:groupmode="layer"
     id="layer1"
     transform="translate(263.17482,280.3066)">
    <circle
       style="fill:#ffaaaa;fill-opacity:1;stroke:#aa0000;stroke-width:3.86417413;stroke-linecap:round;stroke-linejoin:miter;stroke-miterlimit:4;stroke-dasharray:none;stroke-dashoffset:0;stroke-opacity:1"
       id="path5711-9-2-5-0-3"
       cx="183.00409"
       cy="-213.79312"
       r="52.925869"
       transform="scale(-1,1)" />
    <circle
       style="fill:none;fill-opacity:1;stroke:#d40000;stroke-width:6;stroke-linecap:round;stroke-linejoin:miter;stroke-miterlimit:4;stroke-dasharray:none;stroke-dashoffset:0;stroke-opacity:1"
       id="path5711-9-2-5-09"
       cx="182.52448"
       cy="-213.88464"
       r="54.993256"
       transform="scale(-1,1)" />
    <path
       transform="matrix(-1,0,0,1,706.51984,-585.29826)"
       style="fill:none;fill-opacity:1;stroke:#000000;stroke-width:1;stroke-linecap:round;stroke-linejoin:miter;stroke-miterlimit:4;stroke-dasharray:none;stroke-dashoffset:0;stroke-opacity:1"
       id="path5711-9-2-7"
       inkscape:path-effect="#path-effect4384"
       sodipodi:type="arc"
       sodipodi:cx="888.93744"
       sodipodi:cy="371.72055"
       sodipodi:rx="58.058224"
       sodipodi:ry="58.058224"
       d="m 949.67687,386.12066 c -1.90267,26.86208 -25.47878,49.00294 -54.24684,51.27274 m 17.60343,-14.78782 c -7.42243,3.00203 -15.27505,4.56813 -23.11505,4.57743 -16.1136,0.0191 -31.08255,-6.54072 -41.31247,-18.19933 m 5.34393,15.59889 c -17.70087,-10.9581 -27.70478,-29.94838 -27.21717,-50.72685 0.13108,-5.58603 1.01914,-11.17699 2.62677,-16.63069 m 3.39885,19.24789 c 0.007,-0.20953 0.0161,-0.41915 0.0258,-0.62883 0.68953,-14.90301 6.96686,-29.49391 17.98111,-40.24116 11.00277,-10.73606 25.82828,-16.73526 41.65377,-16.30189 1.10716,0.0303 2.216,0.0921 3.32541,0.1854 m -34.59865,-4.14239 c 7.08367,-3.39263 14.99294,-5.18976 23.18433,-5.32494 21.34693,-0.3523 42.2202,10.50509 55.09148,27.76361 m -14.45325,-9.82191 c 13.18847,11.54341 21.62844,27.39582 22.7918,43.50663 0.54432,7.53808 -0.53902,14.80543 -3.16644,21.28816 m -2.81298,-10.6074 c -4.91711,25.4542 -24.01359,44.85546 -47.52054,47.45009 m 20.93057,-8.35305 c -7.14984,3.10414 -15.03188,4.80606 -23.13775,4.99482 -15.96331,0.37174 -31.68283,-5.13387 -43.71304,-15.13631 m 10.53069,10.36125 c -16.85196,-10.15257 -27.7242,-29.51934 -28.24915,-50.90711 -0.28262,-11.51427 2.45224,-22.94639 7.93362,-33.03933 m -5.25247,22.6459 c 2.98427,-27.75427 29.00223,-49.7062 60.13317,-48.02745 2.43645,0.13139 4.87482,0.40816 7.30245,0.83133 m -29.40601,3.37469 c 6.01236,-1.7415 12.1659,-2.62467 18.28266,-2.60801 22.37484,0.061 41.89754,12.12279 51.48984,31.40399 m -16.98047,-21.20409 c 12.35412,11.37237 18.95297,26.4529 18.72824,41.88322 -0.20298,13.93729 -5.96634,27.11213 -15.88615,36.95792 m 13.31826,-22.80415 c -3.11963,28.9562 -27.44253,51.71086 -54.75573,56.28775 -0.27549,0.0462 -0.55083,0.0904 -0.826,0.13271 m 24.39535,-10.71885 c -6.57272,2.60499 -13.44424,4.07316 -20.35295,4.397 -18.67758,0.87547 -36.10927,-6.642 -47.99746,-19.20181 m 13.82607,5.27833 c -14.60003,-11.47298 -23.61195,-28.65443 -24.41115,-46.88807 -0.36491,-8.32549 1.00312,-16.52829 3.9808,-24.08942 m -4.28988,20.72972 c 2.71128,-28.60415 28.92924,-50.83685 60.58234,-49.48686 2.42583,0.10346 4.85451,0.34611 7.27402,0.7283 m -25.41074,1.02435 c 5.9708,-1.79492 12.16149,-2.76692 18.36688,-2.86802 27.58395,-0.44938 50.80709,16.27372 56.65968,39.6183 m -14.00036,-24.10112 c 8.89705,10.80682 13.85702,24.42985 14.05488,38.70964 0.28158,20.3227 -9.05944,39.59045 -24.61913,52.40561 m 23.70352,-53.37301 c -0.65017,28.78873 -20.95359,51.86179 -46.69248,54.17756 m 7.40832,3.20856 c -7.91246,4.03493 -16.74225,6.10448 -25.65191,5.97326 -20.52225,-0.30223 -39.22759,-12.24214 -47.15129,-31.75672 m 16.37205,18.98256 c -14.02388,-11.20982 -22.45698,-28.48326 -22.68004,-47.08821 -0.17304,-14.43347 4.61107,-28.54101 13.51385,-39.99862 m -8.90574,24.62694 c 5.82547,-26.85708 29.95759,-43.74772 57.67319,-42.43974 7.53262,0.35549 15.02824,2.04849 22.1066,4.96885 m -31.36809,-1.95784 c 2.44128,-0.35347 4.8989,-0.56217 7.35854,-0.626 14.78,-0.38356 28.94832,4.47436 39.72687,13.26388 10.76723,8.7803 17.29655,20.79551 18.29436,33.02209 m -13.87373,-17.9083 c 5.02207,8.79265 7.77307,18.85994 7.92228,29.1479 0.34123,23.52813 -12.90442,44.8256 -33.58136,53.6159 m 37.06443,-57.92892 c -0.84294,15.08327 -7.50453,29.08491 -18.41357,39.70856 -10.92841,10.64251 -25.29997,17.12604 -40.21001,18.84977 -1.22061,0.14112 -2.44068,0.24989 -3.65849,0.32663 m 27.55027,-1.18237 c -6.57797,2.37307 -13.50706,3.62072 -20.4916,3.68554 -17.47118,0.16213 -34.00573,-7.07083 -45.54744,-19.65973 m 14.31006,13.05459 c -15.2376,-11.43591 -24.37067,-29.17851 -24.15621,-48.11719 0.12049,-10.64048 3.19862,-21.06852 8.96586,-30.23237 m -10.64957,22.11673 c 2.94917,-25.12386 23.41835,-45.44215 48.50897,-49.37778 m -16.95796,6.15512 c 7.43377,-3.14941 15.54257,-4.90537 23.82548,-5.13434 20.77251,-0.57422 40.32093,8.47406 52.09961,23.58521 m -19.77872,-22.548 c 13.69036,10.43622 22.0934,27.63989 22.56113,46.27714 0.41213,16.42209 -5.3628,32.46295 -16.05604,44.45853 m -97.02855,-68.79537 53.2665,-37.5145 m 49.24129,14.93718 23.44753,60.78545 m -59.09452,-75.72263 53.2665,37.5145 m -2.2748,61.76131 -55.88191,33.49432 m -61.49364,-36.85786 3.19681,-65.07256" />
    <circle
       style="fill:none;fill-opacity:1;stroke:#800000;stroke-width:2;stroke-linecap:round;stroke-linejoin:miter;stroke-miterlimit:4;stroke-dasharray:none;stroke-dashoffset:0;stroke-opacity:1"
       id="path5711-9-2-1-2"
       cx="182.55878"
       cy="-213.51105"
       r="56.037373"
       transform="scale(-1,1)" />
    <circle
       style="fill:#ffd5d5;fill-opacity:1;stroke:#aa0000;stroke-width:1.39697123;stroke-linecap:round;stroke-linejoin:miter;stroke-miterlimit:4;stroke-dasharray:none;stroke-dashoffset:0;stroke-opacity:1"
       id="path5711-9-2-5-0-9-4-0-2"
       cx="238.27901"
       cy="-233.17612"
       r="19.133692"
       transform="scale(-1,1)" />
    <path
       style="fill:#000000"
       inkscape:connector-curvature="0"
       d="m -237.90951,-248.94785 c 7.1564,0 10.7835,3.69711 11.5748,7.646 0.4533,2.26209 -0.026,4.61476 -1.416,6.45336 -0.5149,-0.72343 -1.2734,-1.27933 -2.1938,-1.52591 -2.1036,-0.56351 -4.2329,0.62404 -4.8642,2.43492 l -0.102,0.29227 0.1655,0.26151 c 3.1874,5.03806 4.498,9.47884 1.8809,15.37178 l -2.1751,-3.58117 c 0.8791,-3.32356 0.8768,-6.94828 -0.5516,-10.25516 l -1.1769,0.50835 c 1.9373,4.48539 0.966,9.7851 -1.3013,13.79504 -2.377,-4.18311 -2.8996,-9.76505 -1.4692,-13.7877 l -1.2081,-0.42946 c -1.0809,3.03988 -1.1652,6.73629 -0.2886,10.21648 l -2.1462,3.53355 c -2.617,-5.8928 -1.3065,-10.33358 1.8809,-15.37157 l 0.1655,-0.26152 -0.102,-0.29226 c -0.513,-1.47135 -2.0147,-2.5313 -3.6883,-2.57473 -0.3862,-0.01 -0.7814,0.0343 -1.1759,0.13995 -0.7394,0.19814 -1.3736,0.59638 -1.8617,1.12018 -1.0613,-1.7405 -1.4627,-3.88645 -1.1159,-5.96484 0.6667,-3.9945 4.0168,-7.729 11.1693,-7.729 z m 6.9874,13.72286 c 0.035,4.2e-4 0.071,0.002 0.1069,0.004 0.1793,0.01 0.3596,0.0375 0.539,0.0855 1.4341,0.38418 2.2757,1.84189 1.8914,3.27601 -0.3683,1.37415 -1.7225,2.19191 -3.0968,1.92092 -0.5262,-1.28414 -1.2062,-2.55415 -1.9953,-3.82869 0.4243,-0.81454 1.4526,-1.47328 2.5547,-1.45744 z m -14.2011,0 c 1.102,-0.0158 2.1303,0.64282 2.5545,1.45745 -0.7889,1.27453 -1.469,2.54454 -1.9951,3.82861 -1.3743,0.27127 -2.7285,-0.5465 -3.0969,-1.92079 -0.3842,-1.43411 0.4573,-2.89169 1.8915,-3.27609 0.1794,-0.0481 0.3597,-0.0758 0.539,-0.0856 0.036,-0.002 0.071,-0.003 0.1069,-0.004 z m 16.0191,6.15453 c 0.9543,2.68806 1.3687,5.55451 1.3019,8.20608 -0.867,-0.70231 -1.6891,-1.50155 -2.4549,-2.36857 0.096,-1.85577 -0.1784,-3.62988 -0.7405,-5.36723 0.6696,0.004 1.3193,-0.16369 1.8935,-0.47042 z m -17.79,0.025 c 0.5625,0.29089 1.1948,0.44936 1.8461,0.44539 -0.5683,1.75655 -0.8431,3.55049 -0.7378,5.42848 -0.7507,0.84343 -1.5548,1.62148 -2.4013,2.30718 -0.067,-2.64334 0.345,-5.50019 1.2929,-8.18112 z"
       id="path4274" />
    <circle
       style="fill:none;fill-opacity:1;stroke:#ff8080;stroke-width:6;stroke-linecap:round;stroke-linejoin:miter;stroke-miterlimit:4;stroke-dasharray:none;stroke-dashoffset:0;stroke-opacity:1"
       id="path5711-9-2-5-06-5-6-8"
       cx="238.17853"
       cy="-233.21231"
       r="21.760715"
       transform="scale(-1,1)" />
    <circle
       style="fill:none;fill-opacity:1;stroke:#000000;stroke-width:4;stroke-linecap:round;stroke-linejoin:miter;stroke-miterlimit:4;stroke-dasharray:none;stroke-dashoffset:0;stroke-opacity:1"
       id="path5711-9-2-3-3-4-9"
       cx="238.20129"
       cy="-233.08536"
       r="22.973518"
       transform="scale(-1,1)" />
    <circle
       style="fill:none;fill-opacity:1;stroke:#d40000;stroke-width:1.96147132;stroke-linecap:round;stroke-linejoin:miter;stroke-miterlimit:4;stroke-dasharray:none;stroke-dashoffset:0;stroke-opacity:1"
       id="path5711-9-2-1-3-4-0-8"
       cx="238.19208"
       cy="-233.06448"
       r="21.746706"
       transform="scale(-1,1)" />
  </g>
</svg>
