<?xml version="1.0" encoding="UTF-8" standalone="no"?>
<!-- Created with Inkscape (http://www.inkscape.org/) -->

<svg
   xmlns:dc="http://purl.org/dc/elements/1.1/"
   xmlns:cc="http://creativecommons.org/ns#"
   xmlns:rdf="http://www.w3.org/1999/02/22-rdf-syntax-ns#"
   xmlns:svg="http://www.w3.org/2000/svg"
   xmlns="http://www.w3.org/2000/svg"
   xmlns:sodipodi="http://sodipodi.sourceforge.net/DTD/sodipodi-0.dtd"
   xmlns:inkscape="http://www.inkscape.org/namespaces/inkscape"
   width="41.188538mm"
   height="37.755108mm"
   viewBox="0 0 145.94364 133.77794"
   id="svg5443"
   version="1.1"
   inkscape:version="0.91 r13725"
   sodipodi:docname="infinite_big.svg">
  <defs
     id="defs5445">
    <inkscape:path-effect
       effect="sketch"
       id="path-effect4380"
       is_visible="true"
       nbiter_approxstrokes="5"
       strokelength="100"
       strokelength_rdm="0.3;1"
       strokeoverlap="0.3"
       strokeoverlap_rdm="0.3;1"
       ends_tolerance="0.1;1"
       parallel_offset="5;1"
       tremble_size="5;1"
       tremble_frequency="1"
       nbtangents="5"
       tgt_places_rdmness="1;1"
       tgtscale="10"
       tgtlength="100"
       tgtlength_rdm="0.3;1" />
    <inkscape:path-effect
       effect="sketch"
       id="path-effect4380-1"
       is_visible="true"
       nbiter_approxstrokes="5"
       strokelength="100"
       strokelength_rdm="0.3;1"
       strokeoverlap="0.3"
       strokeoverlap_rdm="0.3;1"
       ends_tolerance="0.1;1"
       parallel_offset="5;1"
       tremble_size="5;1"
       tremble_frequency="1"
       nbtangents="5"
       tgt_places_rdmness="1;1"
       tgtscale="10"
       tgtlength="100"
       tgtlength_rdm="0.3;1" />
  </defs>
  <sodipodi:namedview
     id="base"
     pagecolor="#ffffff"
     bordercolor="#666666"
     borderopacity="1.0"
     inkscape:pageopacity="0.0"
     inkscape:pageshadow="2"
     inkscape:zoom="2.8"
     inkscape:cx="-29.005582"
     inkscape:cy="82.989075"
     inkscape:document-units="px"
     inkscape:current-layer="layer1"
     showgrid="false"
     fit-margin-top="0"
     fit-margin-left="0"
     fit-margin-right="0"
     fit-margin-bottom="0"
     inkscape:window-width="1440"
     inkscape:window-height="897"
     inkscape:window-x="-8"
     inkscape:window-y="-8"
     inkscape:window-maximized="1" />
  <metadata
     id="metadata5448">
    <rdf:RDF>
      <cc:Work
         rdf:about="">
        <dc:format>image/svg+xml</dc:format>
        <dc:type
           rdf:resource="http://purl.org/dc/dcmitype/StillImage" />
        <dc:title />
      </cc:Work>
    </rdf:RDF>
  </metadata>
  <g
     inkscape:label="Layer 1"
     inkscape:groupmode="layer"
     id="layer1"
     transform="translate(-136.83185,-334.30362)">
    <circle
       style="fill:#e3d7f4;fill-opacity:1;stroke:#7f2aff;stroke-width:3.86417413;stroke-linecap:round;stroke-linejoin:miter;stroke-miterlimit:4;stroke-dasharray:none;stroke-dashoffset:0;stroke-opacity:1"
       id="path5711-9-2-5-0-3-7"
       cx="-217.57304"
       cy="403.00256"
       r="52.925869"
       transform="scale(-1,1)" />
    <circle
       style="fill:none;fill-opacity:1;stroke:#b380ff;stroke-width:6;stroke-linecap:round;stroke-linejoin:miter;stroke-miterlimit:4;stroke-dasharray:none;stroke-dashoffset:0;stroke-opacity:1"
       id="path5711-9-2-5-09-5"
       cx="-217.6738"
       cy="402.91104"
       r="54.993256"
       transform="scale(-1,1)" />
    <circle
       transform="scale(-1,1)"
       style="fill:none;fill-opacity:1;stroke:#000000;stroke-width:1;stroke-linecap:round;stroke-linejoin:miter;stroke-miterlimit:4;stroke-dasharray:none;stroke-dashoffset:0;stroke-opacity:1"
       id="path5711-9-2-7-4"
       cx="-218.21727"
       cy="403.0325"
       r="58.058224" />
    <circle
       style="fill:none;fill-opacity:1;stroke:#6600ff;stroke-width:2;stroke-linecap:round;stroke-linejoin:miter;stroke-miterlimit:4;stroke-dasharray:none;stroke-dashoffset:0;stroke-opacity:1"
       id="path5711-9-2-1-2-4"
       cx="-218.01834"
       cy="403.28464"
       r="56.037373"
       transform="scale(-1,1)" />
    <path
       transform="matrix(-1,0,0,1,1106.6054,-74.299053)"
       style="fill:none;fill-opacity:1;stroke:#000000;stroke-width:1;stroke-linecap:round;stroke-linejoin:miter;stroke-miterlimit:4;stroke-dasharray:none;stroke-dashoffset:0;stroke-opacity:1"
       id="path5711-9-2-7-4-3"
       inkscape:path-effect="#path-effect4380-1"
       sodipodi:type="arc"
       sodipodi:cx="888.93726"
       sodipodi:cy="475.64911"
       sodipodi:rx="58.058224"
       sodipodi:ry="58.058224"
       d="m 949.67668,490.04922 c -1.90266,26.86208 -25.47877,49.00294 -54.24683,51.27274 m 17.60343,-14.78783 c -7.42243,3.00204 -15.27505,4.56814 -23.11505,4.57744 -16.1136,0.0191 -31.08255,-6.54072 -41.31248,-18.19934 m 5.34394,15.59889 c -17.70087,-10.95809 -27.70478,-29.94837 -27.21718,-50.72684 0.13109,-5.58604 1.01915,-11.17699 2.62677,-16.63069 m 3.39885,19.24789 c 0.007,-0.20953 0.0161,-0.41915 0.0258,-0.62883 0.68952,-14.90301 6.96686,-29.49391 17.9811,-40.24116 11.00277,-10.73606 25.82829,-16.73526 41.65378,-16.30189 1.10716,0.0303 2.21599,0.0921 3.32541,0.1854 m -34.59866,-4.14239 c 7.08368,-3.39263 14.99294,-5.18976 23.18434,-5.32495 21.34693,-0.35229 42.2202,10.5051 55.09147,27.76362 m -14.45325,-9.82191 c 13.18848,11.54341 21.62845,27.39582 22.79181,43.50663 0.54432,7.53808 -0.53903,14.80543 -3.16644,21.28816 m -2.81298,-10.6074 c -4.91711,25.4542 -24.0136,44.85545 -47.52054,47.45009 m 20.93056,-8.35305 c -7.14984,3.10414 -15.03188,4.80606 -23.13775,4.99482 -15.96331,0.37174 -31.68282,-5.13387 -43.71303,-15.13632 m 10.53068,10.36126 c -16.85195,-10.15257 -27.72419,-29.51935 -28.24915,-50.90711 -0.28261,-11.51427 2.45225,-22.94639 7.93362,-33.03933 m -5.25246,22.6459 c 2.98427,-27.75427 29.00222,-49.7062 60.13316,-48.02745 2.43646,0.13138 4.87483,0.40816 7.30246,0.83133 m -29.40601,3.37469 c 6.01235,-1.7415 12.1659,-2.62467 18.28266,-2.60801 22.37484,0.0609 41.89753,12.12279 51.48984,31.40399 m -16.98047,-21.20409 c 12.35411,11.37237 18.95297,26.4529 18.72824,41.88322 -0.20299,13.93729 -5.96634,27.11213 -15.88616,36.95792 m 13.31827,-22.80415 c -3.11963,28.9562 -27.44254,51.71086 -54.75573,56.28775 -0.27549,0.0462 -0.55083,0.0904 -0.826,0.13271 m 24.39534,-10.71885 c -6.57271,2.60499 -13.44423,4.07316 -20.35294,4.39699 -18.67759,0.87548 -36.10928,-6.64199 -47.99747,-19.2018 m 13.82608,5.27833 c -14.60004,-11.47298 -23.61195,-28.65443 -24.41115,-46.88807 -0.36492,-8.3255 1.00312,-16.52829 3.9808,-24.08942 m -4.28989,20.72971 c 2.71128,-28.60414 28.92925,-50.83684 60.58234,-49.48685 2.42584,0.10346 4.85451,0.34611 7.27403,0.72829 m -25.41074,1.02436 c 5.97079,-1.79493 12.16149,-2.76692 18.36688,-2.86802 27.58394,-0.44938 50.80709,16.27372 56.65967,39.6183 m -14.00036,-24.10112 c 8.89705,10.80681 13.85703,24.42985 14.05488,38.70964 0.28159,20.3227 -9.05944,39.59045 -24.61913,52.40561 m 23.70353,-53.37301 c -0.65017,28.78873 -20.95359,51.86178 -46.69248,54.17756 m 7.40831,3.20856 c -7.91245,4.03493 -16.74224,6.10448 -25.6519,5.97326 -20.52226,-0.30223 -39.22759,-12.24215 -47.15129,-31.75672 m 16.37205,18.98256 c -14.02388,-11.20983 -22.45698,-28.48326 -22.68004,-47.08821 -0.17305,-14.43347 4.61107,-28.54101 13.51385,-39.99863 m -8.90574,24.62695 c 5.82547,-26.85708 29.95759,-43.74773 57.67319,-42.43974 7.53261,0.35548 15.02823,2.04849 22.1066,4.96885 m -31.3681,-1.95784 c 2.44129,-0.35347 4.8989,-0.56217 7.35855,-0.626 14.78,-0.38356 28.94832,4.47436 39.72686,13.26388 10.76724,8.7803 17.29656,20.79551 18.29437,33.02209 m -13.87374,-17.90831 c 5.02208,8.79266 7.77308,18.85995 7.92229,29.14791 0.34122,23.52813 -12.90442,44.8256 -33.58136,53.6159 m 37.06443,-57.92892 c -0.84294,15.08327 -7.50453,29.08491 -18.41357,39.70856 -10.92841,10.64251 -25.29997,17.12604 -40.21001,18.84977 -1.22061,0.14112 -2.44068,0.24988 -3.65849,0.32663 m 27.55027,-1.18237 c -6.57797,2.37306 -13.50706,3.62072 -20.49161,3.68553 -17.47117,0.16214 -34.00572,-7.07082 -45.54743,-19.65972 m 14.31006,13.05459 c -15.2376,-11.43591 -24.37068,-29.17851 -24.15621,-48.11719 0.12049,-10.64049 3.19862,-21.06852 8.96586,-30.23237 m -10.64958,22.11672 c 2.94917,-25.12385 23.41835,-45.44214 48.50897,-49.37777 m -16.95795,6.15512 c 7.43377,-3.14941 15.54256,-4.90537 23.82547,-5.13434 20.77252,-0.57422 40.32093,8.47406 52.09962,23.58521 m -19.77873,-22.548 c 13.69037,10.43622 22.09341,27.63989 22.56113,46.27714 0.41214,16.42209 -5.3628,32.46295 -16.05603,44.45853 m -97.02856,-68.79537 53.26651,-37.5145 m 49.24128,14.93718 23.44754,60.78545 m -59.09452,-75.72263 53.2665,37.5145 m -2.27481,61.7613 -55.88191,33.49433 m -61.49363,-36.85786 3.19681,-65.07256" />
    <circle
       style="fill:#e3d7f4;fill-opacity:1;stroke:#7137c8;stroke-width:1.40326047;stroke-linecap:round;stroke-linejoin:miter;stroke-miterlimit:4;stroke-dasharray:none;stroke-dashoffset:0;stroke-opacity:1"
       id="path5711-9-2-5-0-9"
       cx="-164.77202"
       cy="436.68726"
       r="19.219835"
       transform="scale(-1,1)" />
    <circle
       style="fill:none;fill-opacity:1;stroke:#b380ff;stroke-width:6;stroke-linecap:round;stroke-linejoin:miter;stroke-miterlimit:4;stroke-dasharray:none;stroke-dashoffset:0;stroke-opacity:1"
       id="path5711-9-2-5-06"
       cx="-164.78319"
       cy="436.74033"
       r="21.760715"
       transform="scale(-1,1)" />
    <circle
       style="fill:none;fill-opacity:1;stroke:#000000;stroke-width:4;stroke-linecap:round;stroke-linejoin:miter;stroke-miterlimit:4;stroke-dasharray:none;stroke-dashoffset:0;stroke-opacity:1"
       id="path5711-9-2-3"
       cx="-164.76042"
       cy="436.86728"
       r="22.973518"
       transform="scale(-1,1)" />
    <circle
       style="fill:none;fill-opacity:1;stroke:#7f2aff;stroke-width:1.96147132;stroke-linecap:round;stroke-linejoin:miter;stroke-miterlimit:4;stroke-dasharray:none;stroke-dashoffset:0;stroke-opacity:1"
       id="path5711-9-2-1-3"
       cx="-164.76964"
       cy="436.88815"
       r="21.746706"
       transform="scale(-1,1)" />
    <text
       xml:space="preserve"
       style="font-style:normal;font-weight:normal;font-size:22.12509727px;line-height:125%;font-family:sans-serif;letter-spacing:0px;word-spacing:0px;fill:#000000;fill-opacity:1;stroke:none;stroke-width:1px;stroke-linecap:butt;stroke-linejoin:miter;stroke-opacity:1"
       x="421.30389"
       y="191.3934"
       id="text4187-1"
       sodipodi:linespacing="125%"
       transform="matrix(-0.02471217,0.99969461,0.99969461,0.02471217,0,0)"><tspan
         sodipodi:role="line"
         id="tspan4189-5"
         x="421.30389"
         y="191.3934"
         style="font-style:normal;font-variant:normal;font-weight:normal;font-stretch:normal;font-size:38.71892166px;font-family:'KG Second Chances Sketch';-inkscape-font-specification:'KG Second Chances Sketch'">8</tspan></text>
  </g>
</svg>
