<?xml version="1.0" encoding="UTF-8" standalone="no"?>
<!-- Created with Inkscape (http://www.inkscape.org/) -->

<svg
   xmlns:dc="http://purl.org/dc/elements/1.1/"
   xmlns:cc="http://creativecommons.org/ns#"
   xmlns:rdf="http://www.w3.org/1999/02/22-rdf-syntax-ns#"
   xmlns:svg="http://www.w3.org/2000/svg"
   xmlns="http://www.w3.org/2000/svg"
   xmlns:sodipodi="http://sodipodi.sourceforge.net/DTD/sodipodi-0.dtd"
   xmlns:inkscape="http://www.inkscape.org/namespaces/inkscape"
   width="14.096164mm"
   height="14.096164mm"
   viewBox="0 0 49.947036 49.947036"
   id="svg4831"
   version="1.1"
   inkscape:version="0.91 r13725"
   sodipodi:docname="small_protect.svg">
  <defs
     id="defs4833">
    <inkscape:path-effect
       effect="sketch"
       id="path-effect4384"
       is_visible="true"
       nbiter_approxstrokes="5"
       strokelength="100"
       strokelength_rdm="0.3;1"
       strokeoverlap="0.3"
       strokeoverlap_rdm="0.3;1"
       ends_tolerance="0.1;1"
       parallel_offset="5;1"
       tremble_size="5;1"
       tremble_frequency="1"
       nbtangents="5"
       tgt_places_rdmness="1;1"
       tgtscale="10"
       tgtlength="100"
       tgtlength_rdm="0.3;1" />
  </defs>
  <sodipodi:namedview
     id="base"
     pagecolor="#ffffff"
     bordercolor="#666666"
     borderopacity="1.0"
     inkscape:pageopacity="0.0"
     inkscape:pageshadow="2"
     inkscape:zoom="5.6"
     inkscape:cx="43.731677"
     inkscape:cy="8.9976727"
     inkscape:document-units="px"
     inkscape:current-layer="layer1"
     showgrid="false"
     fit-margin-top="0"
     fit-margin-left="0"
     fit-margin-right="0"
     fit-margin-bottom="0"
     inkscape:window-width="1440"
     inkscape:window-height="897"
     inkscape:window-x="-8"
     inkscape:window-y="-8"
     inkscape:window-maximized="1" />
  <metadata
     id="metadata4836">
    <rdf:RDF>
      <cc:Work
         rdf:about="">
        <dc:format>image/svg+xml</dc:format>
        <dc:type
           rdf:resource="http://purl.org/dc/dcmitype/StillImage" />
        <dc:title />
      </cc:Work>
    </rdf:RDF>
  </metadata>
  <g
     inkscape:label="Layer 1"
     inkscape:groupmode="layer"
     id="layer1"
     transform="translate(263.17481,258.05888)">
    <circle
       style="fill:#aee5a9;fill-opacity:1;stroke:#c9ffbe;stroke-width:1.39697123;stroke-linecap:round;stroke-linejoin:miter;stroke-miterlimit:4;stroke-dasharray:none;stroke-dashoffset:0;stroke-opacity:1"
       id="path5711-9-2-5-0-9-4-0-2"
       cx="238.27901"
       cy="-233.17612"
       r="19.133692"
       transform="scale(-1,1)" />
    <circle
       style="fill:none;fill-opacity:1;stroke:#166f00;stroke-width:6;stroke-linecap:round;stroke-linejoin:miter;stroke-miterlimit:4;stroke-dasharray:none;stroke-dashoffset:0;stroke-opacity:1"
       id="path5711-9-2-5-06-5-6-8"
       cx="238.17853"
       cy="-233.21231"
       r="21.760715"
       transform="scale(-1,1)" />
    <circle
       style="fill:none;fill-opacity:1;stroke:#000000;stroke-width:4;stroke-linecap:round;stroke-linejoin:miter;stroke-miterlimit:4;stroke-dasharray:none;stroke-dashoffset:0;stroke-opacity:1"
       id="path5711-9-2-3-3-4-9"
       cx="238.20129"
       cy="-233.08536"
       r="22.973518"
       transform="scale(-1,1)" />
    <circle
       style="fill:none;fill-opacity:1;stroke:#0a500a;stroke-width:1.96147132;stroke-linecap:round;stroke-linejoin:miter;stroke-miterlimit:4;stroke-dasharray:none;stroke-dashoffset:0;stroke-opacity:1"
       id="path5711-9-2-1-3-4-0-8"
       cx="238.19208"
       cy="-233.06448"
       r="21.746706"
       transform="scale(-1,1)" />
    <path
       inkscape:connector-curvature="0"
       style="fill:#000000;fill-rule:evenodd"
       d="m -250.43544,-244.58419 0,0.6126 c 0,5.86191 0.59827,11.70814 2.34725,16.45003 1.74881,4.74206 4.70229,8.41415 9.34799,9.69076 l 0.12432,0.0356 0.12783,-0.0284 c 5.09563,-1.08633 8.08622,-4.77417 9.72622,-9.56469 1.64001,-4.79047 2.01164,-10.71874 2.01164,-16.58326 l 0,-0.61249 -0.60538,0.0869 c -7.49208,1.06621 -14.98093,1.06883 -22.47256,0 l -0.60737,-0.0869 z m 1.07064,1.21439 c 3.59318,0.48499 7.18699,0.7268 10.7809,0.72623 l 0,10.48443 9.93036,0 c -0.27868,1.56654 -0.64259,3.05371 -1.11314,4.4281 -1.55381,4.53871 -4.1906,7.80258 -8.81546,8.83857 -4.5e-4,-1.7e-4 -7.8e-4,1.7e-4 -0.002,0 l 0,-13.26661 -9.71395,0 c -0.73123,-3.46523 -1.03843,-7.31851 -1.06702,-11.2106 z"
       id="path6" />
  </g>
</svg>
