<?xml version="1.0" encoding="UTF-8" standalone="no"?>
<!-- Created with Inkscape (http://www.inkscape.org/) -->

<svg
   xmlns:dc="http://purl.org/dc/elements/1.1/"
   xmlns:cc="http://creativecommons.org/ns#"
   xmlns:rdf="http://www.w3.org/1999/02/22-rdf-syntax-ns#"
   xmlns:svg="http://www.w3.org/2000/svg"
   xmlns="http://www.w3.org/2000/svg"
   xmlns:sodipodi="http://sodipodi.sourceforge.net/DTD/sodipodi-0.dtd"
   xmlns:inkscape="http://www.inkscape.org/namespaces/inkscape"
   width="14.096164mm"
   height="14.096164mm"
   viewBox="0 0 49.947037 49.947037"
   id="svg4156"
   version="1.1"
   inkscape:version="0.91 r13725"
   sodipodi:docname="small_bug.svg">
  <defs
     id="defs4158" />
  <sodipodi:namedview
     id="base"
     pagecolor="#ffffff"
     bordercolor="#666666"
     borderopacity="1.0"
     inkscape:pageopacity="0.0"
     inkscape:pageshadow="2"
     inkscape:zoom="5.6"
     inkscape:cx="74.822917"
     inkscape:cy="0.43100062"
     inkscape:document-units="px"
     inkscape:current-layer="layer1"
     showgrid="false"
     fit-margin-top="0"
     fit-margin-left="0"
     fit-margin-right="0"
     fit-margin-bottom="0"
     inkscape:window-width="1440"
     inkscape:window-height="897"
     inkscape:window-x="-8"
     inkscape:window-y="-8"
     inkscape:window-maximized="1" />
  <metadata
     id="metadata4161">
    <rdf:RDF>
      <cc:Work
         rdf:about="">
        <dc:format>image/svg+xml</dc:format>
        <dc:type
           rdf:resource="http://purl.org/dc/dcmitype/StillImage" />
        <dc:title></dc:title>
      </cc:Work>
    </rdf:RDF>
  </metadata>
  <g
     inkscape:label="Ebene 1"
     inkscape:groupmode="layer"
     id="layer1"
     transform="translate(170.6878,269.75417)">
    <circle
       style="fill:#ffd5d5;fill-opacity:1;stroke:#aa0000;stroke-width:1.39697123;stroke-linecap:round;stroke-linejoin:miter;stroke-miterlimit:4;stroke-dasharray:none;stroke-dashoffset:0;stroke-opacity:1"
       id="path5711-9-2-5-0-9-4-0-2"
       cx="145.79199"
       cy="-244.87141"
       r="19.133692"
       transform="scale(-1,1)" />
    <path
       style="fill:#000000"
       inkscape:connector-curvature="0"
       d="m -145.4225,-260.64314 c 7.1564,0 10.7835,3.69711 11.5748,7.646 0.4533,2.26209 -0.026,4.61476 -1.416,6.45336 -0.5149,-0.72343 -1.2734,-1.27933 -2.1938,-1.52591 -2.1036,-0.56351 -4.2329,0.62404 -4.8642,2.43492 l -0.102,0.29227 0.1655,0.26151 c 3.1874,5.03806 4.498,9.47884 1.8809,15.37178 l -2.1751,-3.58117 c 0.8791,-3.32356 0.8768,-6.94828 -0.5516,-10.25516 l -1.1769,0.50835 c 1.9373,4.48539 0.966,9.7851 -1.3013,13.79504 -2.377,-4.18311 -2.8996,-9.76505 -1.4692,-13.7877 l -1.2081,-0.42946 c -1.0809,3.03988 -1.1652,6.73629 -0.2886,10.21648 l -2.1462,3.53355 c -2.617,-5.8928 -1.3065,-10.33358 1.8809,-15.37157 l 0.1655,-0.26152 -0.102,-0.29226 c -0.513,-1.47135 -2.0147,-2.5313 -3.6883,-2.57473 -0.3862,-0.01 -0.7814,0.0343 -1.1759,0.13995 -0.7394,0.19814 -1.3736,0.59638 -1.8617,1.12018 -1.0613,-1.7405 -1.4627,-3.88645 -1.1159,-5.96484 0.6667,-3.9945 4.0168,-7.729 11.1693,-7.729 z m 6.9874,13.72286 c 0.035,4.2e-4 0.071,0.002 0.1069,0.004 0.1793,0.01 0.3596,0.0375 0.539,0.0855 1.4341,0.38418 2.2757,1.84189 1.8914,3.27601 -0.3683,1.37415 -1.7225,2.19191 -3.0968,1.92092 -0.5262,-1.28414 -1.2062,-2.55415 -1.9953,-3.82869 0.4243,-0.81454 1.4526,-1.47328 2.5547,-1.45744 z m -14.2011,0 c 1.102,-0.0158 2.1303,0.64282 2.5545,1.45745 -0.7889,1.27453 -1.469,2.54454 -1.9951,3.82861 -1.3743,0.27127 -2.7285,-0.5465 -3.0969,-1.92079 -0.3842,-1.43411 0.4573,-2.89169 1.8915,-3.27609 0.1794,-0.0481 0.3597,-0.0758 0.539,-0.0856 0.036,-0.002 0.071,-0.003 0.1069,-0.004 z m 16.0191,6.15453 c 0.9543,2.68806 1.3687,5.55451 1.3019,8.20608 -0.867,-0.70231 -1.6891,-1.50155 -2.4549,-2.36857 0.096,-1.85577 -0.1784,-3.62988 -0.7405,-5.36723 0.6696,0.004 1.3193,-0.16369 1.8935,-0.47042 z m -17.79,0.025 c 0.5625,0.29089 1.1948,0.44936 1.8461,0.44539 -0.5683,1.75655 -0.8431,3.55049 -0.7378,5.42848 -0.7507,0.84343 -1.5548,1.62148 -2.4013,2.30718 -0.067,-2.64334 0.345,-5.50019 1.2929,-8.18112 z"
       id="path4274" />
    <circle
       style="fill:none;fill-opacity:1;stroke:#ff8080;stroke-width:6;stroke-linecap:round;stroke-linejoin:miter;stroke-miterlimit:4;stroke-dasharray:none;stroke-dashoffset:0;stroke-opacity:1"
       id="path5711-9-2-5-06-5-6-8"
       cx="145.69151"
       cy="-244.90761"
       r="21.760715"
       transform="scale(-1,1)" />
    <circle
       style="fill:none;fill-opacity:1;stroke:#000000;stroke-width:4;stroke-linecap:round;stroke-linejoin:miter;stroke-miterlimit:4;stroke-dasharray:none;stroke-dashoffset:0;stroke-opacity:1"
       id="path5711-9-2-3-3-4-9"
       cx="145.71428"
       cy="-244.78065"
       r="22.973518"
       transform="scale(-1,1)" />
    <circle
       style="fill:none;fill-opacity:1;stroke:#d40000;stroke-width:1.96147132;stroke-linecap:round;stroke-linejoin:miter;stroke-miterlimit:4;stroke-dasharray:none;stroke-dashoffset:0;stroke-opacity:1"
       id="path5711-9-2-1-3-4-0-8"
       cx="145.70506"
       cy="-244.75978"
       r="21.746706"
       transform="scale(-1,1)" />
  </g>
</svg>
