<?xml version="1.0" encoding="UTF-8" standalone="no"?>
<!-- Created with Inkscape (http://www.inkscape.org/) -->

<svg
   xmlns:osb="http://www.openswatchbook.org/uri/2009/osb"
   xmlns:dc="http://purl.org/dc/elements/1.1/"
   xmlns:cc="http://creativecommons.org/ns#"
   xmlns:rdf="http://www.w3.org/1999/02/22-rdf-syntax-ns#"
   xmlns:svg="http://www.w3.org/2000/svg"
   xmlns="http://www.w3.org/2000/svg"
   xmlns:sodipodi="http://sodipodi.sourceforge.net/DTD/sodipodi-0.dtd"
   xmlns:inkscape="http://www.inkscape.org/namespaces/inkscape"
   width="233.67999mm"
   height="318.34668mm"
   viewBox="0 0 827.99997 1128"
   id="svg2"
   version="1.1"
   inkscape:version="0.91 r13725"
   sodipodi:docname="verso1.svg">
  <defs
     id="defs4">
    <inkscape:path-effect
       effect="sketch"
       id="path-effect4220"
       is_visible="true"
       nbiter_approxstrokes="5"
       strokelength="100"
       strokelength_rdm="0.3;1"
       strokeoverlap="0.3"
       strokeoverlap_rdm="0.3;1"
       ends_tolerance="0.1;1"
       parallel_offset="5;1"
       tremble_size="5;1"
       tremble_frequency="1"
       nbtangents="5"
       tgt_places_rdmness="1;1"
       tgtscale="10"
       tgtlength="100"
       tgtlength_rdm="0.3;1" />
    <inkscape:path-effect
       effect="sketch"
       id="path-effect4218"
       is_visible="true"
       nbiter_approxstrokes="5"
       strokelength="100"
       strokelength_rdm="0.3;1"
       strokeoverlap="0.3"
       strokeoverlap_rdm="0.3;1"
       ends_tolerance="0.1;1"
       parallel_offset="5;1"
       tremble_size="5;1"
       tremble_frequency="1"
       nbtangents="5"
       tgt_places_rdmness="1;1"
       tgtscale="10"
       tgtlength="100"
       tgtlength_rdm="0.3;1" />
    <inkscape:path-effect
       effect="sketch"
       id="path-effect4216"
       is_visible="true"
       nbiter_approxstrokes="5"
       strokelength="100"
       strokelength_rdm="0.3;1"
       strokeoverlap="0.3"
       strokeoverlap_rdm="0.3;1"
       ends_tolerance="0.1;1"
       parallel_offset="5;1"
       tremble_size="5;1"
       tremble_frequency="1"
       nbtangents="5"
       tgt_places_rdmness="1;1"
       tgtscale="10"
       tgtlength="100"
       tgtlength_rdm="0.3;1" />
    <inkscape:path-effect
       effect="sketch"
       id="path-effect4384"
       is_visible="true"
       nbiter_approxstrokes="5"
       strokelength="100"
       strokelength_rdm="0.3;1"
       strokeoverlap="0.3"
       strokeoverlap_rdm="0.3;1"
       ends_tolerance="0.1;1"
       parallel_offset="5;1"
       tremble_size="5;1"
       tremble_frequency="1"
       nbtangents="5"
       tgt_places_rdmness="1;1"
       tgtscale="10"
       tgtlength="100"
       tgtlength_rdm="0.3;1" />
    <inkscape:path-effect
       effect="sketch"
       id="path-effect4382"
       is_visible="true"
       nbiter_approxstrokes="5"
       strokelength="100"
       strokelength_rdm="0.3;1"
       strokeoverlap="0.3"
       strokeoverlap_rdm="0.3;1"
       ends_tolerance="0.1;1"
       parallel_offset="5;1"
       tremble_size="5;1"
       tremble_frequency="1"
       nbtangents="5"
       tgt_places_rdmness="1;1"
       tgtscale="10"
       tgtlength="100"
       tgtlength_rdm="0.3;1" />
    <inkscape:path-effect
       effect="sketch"
       id="path-effect4380"
       is_visible="true"
       nbiter_approxstrokes="5"
       strokelength="100"
       strokelength_rdm="0.3;1"
       strokeoverlap="0.3"
       strokeoverlap_rdm="0.3;1"
       ends_tolerance="0.1;1"
       parallel_offset="5;1"
       tremble_size="5;1"
       tremble_frequency="1"
       nbtangents="5"
       tgt_places_rdmness="1;1"
       tgtscale="10"
       tgtlength="100"
       tgtlength_rdm="0.3;1" />
    <inkscape:path-effect
       effect="sketch"
       id="path-effect4376"
       is_visible="true"
       nbiter_approxstrokes="5"
       strokelength="100"
       strokelength_rdm="0.3;1"
       strokeoverlap="0.3"
       strokeoverlap_rdm="0.3;1"
       ends_tolerance="0.1;1"
       parallel_offset="5;1"
       tremble_size="5;1"
       tremble_frequency="1"
       nbtangents="5"
       tgt_places_rdmness="1;1"
       tgtscale="10"
       tgtlength="100"
       tgtlength_rdm="0.3;1" />
    <inkscape:path-effect
       effect="sketch"
       id="path-effect4374"
       is_visible="true"
       nbiter_approxstrokes="5"
       strokelength="100"
       strokelength_rdm="0.3;1"
       strokeoverlap="0.3"
       strokeoverlap_rdm="0.5;1"
       ends_tolerance="0.1;1"
       parallel_offset="3;1"
       tremble_size="5;1"
       tremble_frequency="1"
       nbtangents="5"
       tgt_places_rdmness="1;523070426"
       tgtscale="10"
       tgtlength="100"
       tgtlength_rdm="0.3;1" />
    <linearGradient
       id="linearGradient5674"
       osb:paint="solid">
      <stop
         style="stop-color:#ff0000;stop-opacity:1;"
         offset="0"
         id="stop5676" />
    </linearGradient>
    <inkscape:path-effect
       tgtlength_rdm="0.3;1"
       tgtlength="100"
       tgtscale="10"
       tgt_places_rdmness="1;1"
       nbtangents="5"
       tremble_frequency="1"
       tremble_size="5;1"
       parallel_offset="5;1"
       ends_tolerance="0.1;1"
       strokeoverlap_rdm="0.3;1"
       strokeoverlap="0.3"
       strokelength_rdm="0.3;1"
       strokelength="100"
       nbiter_approxstrokes="5"
       is_visible="true"
       id="path-effect4220-6-0"
       effect="sketch" />
  </defs>
  <sodipodi:namedview
     id="base"
     pagecolor="#ffffff"
     bordercolor="#666666"
     borderopacity="1.0"
     inkscape:pageopacity="0.0"
     inkscape:pageshadow="2"
     inkscape:zoom="0.35"
     inkscape:cx="58.372931"
     inkscape:cy="517.64302"
     inkscape:document-units="px"
     inkscape:current-layer="layer1"
     showgrid="false"
     fit-margin-top="0"
     fit-margin-left="0"
     fit-margin-right="0"
     fit-margin-bottom="0"
     inkscape:window-width="1440"
     inkscape:window-height="897"
     inkscape:window-x="-8"
     inkscape:window-y="-8"
     inkscape:window-maximized="1" />
  <metadata
     id="metadata7">
    <rdf:RDF>
      <cc:Work
         rdf:about="">
        <dc:format>image/svg+xml</dc:format>
        <dc:type
           rdf:resource="http://purl.org/dc/dcmitype/StillImage" />
        <dc:title></dc:title>
      </cc:Work>
    </rdf:RDF>
  </metadata>
  <g
     inkscape:label="Layer 1"
     inkscape:groupmode="layer"
     id="layer1"
     transform="translate(-211.79457,-116.50621)">
    <path
       style="fill:none;fill-opacity:1;stroke:#000000;stroke-width:4;stroke-linecap:round;stroke-linejoin:miter;stroke-miterlimit:4;stroke-dasharray:none;stroke-dashoffset:0;stroke-opacity:1"
       id="path5711-9-2-3-3-4-4"
       r="22.973518"
       cy="553.55682"
       cx="944.66028"
       d=""
       inkscape:connector-curvature="0" />
    <g
       transform="matrix(0.89596317,0,0,0.93718498,583.75011,-408.53)"
       id="layer1-3"
       inkscape:label="Layer 1">
      <path
         cx="944.66028"
         cy="553.55682"
         r="22.973518"
         id="path5711-9-2-3-3-4-4-1"
         style="fill:none;fill-opacity:1;stroke:#000000;stroke-width:4;stroke-linecap:round;stroke-linejoin:miter;stroke-miterlimit:4;stroke-dasharray:none;stroke-dashoffset:0;stroke-opacity:1"
         d=""
         inkscape:connector-curvature="0" />
      <rect
         style="opacity:0;fill:#0027a2;fill-opacity:1;stroke:#000175;stroke-opacity:1"
         id="rect4806"
         width="672.76166"
         height="969.7464"
         x="-282.54276"
         y="679.27435" />
      <text
         xml:space="preserve"
         style="font-style:normal;font-weight:normal;font-size:40px;line-height:125%;font-family:sans-serif;letter-spacing:0px;word-spacing:0px;fill:#000000;fill-opacity:1;stroke:none;stroke-width:1px;stroke-linecap:butt;stroke-linejoin:miter;stroke-opacity:1"
         x="-195.66965"
         y="834.83783"
         id="text4816"
         sodipodi:linespacing="125%"><tspan
           sodipodi:role="line"
           id="tspan4818"
           x="-195.66965"
           y="834.83783" /></text>
      <rect
         style="opacity:0;fill:#203dae;fill-opacity:1;stroke:#505051;stroke-linejoin:round;stroke-opacity:1"
         id="rect4173"
         width="668.72101"
         height="977.82764"
         x="-282.54276"
         y="679.27435" />
      <rect
         style="opacity:1;fill:#a6d3f9;fill-opacity:1;stroke:#7777b9;stroke-width:7.80000019;stroke-linecap:butt;stroke-linejoin:round;stroke-miterlimit:4;stroke-dasharray:none;stroke-opacity:1"
         id="rect4175"
         width="670.74127"
         height="967.72607"
         x="-282.54276"
         y="681.29468"
         rx="35.714287"
         ry="35.714287" />
    </g>
    <rect
       style="opacity:1;fill:#a6d3f9;fill-opacity:1;stroke:#010076;stroke-width:7.04900885;stroke-linejoin:round;stroke-miterlimit:4;stroke-dasharray:none;stroke-opacity:1"
       id="rect4175-5"
       width="591.23938"
       height="896.62531"
       x="335.45322"
       y="234.63866"
       rx="28.158842"
       ry="29.454386" />
    <path
       inkscape:original-d="m 365.83753,225.73764 c -22.92192,0 -41.37555,19.22328 -41.37555,43.10125 l 0,827.53871 c 0,23.878 18.45363,43.1011 41.37555,43.1011 l 523.26405,0 c 22.92195,0 41.37556,-19.2231 41.37556,-43.1011 2.33013,-206.66518 6.70467,-741.10107 1.48826,-823.02245 0.60845,-26.97259 -33.86229,-49.42158 -69.877,-46.60794 -34.70229,-2.71395 -0.0217,-0.67185 -0.0244,-1.00957 l -496.2258,0 z"
       inkscape:path-effect="#path-effect4220-6-0"
       id="rect4272-0"
       d="m 362.38946,234.15137 c -8.45625,1.14096 -16.21848,5.3556 -22.25615,11.59405 -7.48663,7.7356 -12.33766,18.59024 -12.71228,30.65512 -0.21497,6.92343 -0.46335,13.85525 -0.7071,20.76575 m -1.1584,-29.59855 c -0.47619,23.51771 0.22999,47.78764 1.36273,72.20062 m -6.48015,-9.71849 c -1.0773,24.42951 -0.38444,48.70941 0.30472,72.15372 m 5.59461,-13.91353 c 1.44799,32.75707 0.69208,64.03358 1.70315,96.71051 m -8.14922,-36.01814 c -0.84915,27.56001 1.32941,55.72039 4.73603,82.95395 m -0.51729,-15.095 c -0.79693,26.23793 0.70791,49.86803 3.11913,72.16468 m -7.22068,-13.61759 c -0.72882,24.90548 0.58136,49.53101 2.69777,73.88543 m 4.84179,-20.69832 c 0.47515,23.18317 -0.44305,47.57513 -2.06512,72.84832 m -1.02075,-13.6232 c 0.82747,31.2916 -0.29253,60.39524 -1.21555,88.74455 m 3.20727,-26.64016 c -0.60368,31.72302 0.89553,62.0093 2.96391,94.3694 M 324.5406,820.4652 c 1.34785,27.79159 0.50952,54.76721 0.18708,81.70287 m -4.95272,-25.28743 c 1.42971,30.79803 0.19006,59.38489 -0.27131,87.65644 m -1.13504,-16.54801 c 1.05559,28.12625 1.22549,58.07313 2.73152,90.40913 m 3.83022,-28.2475 c -0.93792,25.7017 -1.25434,51.1133 -2.46009,78.1634 m 2.34334,-22.3075 c 0.0551,9.163 -0.0254,18.4673 -0.22712,27.8521 -0.25579,11.902 3.938,22.743 10.88179,30.6177 3.67777,4.1708 8.1235,7.5053 13.07603,9.7219 m -14.44497,-8.0233 c 0.34634,0.4143 0.70053,0.8213 1.06235,1.2208 7.32414,8.0873 17.75995,13.0972 29.53391,13.3344 19.63786,0.3956 39.89446,0.8308 60.45744,1.8309 m -25.73417,-1.4806 c 33.06814,0.6708 64.94636,-2.0121 97.4533,-6.1756 m -29.9987,1.1365 c 32.77144,0.7785 65.91826,1.7659 99.77104,5.2171 m -31.12667,-6.5844 c 27.54591,0.2459 56.16149,-0.514 86.18041,-1.7731 m -32.10854,9.1947 c 31.07333,-0.669 61.93058,-0.6909 95.07483,-1.7019 m -23.67824,0.5301 c 31.9155,-0.3692 62.79715,-1.0673 93.76338,-3.1067 m -23.36262,1.1141 c 31.72547,-1.6071 66.15071,0.6755 100.59567,2.1761 m -31.87289,1.4961 c 29.57528,-0.5188 59.04716,-2.48 88.58192,-7.0885 2.11716,-0.3303 4.19671,-0.8319 6.22744,-1.4946 m -32.93987,8.0754 c 6.7658,-0.073 13.61984,-0.1197 20.54571,-0.1505 11.52367,-0.051 22.09411,-4.861 29.91912,-12.6571 7.82627,-7.7975 12.89457,-18.5667 13.45883,-30.5457 0.23528,-4.0326 0.47895,-8.1133 0.73746,-12.3977 m -2.20943,19.9657 c 2.27156,-4.9397 3.53972,-10.4124 3.58672,-16.1559 0.43672,-21.8778 0.0284,-41.6661 -0.43184,-67.0975 m 3.6048,26.4421 c -0.17451,-19.7387 -0.22604,-47.5847 -0.69474,-70.07831 m 2.96568,18.02246 c 0.56409,-24.32047 1.05954,-61.06606 1.86836,-88.0717 m -3.04508,23.64025 c -0.73654,-25.35085 -0.4281,-47.46131 -0.81439,-75.48098 m -0.93332,18.45564 c 0.2055,-26.88979 1.23809,-56.77935 3.18188,-88.70749 m -5.9548,14.43948 c -0.48785,-34.01188 1.04917,-64.65523 2.51258,-95.87247 m -0.10198,37.41582 c -0.18739,-26.23384 0.92791,-54.15282 2.59359,-81.18509 m 9.46898,11.62667 c 0.19295,-12.28728 0.26565,-24.57966 0.27577,-36.77284 0.0127,-15.26188 -0.0733,-30.64781 -0.1486,-45.47879 m -3.36703,23.56785 c 0.74196,-31.34654 -1.13074,-61.12155 -3.68019,-88.21951 m 0.67435,17.35516 c -0.43407,-31.5245 0.15209,-66.17935 0.31293,-92.95853 m 4.83087,20.88623 c 1.07188,-24.48514 0.37762,-48.83687 -0.21384,-68.51307 -0.16542,-5.50319 -0.31812,-10.38556 -0.46384,-15.5271 m -9.84165,34.57673 c -0.0322,-2.13148 -0.0572,-4.25157 -0.0756,-6.35825 -0.26962,-30.99488 0.91172,-61.90689 1.81597,-83.7096 0.0312,-0.75136 0.0622,-1.4969 0.0932,-2.23577 m -0.62857,9.86169 c -0.44447,-8.63279 -0.71084,-16.73646 -0.89087,-23.97786 -0.26308,-10.58161 -0.39909,-22.34189 -0.51403,-29.7167 -0.11285,-7.23997 -0.23433,-12.9788 -0.42326,-17.80081 m 3.92386,26.30677 c -0.0245,-7.17888 -0.33212,-13.2651 -0.70482,-17.7952 0.0203,-6.81738 -2.31611,-13.37785 -6.49473,-19.3417 -4.18414,-5.97174 -10.22194,-11.35832 -17.63841,-15.86914 -11.37874,-6.92073 -25.98111,-11.76107 -41.84976,-13.43739 m 40.85495,12.61522 c -11.30246,-5.42207 -25.28886,-8.265 -39.5767,-7.09182 -4.26004,-0.32319 -7.54898,-0.58624 -9.86528,-0.78251 -2.3482,-0.19898 -3.82757,-0.34012 -4.63219,-0.43585 -0.40297,-0.0479 -0.63826,-0.0847 -0.73104,-0.11183 -0.0232,-0.007 -0.0375,-0.013 -0.0432,-0.0186 -0.006,-0.006 -0.003,-0.0107 0.008,-0.0151 0.0222,-0.009 0.0775,-0.0155 0.16276,-0.02 0.34104,-0.018 1.16153,-0.002 2.25625,0.0324 2.20518,0.0702 5.46157,0.21607 8.22274,0.32672 1.37141,0.0549 2.60998,0.1007 3.50232,0.12209 0.4467,0.0107 0.80757,0.0154 1.05674,0.012 0.12459,-0.002 0.22123,-0.005 0.28672,-0.0112 0.0327,-0.003 0.0577,-0.006 0.0745,-0.0105 0.0168,-0.004 0.0253,-0.009 0.0254,-0.014 -7.68272,0.0304 -15.3195,0.0775 -22.8641,0.1635 m 9.66261,-16.41279 c 1.06797,0.0495 2.02621,0.0913 2.75079,0.11492 0.44133,0.0144 0.79789,0.0222 1.04421,0.0211 0.12314,-5.6e-4 0.21866,-0.003 0.2834,-0.009 0.0324,-0.003 0.057,-0.006 0.0736,-0.01 0.0166,-0.004 0.025,-0.008 0.025,-0.0137 -22.90483,0.3001 -45.06018,1.1591 -66.47989,2.92625 m 16.66759,14.36914 c -30.81338,0.54344 -57.82016,-0.73538 -83.82248,-2.56924 m 18.25694,-5.28291 c -32.29331,-1.26492 -61.55723,1.15554 -89.99947,3.91839 m 29.18047,2.48825 c -25.48376,-0.0491 -50.479,-0.0129 -75.52073,-5.9e-4 m 15.28098,-4.45215 c -26.57721,0.9367 -51.83459,0.37271 -77.64714,-0.0152 m 13.98256,-0.92278 c -25.12836,-0.28199 -48.59422,-0.0434 -72.0576,0.24994 m 13.41115,5.21925 c -29.65939,0.95731 -58.04408,-0.61208 -85.44294,-2.47678 m 21.19784,-1.15636 c -23.74967,-0.009 -47.37297,0.20572 -70.77035,0.64868 0,0 0.001,0.002 0.001,0.002 -9.26859,0.17573 -17.7592,3.62942 -24.47998,9.35607 m 9.86591,-11.29855 c -7.47176,1.67427 -14.12469,5.65587 -19.2523,11.22693 -7.11651,7.73199 -11.32711,18.56669 -10.67235,30.57531 0.62621,11.48478 1.4372,22.99544 2.54803,34.45244 m 0.17362,-26.10592 c -0.0136,32.98245 -2.92912,66.16467 -8.78854,98.71578 m 8.43744,-27.05206 c 1.41576,30.457 -1.10363,60.80875 -3.80028,88.9015 m 4.15119,-29.15796 c -0.6074,29.97721 -0.51076,62.22417 -1.33241,93.78239 m 8.09055,-21.74378 c 0.38677,28.94582 0.47619,55.57277 1.07347,81.31879 m -8.88652,-23.67693 c -1.1772,26.90122 -0.16971,57.67471 0.52519,89.57819 m -7.94662,-14.10015 c 0.0819,26.46237 0.89663,52.63831 2.60488,79.08889 m 3.41075,-26.64799 c 0.10151,32.27235 -0.83634,64.5594 -2.53332,96.09024 m 5.4235,-22.94236 c -1.1071,27.5643 -0.049,55.12124 1.00615,83.74837 m -3.93568,-25.00213 c -0.69105,25.98467 0.99713,54.69752 3.70787,83.64895 m 6.01897,-25.24504 c 0.0611,25.80938 -1.83014,53.45402 -5.56189,82.02441 m -9.04717,-18.47614 c 1.01334,30.13189 2.02351,58.92987 5.50028,87.14979 m 4.14739,-26.81977 c -1.25916,28.64647 -1.41617,60.22867 -3.40582,93.24287 m -1.32007,-21.3594 c 0.36279,14.992 0.37332,29.7394 0.25118,44.2455 -0.0973,11.5572 4.3485,21.8355 11.6872,29.0238 3.74133,3.6646 8.23505,6.5253 13.25454,8.3304 m -16.66438,-15.7317 c 1.7064,2.9635 3.80279,5.7085 6.22542,8.165 7.44155,7.5456 17.93652,12.3532 29.73784,12.5037 11.30542,0.1441 22.76786,0.4159 34.32821,0.6692 m -21.05304,-7.4272 c 23.73096,-0.1047 48.4453,0.059 73.08576,0.3304 m -13.24643,9.8651 c 29.17431,0.6318 61.50062,0.7209 93.62723,1.8784 m -28.46547,-5.5504 c 23.98613,0.1043 49.63643,0.8206 76.57787,2.3299 m -11.92386,3.529 c 25.42767,-1.001 50.71404,-0.3806 75.47409,0.074 m -16.54131,-5.5431 c 24.71288,-1.0086 47.32958,-0.2915 69.10105,0.6008 m -22.08768,5.7672 c 27.28503,1.0433 54.09936,-0.1823 82.01363,-1.692 m -22.98523,-7.2927 c 26.18841,0.2406 51.55794,0.1578 77.01921,0.1956 m -12.98523,3.4372 c 29.77188,0.3122 59.94331,-0.4725 87.96523,-1.5885 1.62194,-0.065 3.21214,-0.2453 4.76339,-0.5353 m -22.28599,-6.1187 c 7.40046,-0.1697 15.06063,-0.2858 22.92226,-0.3765 11.6282,-0.1341 22.5027,-5.0092 30.75737,-12.9058 6.88834,-6.5894 11.94282,-15.2696 14.12302,-25.0535 m -6.89797,29.6568 c 4.94398,-7.3513 7.89351,-16.2849 7.99384,-25.9559 0.30652,-14.3073 0.74833,-30.0205 1.39861,-47.3843 m -9.92747,16.394 c -0.27071,-22.1135 -0.73124,-52.5971 -2.75988,-82.14802 m 9.24255,16.81192 c 1.18679,-30.00074 -1.09745,-57.49632 -5.62654,-87.318 m 2.01341,22.5418 c -1.00777,-31.63676 0.63687,-61.60204 1.86426,-98.29539 m -4.15632,29.93205 c 0.9449,-22.90612 0.56211,-46.52811 -0.0397,-71.07628 m -4.81229,20.33664 c 0.32412,-23.00234 1.57283,-46.8452 4.04252,-70.77766 m 1.33628,8.97225 c -0.92482,-23.48676 0.60018,-48.20555 2.87254,-72.96207 m 5.12288,17.96932 c -0.0501,-21.55175 -0.60574,-43.4681 -1.86818,-65.77023 -0.33512,-5.92017 -0.71932,-11.85462 -1.15579,-17.80425 m -9.24989,21.13487 c 0.007,-0.99742 0.0159,-1.9903 0.0261,-2.97876 0.35544,-34.32813 2.56758,-63.12936 6.55184,-90.9124 m 0.62699,26.66635 c -0.5603,-26.17256 0.2317,-50.66655 1.12304,-72.64045 m 5.59215,12.02146 c 1.22796,-25.21041 -0.15993,-48.0324 -1.96808,-68.21438 m -4.36553,18.36529 c -0.7312,-16.51974 -0.90316,-34.59919 -1.0644,-51.08156 -0.0811,-8.29129 -0.15606,-16.07467 -0.27752,-24.07955 m 2.85331,18.15475 c -0.2296,-30.08769 -1.21445,-55.72167 -2.54371,-77.1239 -0.0737,-1.1863 -0.1483,-2.35763 -0.22379,-3.51385 m -3.24507,14.06619 c 0.0455,-5.77162 0.0926,-11.04479 0.14843,-16.26417 0.12946,-12.11051 0.27799,-21.2963 0.44261,-30.41883 0.15446,-8.56002 0.29902,-15.71676 0.32871,-20.91052 0.26708,-2.9778 0.13787,-5.90699 -0.33948,-8.76574 m -2.37878,12.33194 c -0.2156,-3.08058 -0.39469,-5.68598 -0.57338,-8.04755 0.0847,-6.57502 -1.90894,-12.87073 -5.47397,-18.55572 -3.56044,-5.67766 -8.68376,-10.73592 -14.82346,-14.79826 -5.26148,-3.48126 -11.27825,-6.23709 -17.72299,-8.02487 m 14.82447,7.40366 c -12.49719,-7.23307 -27.70065,-10.97007 -42.74358,-9.64134 -4.20598,-0.32279 -7.05845,-0.54492 -9.37631,-0.73775 -2.2209,-0.18476 -3.60188,-0.31451 -4.36168,-0.40512 -0.37831,-0.0451 -0.59904,-0.0802 -0.68588,-0.10667 -0.0217,-0.007 -0.0351,-0.0127 -0.0403,-0.0183 -0.005,-0.006 -0.002,-0.0106 0.009,-0.015 0.0236,-0.009 0.0822,-0.015 0.17267,-0.0189 0.36184,-0.0157 1.23157,0.006 2.39491,0.048 2.31774,0.0846 5.83661,0.25524 8.76502,0.38171 1.28436,0.0555 2.45536,0.1025 3.37103,0.1309 m -11.35191,7.82679 c -1.05561,-0.0852 -1.81583,-0.15447 -2.32016,-0.20872 -0.4247,-0.0457 -0.67244,-0.0812 -0.77019,-0.10784 -0.0245,-0.007 -0.0395,-0.0128 -0.0457,-0.0184 -0.006,-0.006 -0.003,-0.0106 0.007,-0.015 0.021,-0.009 0.0735,-0.0151 0.15443,-0.0192 0.32402,-0.0163 1.10298,0.003 2.14786,0.0428 1.87199,0.0706 5.46358,0.24397 7.91287,0.34701 1.33221,0.0561 2.53364,0.10121 3.40631,0.12192 0.43564,0.0103 0.78811,0.0145 1.03149,0.0109 0.1217,-0.002 0.21615,-0.006 0.28014,-0.0116 0.032,-0.003 0.0564,-0.007 0.0728,-0.0106 0.0164,-0.004 0.0247,-0.009 0.0247,-0.014 -18.40856,0.0435 -35.83534,-0.0575 -53.07216,-0.15987 m 14.58504,-5.52435 c -29.5697,0.90704 -61.05503,0.57475 -93.94503,1.15554 m 33.55171,3.96119 c -23.65042,-0.34988 -46.80707,-0.87765 -69.60612,-2.13118 m 2.14201,3.06874 c -29.12563,-0.27293 -56.85219,-0.46981 -83.17562,-1.2326 m 19.18699,-8.64968 c -26.81061,1.13499 -51.78013,1.75557 -76.85643,3.9139 m 19.55588,5.46104 c -31.28812,1.15436 -59.37073,-0.21191 -86.98634,-1.27948 m 34.4525,-7.58855 c -24.1035,-1.12897 -49.38607,-0.16288 -75.1716,1.05526 m 13.02592,5.97676 c -29.15753,0.90769 -59.25845,-0.69632 -88.72116,-2.59869 0,0 4.9e-4,-0.006 4.9e-4,-0.006 -2.25248,-0.1455 -4.45756,-0.0999 -6.601,0.12261 m 28.8169,-3.10385 c -6.89182,-0.0463 -13.77807,0.0557 -20.64532,0.29935 0,0 0.001,0.004 0.001,0.004 -11.2519,0.40153 -21.37701,5.93808 -28.51587,14.75871 -5.54427,6.85039 -9.3113,15.70636 -10.41821,25.751 m 24.48901,-32.50583 c -8.36181,1.97211 -15.68744,6.23128 -21.31713,12.07884 -7.51961,7.81063 -11.99852,18.44635 -11.77567,30.15495 0.25306,13.29631 0.59203,26.50253 0.77774,39.82233 m -8.22391,-29.88962 c -0.72832,24.16083 -0.20973,48.53086 0.37606,72.49183 m 6.49957,-8.01443 c 1.09862,34.50737 0.37353,64.65231 1.1167,94.59691 m 3.25831,-37.14611 c 0.92014,26.25143 1.07262,55.21557 2.30739,84.54038 m 0.30995,-22.53848 c 1.41918,29.68863 0.55655,58.48367 0.688,87.81654 m -4.20417,-17.67367 c -0.15028,28.82862 -1.42867,57.083 -4.18106,83.0529 m 5.04042,-18.3774 c -0.16442,24.28459 -0.59884,45.80206 -1.5568,65.90284 m 0.0723,-11.35534 c -0.68461,32.17007 -0.80471,63.62189 -2.14526,96.67074 m 4.4889,-24.57197 c -0.89753,25.72423 -0.0813,53.3926 0.65511,80.40021 m -2.41247,-24.87412 c 0.38946,31.40791 0.81609,63.95703 2.33045,95.53638 m -6.93952,-24.59642 c 1.39025,33.1401 2.36136,64.7497 6.88621,97.03552 m -4.3866,-35.30372 c 0.0731,23.40484 -0.44191,47.21129 -1.41904,71.33337 m 7.74671,-9.81406 c -1.30491,31.61412 -1.90647,62.43062 -5.22701,93.43902 m 6.43802,-23.3956 c -0.62264,17.0343 -1.10126,34.8077 -1.96448,52.7396 -0.58198,12.0896 3.33067,23.0606 9.85687,30.9654 0.77859,0.9431 1.59435,1.8425 2.44408,2.6951 m -13.60897,-21.9521 c 2.04203,6.7227 5.56709,12.7673 10.15903,17.6691 7.28795,7.7799 17.24972,12.6607 28.12371,12.8019 6.04971,0.078 12.0388,0.1741 17.97136,0.2769 m -15.53619,-3.4505 c 25.63304,-0.051 53.1665,0.6462 81.56772,1.9758 m -23.75195,-4.9057 c 28.16171,-0.5632 56.58032,0.7906 84.98378,2.8107 m -20.73977,-0.662 c 27.3468,0.2059 56.55892,0.2086 86.83082,0.403 m -26.75955,-0.2082 c 24.5313,-1.2248 51.01538,0.3347 77.3355,2.4846 m -14.40975,0.8754 c 30.09721,0.5218 61.87805,1.0537 92.84803,2.9912 m -33.67417,-4.3193 c 30.99363,0.8034 64.57638,-1.6781 97.49836,-5.1633 m -23.00337,3.1318 c 34.23029,-0.1793 63.67465,-1.5147 92.6616,-4.4881 m -19.66342,6.6759 c 23.52639,0.6555 46.71717,1.0086 69.87581,2.0411 2.55708,0.114 5.05774,-0.01 7.48259,-0.3455 m -20.4167,-5.3676 c 3.34496,0.053 6.7067,0.094 10.08077,0.1235 11.11148,0.098 21.25692,-4.7279 28.5044,-12.5759 7.24356,-7.8438 11.62927,-18.7471 11.18243,-30.7971 -0.15,-5.7868 -0.3531,-11.8995 -0.6411,-18.1699 m -2.40709,33.0223 c 0.50607,-2.7378 0.76746,-5.6269 0.75675,-8.6404 0.19007,-24.0605 2.36586,-53.4308 6.93089,-90.8494 m 3.88545,31.4836 c 0.84501,-26.9426 -0.82751,-56.40136 -4.73961,-88.13951 m 4.74763,23.90896 c -0.59432,-24.7902 -0.88585,-57.93939 -2.72888,-88.92286 m -0.22798,29.59313 c -0.54944,-25.16488 -0.19676,-50.8222 -0.28333,-82.06171 m 2.12244,12.65671 c -0.79748,-26.13395 0.59995,-51.12392 2.39545,-75.2577 m -3.43986,19.44039 c 0.54517,-30.24339 1.48112,-61.34569 3.61928,-93.64487 m 0.11907,19.18347 c -1.1068,-25.29966 -0.31007,-50.23971 0.16657,-73.85061 m -3.91323,25.44508 c -0.0368,-9.30436 0.0943,-18.42905 0.37318,-27.45469 0.55897,-18.08962 1.71177,-35.77205 3.28616,-53.57512 m -6.64605,21.65626 c -0.48771,-25.0454 -0.30772,-51.22445 -0.37792,-74.75921 m 2.49683,16.96174 c -0.11372,-28.07796 1.049,-56.29339 2.87268,-84.57911 m -10.2273,11.49402 c 0.471,-26.40213 0.75903,-46.92827 1.58193,-68.14746 m 9.4384,19.28177 c 0.19024,-7.35787 0.36829,-15.20401 0.53318,-22.12056 0.48043,-20.15215 0.95125,-36.22325 1.85507,-51.90308 m -8.16593,11.866 c -0.0575,-17.46537 0.0767,-32.60441 0.29371,-46.09267 0.15986,-9.93709 0.35889,-18.62604 0.5386,-26.20788 m -8.16834,14.33942 c 0.13193,-7.11867 0.12518,-13.63824 0.0493,-19.24552 -0.11239,-8.30077 -0.38404,-15.24601 -0.69145,-20.12971 0.16803,-6.56696 -1.88702,-12.80649 -5.60991,-18.37471 -3.72531,-5.57184 -9.11364,-10.46284 -15.6083,-14.36204 -2.48373,-1.49115 -5.12715,-2.83601 -7.89807,-4.01787 m 24.50656,22.70064 c -3.10835,-3.65491 -7.01972,-7.01645 -11.56147,-9.97563 -12.96539,-8.44761 -31.20476,-13.68089 -50.18822,-12.75013 -4.51469,-0.44784 -8.08441,-0.81647 -10.53927,-1.08038 -2.51524,-0.2704 -4.10305,-0.45649 -4.96716,-0.57674 -0.43272,-0.0602 -0.68555,-0.10411 -0.78543,-0.1342 -0.025,-0.008 -0.0404,-0.0142 -0.0467,-0.02 -0.006,-0.006 -0.004,-0.011 0.006,-0.0158 0.0204,-0.01 0.0718,-0.0179 0.15088,-0.0249 0.31615,-0.0281 1.07772,-0.0368 2.09175,-0.0343 1.53142,0.004 3.61837,0.0334 5.64691,0.0614 m 14.43535,-12.78696 c -0.23861,0.0121 -0.47744,0.0257 -0.71651,0.0407 -3.98211,-0.40087 -7.46511,-0.68787 -9.60334,-0.86194 -2.37819,-0.19361 -3.69095,-0.29611 -4.55964,-0.38623 -0.3984,-0.0413 -0.63037,-0.0735 -0.72243,-0.099 -0.0229,-0.006 -0.037,-0.0123 -0.0427,-0.0178 -0.006,-0.005 -0.003,-0.0105 0.008,-0.0147 0.0224,-0.008 0.0783,-0.0141 0.16451,-0.0171 0.34406,-0.0117 1.17421,0.019 2.2765,0.0796 2.40117,0.1318 5.3098,0.35492 8.23734,0.59364 1.34899,0.11001 2.61344,0.21551 3.48093,0.27863 0.44315,0.0322 0.80018,0.0548 1.04713,0.064 0.12339,0.005 0.219,0.006 0.28385,0.003 0.0324,-0.001 0.0571,-0.003 0.0737,-0.007 0.0166,-0.003 0.025,-0.007 0.025,-0.0124 -14.06903,0.78701 -28.3904,2.23155 -42.62112,4.1785 m 23.36422,10.14493 c -26.57198,-0.0848 -55.2097,-0.5677 -84.82642,-1.63446 m 8.04777,-4.96746 c -27.12321,-1.08298 -53.90136,0.49334 -78.41957,2.43064 m 27.43146,-1.2193 c -28.70317,0.0458 -57.76677,-0.10456 -85.78815,-0.33205 m 23.35759,-4.74611 c -26.59946,-0.0606 -53.86824,0.85692 -82.98977,2.64305 m 14.33685,3.9977 c -24.84208,0.24683 -50.09725,0.0939 -75.01275,-0.0264 m 26.49483,-0.48167 c -33.51501,-0.33883 -66.08592,-0.87399 -101.63188,-2.54137 m 19.84347,3.83095 c -24.62597,0.97892 -47.46132,0.0365 -69.64026,-1.32582 m 19.64688,-5.62726 c -12.97687,0.58616 -25.57533,0.98247 -37.90959,1.44538 0,0 0.002,0.004 0.002,0.004 -11.10994,0.41733 -20.93985,5.65789 -27.77801,14.10105 -3.66448,4.52456 -6.47066,9.97104 -8.1472,16.09219 m 31.34029,-30.12512 c -10.7417,0.75222 -20.54071,5.58405 -27.90715,13.07208 -7.73628,7.86396 -12.74774,18.61264 -13.36183,30.56054 -0.60391,11.74963 -1.36605,23.52433 -2.25542,35.45185 0,0 -7.6e-4,0.0102 -7.6e-4,0.0102 m -3.78826,-29.57084 c 0.1306,26.74472 1.69242,54.56534 4.95292,81.29104 m -2.41384,-18.69949 c 0.17921,28.74598 1.09668,55.09073 3.17964,79.25017 m -5.28865,-20.23404 c 1.16812,27.58515 2.29671,56.0782 5.74907,85.78563 m 8.97753,-15.32678 c 1.2744,26.98475 -1.13324,53.79487 -4.66432,79.4892 m -0.76549,-24.26441 c 1.11361,32.56916 -0.80753,67.21557 -2.49476,103.27369 m -3.01349,-25.46181 c -0.30573,29.99451 -0.81602,63.52581 -2.37813,97.09859 m 1.08946,-38.82679 c 0.86437,29.4014 1.54803,58.46127 4.04853,86.94866 m 6.22506,-14.39945 c 1.48416,31.52359 -1.75668,65.35583 -5.38031,96.989 m 8.11384,-30.01379 c -0.99316,25.4316 -0.7177,50.72731 -0.82745,76.73194 m -6.32077,-16.72263 c -0.52091,29.24403 1.10129,57.11891 3.65897,82.65543 m 2.78606,-15.16006 c -1.40821,30.23749 -0.93285,60.02036 -2.13009,88.52176 m -9.00178,-28.15118 c 1.29904,27.12888 1.16193,54.54498 2.12536,82.38368 m -4.93814,-14.9824 c 0.33505,17.198 0.90361,33.1267 1.95507,48.308 0.76071,10.9833 6.31372,20.5393 14.98431,26.9638 1.76748,1.3096 3.6651,2.4893 5.67857,3.524 m -12.52409,-20.2969 c 2.12092,5.7891 5.37405,10.9563 9.48923,15.244 7.70905,8.0324 18.43696,12.9819 30.5144,13.1738 15.77761,0.2507 31.91399,0.56 48.45597,1.2424 m -26.50951,-3.4786 c 28.94722,1.3668 55.25317,-0.4272 81.33784,-2.545 m -27.22364,0.7474 c 29.88355,-0.6858 60.69168,1.1557 92.70375,3.8753 m -20.98215,-1.2185 c 27.80648,1.0018 53.81949,0.5494 79.59433,0.6407 m -14.44153,-1.8913 c 23.63319,-0.4544 47.70263,0.5906 72.01119,2.4189 m -26.28139,4.1827 c 28.24979,-0.5183 60.30967,0.4529 93.24022,1.667 m -30.88586,-6.4717 c 29.38052,-0.5139 62.16486,-1.0816 95.2331,-2.9757 m -22.66078,1.4913 c 29.11918,-0.6362 55.86407,0.5598 82.37886,2.23 m -13.42383,-3.753 c 21.57692,0.5225 43.26599,0.9606 64.61222,2.0037 5.34881,0.2614 10.42568,-0.5561 15.03082,-2.2385 m -20.1848,0.5078 c 1.33338,-0.034 2.67147,-0.065 4.01411,-0.094 11.27727,-0.247 21.71203,-5.1413 29.4991,-13.0002 7.78644,-7.8584 12.89465,-18.6441 13.59522,-30.6601 0.15005,-2.1587 0.30669,-4.3499 0.47027,-6.5831 m -0.59943,17.2153 c 0.97495,-3.4294 1.51481,-7.0685 1.56193,-10.8533 0.75476,-31.5199 0.46448,-44.0074 1.05141,-83.9432 m -9.53067,33.6818 c -0.35971,-27.4611 2.30024,-59.75399 7.66831,-96.15572 m -0.69006,27.48124 c 1.11561,-31.81519 -0.58771,-61.95694 -3.45123,-97.06123 m -0.0179,31.21551 c -1.37248,-31.38684 1.31476,-64.72312 3.45001,-99.9575 m -1.415,19.77981 c -0.53578,-28.21334 0.79663,-56.38695 2.36947,-84.5386 m -1.13951,31.52971 c 0.86349,-34.21617 0.42298,-63.60422 0.53114,-92.72476 m -0.93467,22.48967 c -0.23325,-21.75869 -0.41512,-42.42017 -0.9817,-62.97591 -0.22432,-8.13879 -0.50731,-16.19014 -0.87372,-24.20395 m -2.20128,18.64739 c -0.55957,-25.01519 0.40636,-49.18142 1.7304,-72.23964 m 6.95528,11.60754 c -0.52779,-33.55127 -2.29263,-67.51712 -6.63007,-99.41268 m -1.58868,36.72613 c 1.24316,-25.52345 1.29072,-64.23849 1.96138,-87.07697 m -0.111,20.17144 c 0.18624,-12.27695 0.38476,-29.23813 0.53106,-39.6796 0.15822,-11.29214 0.33287,-21.50062 0.57715,-31.56029 m -3.58228,19.56256 c -0.15896,-25.82413 -0.8233,-47.27674 -1.69665,-64.80895 -0.4035,-8.10025 -0.85282,-15.37747 -1.31692,-21.77682 m 2.54323,20.21738 c -0.0185,-0.28565 -0.0368,-0.57047 -0.0548,-0.85445 -0.68791,-10.85928 -1.02994,-21.36124 -1.26791,-29.34725 -0.25832,-8.66907 -0.40583,-14.68413 -0.65689,-20.04543 0.27296,-6.58243 -1.61547,-12.86787 -5.16252,-18.48578 -3.54584,-5.616 -8.75515,-10.57353 -15.1477,-14.48423 -1.44892,-0.88639 -2.95927,-1.71941 -4.52582,-2.49462 m 28.42274,23.55365 c -0.33624,-0.54142 -0.68601,-1.07888 -1.04893,-1.61219 -3.97272,-5.8379 -9.52208,-11.17783 -16.13011,-15.73131 -13.20347,-9.0983 -30.67304,-15.1004 -48.55121,-15.50066 -0.15269,-0.0274 -0.30405,-0.0547 -0.45407,-0.0817 m 15.66561,-5.09232 c -5.56307,-0.56419 -11.24184,-0.60358 -16.91287,-0.0283 -4.32803,-0.23096 -7.69358,-0.42271 -10.01873,-0.56523 -2.37579,-0.14562 -3.86472,-0.25168 -4.67762,-0.32851 -0.40643,-0.0384 -0.64348,-0.0695 -0.7371,-0.0944 -0.0234,-0.006 -0.0378,-0.012 -0.0436,-0.0175 -0.006,-0.005 -0.003,-0.0105 0.008,-0.0146 0.022,-0.008 0.0768,-0.0137 0.16148,-0.0162 0.33843,-0.0101 1.15264,0.0245 2.24003,0.0852 2.22824,0.12439 5.39085,0.34479 8.17768,0.5281 1.36348,0.0897 2.5996,0.16777 3.48633,0.21249 0.44469,0.0224 0.80386,0.0366 1.05192,0.0399 0.12402,0.002 0.2202,5.5e-4 0.2854,-0.004 0.0326,-0.002 0.0574,-0.005 0.0741,-0.009 0.0167,-0.004 0.0252,-0.008 0.0252,-0.0132 -16.97672,0.5303 -33.76928,1.26412 -50.74763,2.5627 m 30.6996,-1.29631 c -31.18413,0.45836 -61.61662,0.65513 -93.99483,1.73015 m 28.59894,-6.45664 c -31.40515,0.68537 -62.14433,1.70308 -95.11128,4.71735 m 26.41582,-0.10854 c -29.70985,-1.01335 -60.2668,-1.35778 -90.52888,-3.54539 m 20.72822,7.13989 c -24.80913,0.96015 -47.78822,0.30543 -70.68498,-0.49317 m 12.77359,-6.38194 c -30.75321,0.89517 -57.55453,0.67552 -83.57614,1.40689 m 18.18425,6.17069 C 489.38297,230.4344 463.3653,230.02936 438.739,228.49334 m 24.16343,-6.66189 c -25.75825,0.16442 -54.26065,0.43169 -84.46116,1.13416 m 23.53018,2.8896 c -10.98979,0.42544 -21.86677,0.74256 -32.62464,1.08957 0,0 0.002,0.003 0.002,0.003 -11.20385,0.36161 -21.19361,5.53003 -28.19381,13.85508 -1.29195,1.53647 -2.48198,3.18048 -3.55865,4.9216 m 20.83318,-28.10776 c -9.13945,1.07371 -17.48197,5.62258 -23.85257,12.47571 -7.49725,8.06513 -12.28338,19.33022 -12.53931,32.01897 -0.16932,8.39425 -0.36443,16.88275 -0.54416,25.44945 m 4.18035,-18.31631 c 1.25766,25.28505 0.7816,51.59597 0.89727,77.29102 m -5.85854,-15.84216 c 0.38698,25.65184 0.6647,51.7202 1.51544,78.65345 m -4.21042,-23.18723 c 1.56677,32.38198 0.6574,64.43346 1.66142,96.22369 m 0.25203,-23.71081 c -0.31908,23.02291 -0.0759,47.79775 0.21608,72.74575 m 12.9873,-15.4146 c 0.35165,28.20328 -1.33991,55.94351 -4.39424,85.00471 m 1.50354,-31.24754 c 0.12219,24.62536 -1.45119,49.10008 -4.52674,74.15311 M 324.501,629.0476 c -0.0973,23.77622 0.25308,49.07422 0.88037,73.93357 m -5.76289,-8.53325 c 0.80946,31.00461 -0.51928,65.85323 -1.65991,100.58039 m 10.99519,-32.54937 c -1.03039,24.43339 -1.88056,49.52043 -4.33934,73.64801 m -6.98865,-16.99539 c -0.82689,29.03065 -0.82187,59.15183 -2.01674,87.39394 m 11.97787,-18.69705 c -0.22154,28.30249 -0.49757,55.67312 -1.23584,84.64754 m -9.70152,-26.40916 c 0.16703,27.83335 0.75328,57.20677 2.12286,86.65857 m 7.01798,-21.6978 c 0.77258,28.463 0.58054,56.0213 1.04481,83.9173 m -1.20165,-19.2562 c -0.24714,8.0324 -0.36965,15.9278 -0.40927,23.7064 -0.0597,11.7265 4.67908,22.0854 12.30407,29.2924 7.62133,7.2035 18.17733,11.3013 29.77085,10.3924 1.15518,-0.091 2.30964,-0.1824 3.46328,-0.2754 m -28.19048,-6.2223 c 6.2219,4.0563 13.66389,6.5378 21.79185,6.9011 17.41108,0.7782 35.42008,2.3241 53.90621,4.714 m -18.70605,-5.7337 c 25.63301,1.2588 51.05003,0.039 75.93784,-1.4165 m -23.00383,1.6504 c 26.04657,0.031 54.0227,-1.5603 82.89597,-4.7147 m -16.02773,-3.6061 c 25.59654,-1.2703 52.82052,-0.042 79.12705,1.185 m -18.13918,2.2525 c 24.2748,-1.0516 49.4079,-0.709 73.84138,-0.752 m -8.95296,6.2208 c 31.86729,-1.3217 62.36933,0.05 92.92233,0.6079 m -30.57665,1.1892 c 24.86434,-0.4619 49.18594,-0.1448 72.42834,0.145 m -12.34532,0.012 c 30.12137,1.3467 61.41126,0.9417 91.39229,2.2924 m -29.36681,-3.9334 c 18.09664,0.1164 36.5942,-0.3692 54.98385,-1.3556 7.4694,-0.4007 14.44185,-2.9555 20.37599,-7.1456 m -7.43802,14.3902 c 9.7245,-0.5349 18.48049,-5.0681 24.90124,-12.1499 7.20124,-7.9426 11.52013,-19.1444 11.03647,-31.6856 -0.32857,-11.8002 -0.83751,-25.2255 -1.71414,-39.1327 m -4.21524,23.5549 c -0.78357,-23.1372 -0.0615,-43.9527 1.0995,-69.8848 m 0.62733,19.7615 c -0.0262,-28.9344 2.11655,-60.89689 6.56776,-95.47716 m -3.14125,25.86045 c 1.27589,-24.52645 0.0907,-47.59871 -2.30148,-72.07111 m 1.23373,12.06768 c 0.52742,-27.05173 -0.27346,-53.09316 -2.00874,-81.1195 m 2.80224,17.66293 c -1.0556,-24.587 -1.61757,-51.86344 -3.96373,-77.95839 m 6.81754,23.34729 c -1.27929,-32.433 -0.62379,-50.2642 -1.88118,-83.15062 m 1.18505,13.56855 c 1.40197,-25.63196 0.75739,-51.15635 0.2504,-76.39377 m 1.19781,26.51384 c 0.17476,-9.68232 0.31907,-19.12888 0.46025,-28.31571 0.24551,-15.97417 0.4806,-31.0625 0.8534,-46.27573 m -3.44844,6.75652 c 0.056,-33.61535 -0.36222,-61.90765 -1.30588,-88.11415 m 4.58382,26.34662 c 1.436,-28.66804 -1.52284,-59.03153 -5.03594,-86.40046 m 2.11854,23.0178 c 0.37587,-24.21095 0.002,-48.18306 -0.42939,-68.96847 -0.0163,-0.78688 -0.0328,-1.57148 -0.0494,-2.35334 m 2.1727,16.36759 c 0.0827,-4.3845 0.13937,-8.77149 0.17636,-13.13112 0.19545,-23.0366 -0.16731,-51.54785 -0.36756,-71.62601 m 0.29484,27.94582 c -0.47653,-12.601 -0.70157,-25.60633 -0.86327,-36.73022 -0.18959,-13.04161 -0.27465,-21.64588 -0.47745,-31.95298 -0.1463,-7.43574 -0.32145,-13.68127 -0.54412,-18.88527 m -2.67629,16.90012 c 0.009,-1.27939 0.0121,-2.52471 0.009,-3.73396 -0.0213,-8.3612 -0.32074,-15.27754 -0.67858,-20.16768 0.10187,-6.5505 -2.08396,-12.75745 -6.02051,-18.24161 -3.94058,-5.48977 -9.63437,-10.25576 -16.56311,-13.95216 -5.87015,-3.13165 -12.61346,-5.48839 -19.89457,-6.86904 m 23.93213,9.7587 c -0.52883,-0.37328 -1.06867,-0.74075 -1.61918,-1.10221 -12.32314,-8.0912 -30.193,-13.26123 -48.92664,-12.61671 -4.43208,-0.51329 -8.00637,-0.95914 -10.40986,-1.27229 -2.4754,-0.32252 -4.06773,-0.55028 -4.91124,-0.6896 -0.42778,-0.0707 -0.6781,-0.12088 -0.7767,-0.15345 -0.0247,-0.008 -0.0399,-0.0152 -0.0462,-0.0213 -0.006,-0.006 -0.004,-0.0112 0.007,-0.0164 0.0207,-0.0102 0.0728,-0.0199 0.15277,-0.0291 0.32014,-0.037 1.09101,-0.0669 2.11757,-0.0942 1.81799,-0.0483 5.3672,-0.10546 7.69349,-0.15703 1.28151,-0.0284 2.43379,-0.0591 3.2666,-0.0933 0.41619,-0.0171 0.75252,-0.035 0.98453,-0.0539 0.11602,-0.009 0.20607,-0.0192 0.26702,-0.0292 0.0305,-0.005 0.0537,-0.0101 0.0693,-0.0152 0.0155,-0.005 0.0236,-0.0104 0.0233,-0.0159 -2.63491,-0.14948 -5.2697,-0.30113 -7.90231,-0.4534 m 0.30397,-3.30377 c -0.60846,-0.0455 -1.07727,-0.0843 -1.42457,-0.11763 -0.40905,-0.0392 -0.64749,-0.0707 -0.74176,-0.0958 -0.0236,-0.006 -0.038,-0.0121 -0.0439,-0.0176 -0.006,-0.005 -0.003,-0.0105 0.008,-0.0147 0.0219,-0.008 0.0764,-0.0138 0.16048,-0.0165 0.33623,-0.0107 1.14566,0.0226 2.22661,0.0824 2.2624,0.12511 5.31382,0.3409 8.13684,0.53317 1.35618,0.0924 2.59169,0.17424 3.47397,0.22174 0.44337,0.0239 0.80148,0.0393 1.0489,0.0435 0.12369,0.002 0.21961,0.001 0.28464,-0.003 0.0325,-0.002 0.0573,-0.005 0.0739,-0.008 0.0166,-0.004 0.0251,-0.008 0.0251,-0.0131 -19.16377,0.66969 -37.90806,1.7878 -56.34394,3.79996 m 9.48709,0.0753 c -32.33723,0.42697 -64.10165,0.0507 -95.79358,0.10893 m 35.32284,-0.65576 c -30.69983,0.54822 -62.15849,0.16863 -94.84049,0.21078 m 29.91329,-1.30506 c -32.95976,-1.13465 -67.04354,-1.54357 -104.12978,-4.43561 m 25.42567,2.40494 c -31.50132,0.74019 -62.07889,2.14472 -91.50231,6.21101 m 23.4611,-1.32812 c -29.08997,0.9446 -60.33698,-0.97494 -90.90357,-3.44811 m 27.28526,5.98646 c -26.62148,-1.05552 -52.74885,-1.17787 -78.63831,-2.39684 m 14.90056,2.63155 c -18.17832,-0.13426 -37.69787,0.23442 -57.63622,0.9703 10e-6,-1e-5 -0.005,0.004 -0.005,0.004 -10.67325,0.39458 -20.53312,4.68981 -28.24642,11.59758 m 599.71641,532.85454 0.86056,-160.85707 m -321.30908,-387.34257 -143.51563,0 m 426.9804,0 -149.14062,0 m -422.76586,372.76908 0,190.15625 m 579.28961,356.79013 34.3289,-42.9156"
       style="fill:none;fill-opacity:1;stroke:#000000;stroke-width:0.9224602;stroke-linecap:round;stroke-linejoin:round;stroke-miterlimit:4;stroke-dasharray:none;stroke-dashoffset:0;stroke-opacity:1"
       inkscape:connector-curvature="0"
       sodipodi:nodetypes="ssssscccccs" />
    <path
       inkscape:connector-curvature="0"
       style="opacity:0;fill:#ffffff"
       d="m 396.18974,210.45814 475.2275,0 0,489.8191 -475.2275,0 z"
       id="path4237" />
    <path
       d="m 535.56134,289.29414 c -1.71063,0.088 -3.39992,0.42668 -4.96019,1.01695 l -96.26884,36.41212 c -4.16102,1.57374 -7.88301,5.12493 -9.74587,9.27021 -1.86286,4.14242 -2.07727,9.37354 -0.55134,13.66137 l 61.92808,173.99579 c 1.525,4.28783 4.96947,8.15472 8.99034,10.07382 4.02087,1.92101 9.09615,2.14296 13.25439,0.56922 l 96.2707,-36.41403 c 4.16102,-1.57277 7.88302,-5.123 9.74588,-9.26734 l 0.0278,-0.0603 c 1.83965,-4.13476 2.042,-9.3343 0.5235,-13.60204 L 552.84774,300.95318 c -1.51757,-4.26678 -4.93605,-8.11645 -8.93279,-10.04512 l -0.0576,-0.0287 c -2.01044,-0.96146 -4.29097,-1.48859 -6.5845,-1.58617 -0.57361,-0.0239 -1.14166,-0.0287 -1.71156,0 z m 36.25837,13.03378 59.25771,166.46197 c 3.16509,8.8971 2.76133,18.76045 -1.10267,27.3562 -3.86401,8.59671 -10.89125,15.27337 -19.5196,18.53564 l -25.46923,9.62705 55.69073,2.65956 c 4.42741,0.21334 9.19825,-1.58808 12.47472,-4.66285 3.27461,-3.07763 5.44841,-7.81605 5.65447,-12.37941 l 8.35361,-185.11718 c 0.20605,-4.56144 -1.51108,-9.50747 -4.49518,-12.88454 -2.98502,-3.37708 -7.58136,-5.61569 -12.00877,-5.82903 l -78.83671,-3.76932 z m 112.30963,31.80955 -8.00648,176.62762 c -0.42695,9.46442 -4.48867,18.40361 -11.28294,24.78369 -6.79426,6.38105 -15.79203,9.70838 -24.97449,9.26831 l -24.18835,-1.16715 64.39147,22.09447 c 4.20466,1.44172 9.29293,1.05905 13.25439,-0.98538 3.96333,-2.04728 7.27507,-6.01081 8.67384,-10.34551 l 56.76276,-175.84698 c 1.39876,-4.33566 1.02749,-9.57921 -0.95602,-13.66327 -1.9863,-4.08501 -5.83175,-7.52905 -10.03732,-8.96885 l -63.63594,-21.79504 z m 89.45229,55.07117 -55.10968,170.85502 c -2.90241,8.9899 -9.15649,16.44529 -17.37551,20.68816 l -0.0872,0.0287 c -8.19954,4.20555 -17.70037,4.89435 -26.39462,1.91335 l -18.91258,-6.48628 40.20128,35.42579 c 3.36929,2.96761 8.2283,4.57292 12.64643,4.21608 4.41814,-0.35781 8.92722,-2.71698 11.80644,-6.18972 l 116.83445,-140.9282 c 2.87922,-3.47274 4.4367,-8.45225 4.08956,-13.00603 -0.34528,-4.55379 -2.66387,-9.23003 -6.03316,-12.19765 l -61.66448,-54.32017 z"
       id="path4239"
       inkscape:connector-curvature="0"
       style="fill:#000000"
       sodipodi:nodetypes="cccccccccccccccccccccccccccccccccccccccccccccccccccccccccc" />
    <text
       xml:space="preserve"
       style="font-style:normal;font-variant:normal;font-weight:normal;font-stretch:normal;font-size:178.38720703px;line-height:125%;font-family:'KG Second Chances Sketch';-inkscape-font-specification:'KG Second Chances Sketch';letter-spacing:0px;word-spacing:0px;fill:#a6d3f9;fill-opacity:1;stroke:none;stroke-width:1px;stroke-linecap:butt;stroke-linejoin:miter;stroke-opacity:1"
       x="260.43817"
       y="693.61371"
       id="text4802"
       sodipodi:linespacing="125%"
       transform="matrix(1.0319596,-0.3799025,0.32684168,0.84870768,0,0)"><tspan
         sodipodi:role="line"
         id="tspan4804"
         x="260.43817"
         y="693.61371">S</tspan></text>
  </g>
</svg>
