<?xml version="1.0" encoding="UTF-8" standalone="no"?>
<!-- Created with Inkscape (http://www.inkscape.org/) -->

<svg
   xmlns:osb="http://www.openswatchbook.org/uri/2009/osb"
   xmlns:dc="http://purl.org/dc/elements/1.1/"
   xmlns:cc="http://creativecommons.org/ns#"
   xmlns:rdf="http://www.w3.org/1999/02/22-rdf-syntax-ns#"
   xmlns:svg="http://www.w3.org/2000/svg"
   xmlns="http://www.w3.org/2000/svg"
   xmlns:sodipodi="http://sodipodi.sourceforge.net/DTD/sodipodi-0.dtd"
   xmlns:inkscape="http://www.inkscape.org/namespaces/inkscape"
   width="233.67999mm"
   height="318.34668mm"
   viewBox="0 0 827.99997 1128"
   id="svg2"
   version="1.1"
   inkscape:version="0.91 r13725"
   sodipodi:docname="verso2.svg">
  <defs
     id="defs4">
    <inkscape:path-effect
       effect="sketch"
       id="path-effect4220"
       is_visible="true"
       nbiter_approxstrokes="5"
       strokelength="100"
       strokelength_rdm="0.3;1"
       strokeoverlap="0.3"
       strokeoverlap_rdm="0.3;1"
       ends_tolerance="0.1;1"
       parallel_offset="5;1"
       tremble_size="5;1"
       tremble_frequency="1"
       nbtangents="5"
       tgt_places_rdmness="1;1"
       tgtscale="10"
       tgtlength="100"
       tgtlength_rdm="0.3;1" />
    <inkscape:path-effect
       effect="sketch"
       id="path-effect4218"
       is_visible="true"
       nbiter_approxstrokes="5"
       strokelength="100"
       strokelength_rdm="0.3;1"
       strokeoverlap="0.3"
       strokeoverlap_rdm="0.3;1"
       ends_tolerance="0.1;1"
       parallel_offset="5;1"
       tremble_size="5;1"
       tremble_frequency="1"
       nbtangents="5"
       tgt_places_rdmness="1;1"
       tgtscale="10"
       tgtlength="100"
       tgtlength_rdm="0.3;1" />
    <inkscape:path-effect
       effect="sketch"
       id="path-effect4216"
       is_visible="true"
       nbiter_approxstrokes="5"
       strokelength="100"
       strokelength_rdm="0.3;1"
       strokeoverlap="0.3"
       strokeoverlap_rdm="0.3;1"
       ends_tolerance="0.1;1"
       parallel_offset="5;1"
       tremble_size="5;1"
       tremble_frequency="1"
       nbtangents="5"
       tgt_places_rdmness="1;1"
       tgtscale="10"
       tgtlength="100"
       tgtlength_rdm="0.3;1" />
    <inkscape:path-effect
       effect="sketch"
       id="path-effect4384"
       is_visible="true"
       nbiter_approxstrokes="5"
       strokelength="100"
       strokelength_rdm="0.3;1"
       strokeoverlap="0.3"
       strokeoverlap_rdm="0.3;1"
       ends_tolerance="0.1;1"
       parallel_offset="5;1"
       tremble_size="5;1"
       tremble_frequency="1"
       nbtangents="5"
       tgt_places_rdmness="1;1"
       tgtscale="10"
       tgtlength="100"
       tgtlength_rdm="0.3;1" />
    <inkscape:path-effect
       effect="sketch"
       id="path-effect4382"
       is_visible="true"
       nbiter_approxstrokes="5"
       strokelength="100"
       strokelength_rdm="0.3;1"
       strokeoverlap="0.3"
       strokeoverlap_rdm="0.3;1"
       ends_tolerance="0.1;1"
       parallel_offset="5;1"
       tremble_size="5;1"
       tremble_frequency="1"
       nbtangents="5"
       tgt_places_rdmness="1;1"
       tgtscale="10"
       tgtlength="100"
       tgtlength_rdm="0.3;1" />
    <inkscape:path-effect
       effect="sketch"
       id="path-effect4380"
       is_visible="true"
       nbiter_approxstrokes="5"
       strokelength="100"
       strokelength_rdm="0.3;1"
       strokeoverlap="0.3"
       strokeoverlap_rdm="0.3;1"
       ends_tolerance="0.1;1"
       parallel_offset="5;1"
       tremble_size="5;1"
       tremble_frequency="1"
       nbtangents="5"
       tgt_places_rdmness="1;1"
       tgtscale="10"
       tgtlength="100"
       tgtlength_rdm="0.3;1" />
    <inkscape:path-effect
       effect="sketch"
       id="path-effect4376"
       is_visible="true"
       nbiter_approxstrokes="5"
       strokelength="100"
       strokelength_rdm="0.3;1"
       strokeoverlap="0.3"
       strokeoverlap_rdm="0.3;1"
       ends_tolerance="0.1;1"
       parallel_offset="5;1"
       tremble_size="5;1"
       tremble_frequency="1"
       nbtangents="5"
       tgt_places_rdmness="1;1"
       tgtscale="10"
       tgtlength="100"
       tgtlength_rdm="0.3;1" />
    <inkscape:path-effect
       effect="sketch"
       id="path-effect4374"
       is_visible="true"
       nbiter_approxstrokes="5"
       strokelength="100"
       strokelength_rdm="0.3;1"
       strokeoverlap="0.3"
       strokeoverlap_rdm="0.5;1"
       ends_tolerance="0.1;1"
       parallel_offset="3;1"
       tremble_size="5;1"
       tremble_frequency="1"
       nbtangents="5"
       tgt_places_rdmness="1;523070426"
       tgtscale="10"
       tgtlength="100"
       tgtlength_rdm="0.3;1" />
    <linearGradient
       id="linearGradient5674"
       osb:paint="solid">
      <stop
         style="stop-color:#ff0000;stop-opacity:1;"
         offset="0"
         id="stop5676" />
    </linearGradient>
    <inkscape:path-effect
       tgtlength_rdm="0.3;1"
       tgtlength="100"
       tgtscale="10"
       tgt_places_rdmness="1;1"
       nbtangents="5"
       tremble_frequency="1"
       tremble_size="5;1"
       parallel_offset="5;1"
       ends_tolerance="0.1;1"
       strokeoverlap_rdm="0.3;1"
       strokeoverlap="0.3"
       strokelength_rdm="0.3;1"
       strokelength="100"
       nbiter_approxstrokes="5"
       is_visible="true"
       id="path-effect4220-6-0"
       effect="sketch" />
  </defs>
  <sodipodi:namedview
     id="base"
     pagecolor="#ffffff"
     bordercolor="#666666"
     borderopacity="1.0"
     inkscape:pageopacity="0.0"
     inkscape:pageshadow="2"
     inkscape:zoom="0.35"
     inkscape:cx="385.96526"
     inkscape:cy="506.97376"
     inkscape:document-units="px"
     inkscape:current-layer="layer1"
     showgrid="false"
     fit-margin-top="0"
     fit-margin-left="0"
     fit-margin-right="0"
     fit-margin-bottom="0"
     inkscape:window-width="718"
     inkscape:window-height="888"
     inkscape:window-x="713"
     inkscape:window-y="0"
     inkscape:window-maximized="0" />
  <metadata
     id="metadata7">
    <rdf:RDF>
      <cc:Work
         rdf:about="">
        <dc:format>image/svg+xml</dc:format>
        <dc:type
           rdf:resource="http://purl.org/dc/dcmitype/StillImage" />
        <dc:title></dc:title>
      </cc:Work>
    </rdf:RDF>
  </metadata>
  <g
     inkscape:label="Layer 1"
     inkscape:groupmode="layer"
     id="layer1"
     transform="translate(-211.79457,-116.50621)">
    <path
       style="fill:none;fill-opacity:1;stroke:#000000;stroke-width:3.82830667;stroke-linecap:round;stroke-linejoin:miter;stroke-miterlimit:4;stroke-dasharray:none;stroke-dashoffset:0;stroke-opacity:1"
       id="path5711-9-2-3-3-4-4"
       r="22.973518"
       cy="553.55682"
       cx="944.66028"
       d=""
       inkscape:connector-curvature="0" />
    <g
       transform="matrix(0.91010347,0,0,0.92949348,582.78419,-406.79403)"
       id="layer1-3"
       inkscape:label="Layer 1"
       style="stroke:#9569db;stroke-opacity:1">
      <path
         cx="944.66028"
         cy="553.55682"
         r="22.973518"
         id="path5711-9-2-3-3-4-4-6"
         style="fill:none;fill-opacity:1;stroke:#9569db;stroke-width:4;stroke-linecap:round;stroke-linejoin:miter;stroke-miterlimit:4;stroke-dasharray:none;stroke-dashoffset:0;stroke-opacity:1"
         d=""
         inkscape:connector-curvature="0" />
      <rect
         style="opacity:0;fill:#0027a2;fill-opacity:1;stroke:#9569db;stroke-opacity:1"
         id="rect4806"
         width="672.76166"
         height="969.7464"
         x="-282.54276"
         y="679.27435" />
      <text
         xml:space="preserve"
         style="font-style:normal;font-weight:normal;font-size:40px;line-height:125%;font-family:sans-serif;letter-spacing:0px;word-spacing:0px;fill:#000000;fill-opacity:1;stroke:#9569db;stroke-width:1px;stroke-linecap:butt;stroke-linejoin:miter;stroke-opacity:1"
         x="-195.66965"
         y="834.83783"
         id="text4816"
         sodipodi:linespacing="125%"><tspan
           sodipodi:role="line"
           id="tspan4818"
           x="-195.66965"
           y="834.83783" /></text>
      <rect
         style="opacity:0;fill:#203dae;fill-opacity:1;stroke:#9569db;stroke-linejoin:round;stroke-opacity:1"
         id="rect4173"
         width="668.72101"
         height="977.82764"
         x="-282.54276"
         y="679.27435" />
      <rect
         style="opacity:1;fill:#a6d3f9;fill-opacity:1;stroke:#9569db;stroke-width:7.80000019;stroke-linecap:butt;stroke-linejoin:round;stroke-miterlimit:4;stroke-dasharray:none;stroke-opacity:1"
         id="rect4175"
         width="670.74127"
         height="967.72607"
         x="-282.54276"
         y="681.29468"
         rx="35.714287"
         ry="35.714287" />
    </g>
    <rect
       style="opacity:1;fill:#dca6f9;fill-opacity:1;stroke:#8c40af;stroke-width:7.07520247;stroke-linejoin:round;stroke-miterlimit:4;stroke-dasharray:none;stroke-opacity:1"
       id="rect4175-5"
       width="600.57043"
       height="889.26666"
       x="330.56863"
       y="231.0961"
       rx="28.603252"
       ry="29.21265" />
    <path
       inkscape:original-d="m 361.43246,222.26815 c -23.28369,0 -42.02854,19.06551 -42.02854,42.74751 l 0,820.74704 c 0,23.6821 18.74485,42.7476 42.02854,42.7476 l 531.52234,0 c 23.28369,0 42.02855,-19.0655 42.02855,-42.7476 2.36689,-204.96905 6.81047,-735.01879 1.51173,-816.26783 0.61806,-26.75123 -34.39671,-49.01597 -70.97981,-46.22543 -35.24997,-2.69168 -0.022,-0.66634 -0.0247,-1.00129 l -504.05736,0 z"
       inkscape:path-effect="#path-effect4220-6-0"
       id="rect4272-0"
       d="m 357.98226,230.66174 c -8.62878,1.10708 -16.55652,5.29671 -22.71647,11.50893 -7.61109,7.67566 -12.5372,18.44245 -12.91003,30.40902 -0.2133,6.84632 -0.45886,13.70054 -0.69989,20.5339 m -1.1584,-29.59855 c -0.47619,23.51771 0.22999,47.78764 1.36273,72.20061 m -6.48015,-9.71848 c -1.0773,24.42951 -0.38444,48.70941 0.30472,72.15371 m 5.59461,-13.91352 c 1.44799,32.75707 0.69208,64.03358 1.70315,96.71051 m -8.14922,-36.01814 c -0.84915,27.56001 1.32941,55.72039 4.73603,82.95395 m -0.51729,-15.095 c -0.79693,26.23793 0.70791,49.86803 3.11913,72.16468 m -7.22068,-13.61759 c -0.72882,24.90548 0.58136,49.531 2.69777,73.88543 m 4.84179,-20.69832 c 0.47515,23.18317 -0.44305,47.57513 -2.06512,72.84832 m -1.02075,-13.6232 c 0.82747,31.29159 -0.29253,60.39524 -1.21555,88.74455 m 3.20727,-26.64016 c -0.60368,31.72302 0.89553,62.0093 2.96391,94.3694 m -4.87728,-23.8093 c 1.34785,27.79159 0.50952,54.76722 0.18708,81.70288 m -4.95272,-25.28743 c 1.42971,30.79803 0.19006,59.38489 -0.27131,87.65644 m -1.13504,-16.54801 c 1.05559,28.12624 1.22549,58.07313 2.73152,90.40913 m 3.83022,-28.2475 c -0.93792,25.7017 -1.25434,51.1133 -2.46009,78.1634 m 2.34334,-22.3075 c 0.0423,7.0354 0.005,14.154 -0.10641,21.3285 -0.18195,11.7543 4.14994,22.4781 11.2681,30.2812 5.1767,5.6749 11.82119,9.7971 19.23939,11.6393 m -16.05346,-5.3054 c 6.98578,5.9514 16.01942,9.5318 26.03351,9.7339 21.65161,0.4367 44.10881,0.8507 66.94385,1.9613 m -25.73418,-1.4806 c 33.06815,0.6708 64.94637,-2.0121 97.4533,-6.1756 m -29.9987,1.1365 c 32.77144,0.7785 65.91826,1.7659 99.77105,5.2171 m -31.12668,-6.5844 c 27.54592,0.2459 56.1615,-0.514 86.18042,-1.7731 m -32.10855,9.1947 c 31.07334,-0.669 61.93058,-0.6909 95.07483,-1.7019 m -23.67824,0.5301 c 31.91551,-0.3692 62.79715,-1.0673 93.76338,-3.1067 m -23.36262,1.1141 c 31.72548,-1.6071 66.15071,0.6755 100.59567,2.1761 m -31.87288,1.4961 c 30.21894,-0.5301 60.32993,-2.566 90.51036,-7.3932 1.45745,-0.2331 2.89735,-0.5443 4.31615,-0.9306 m -32.95703,7.8161 c 7.39594,-0.08 14.89732,-0.1283 22.4827,-0.1587 11.72763,-0.047 22.48501,-4.8146 30.44489,-12.5465 7.96175,-7.7337 13.11106,-18.4157 13.67726,-30.3021 0.19755,-3.3402 0.40081,-6.7193 0.61402,-10.235 m -3.17161,19.7498 c 2.91093,-5.4025 4.54689,-11.531 4.58426,-18.0027 0.37909,-21.2438 -0.012,-40.4172 -0.45005,-65.0345 m 3.59825,26.442 c -0.1683,-19.6572 -0.21332,-47.58925 -0.67634,-70.07814 m 2.96197,18.02243 c 0.56741,-24.21365 1.07543,-61.11984 1.88822,-88.07152 m -3.04998,23.64021 c -0.73132,-25.36533 -0.41758,-47.42733 -0.7992,-75.48086 m -0.93654,18.45561 c 0.2108,-26.88525 1.2481,-56.77426 3.19671,-88.70737 m -5.95825,14.43945 c -0.48235,-34.01322 1.05964,-64.65837 2.52683,-95.87237 m -0.1057,37.4158 c -0.18375,-26.23914 0.93514,-54.16053 2.60261,-81.18504 m 9.46716,11.62666 c 0.18572,-11.75377 0.26124,-23.51008 0.27708,-35.17728 0.0215,-15.80147 -0.067,-31.73814 -0.14443,-47.07433 m -3.36787,23.56784 c 0.74403,-31.36806 -1.13198,-61.15392 -3.68008,-88.2195 m 0.67534,17.35515 c -0.43441,-31.49993 0.14896,-66.31162 0.3033,-92.95852 m 4.83544,20.88623 c 1.01776,-23.32354 0.43071,-46.35561 -0.13403,-65.28383 -0.21185,-7.1003 -0.37914,-12.19018 -0.56889,-18.75626 m -9.83166,34.57668 c -0.0151,-0.97286 -0.0286,-1.94317 -0.0408,-2.91071 -0.38439,-30.70965 0.69729,-61.27403 1.54464,-82.96402 0.0857,-2.1928 0.17116,-4.34311 0.25479,-6.42806 m -0.59451,9.86119 c -0.3692,-7.03906 -0.619,-13.68381 -0.80152,-19.74699 -0.32405,-10.76421 -0.49355,-22.0561 -0.63192,-29.59513 -0.15426,-8.40526 -0.30644,-14.77299 -0.55372,-19.88595 0.0318,-0.75771 0.0336,-1.51171 0.006,-2.26151 m 3.95026,26.30393 c -0.0452,-5.161 -0.244,-9.61543 -0.49778,-13.14731 0.10477,-6.75504 -2.18708,-13.25673 -6.3482,-19.16218 -4.16728,-5.9142 -10.21787,-11.24654 -17.67495,-15.70871 -12.57916,-7.52712 -29.14057,-12.55681 -47.04402,-13.66345 m 41.25689,10.97065 c -10.6429,-4.20469 -23.24289,-6.2852 -36.10149,-5.24461 -4.31928,-0.31723 -7.66865,-0.57773 -10.01709,-0.77144 -2.38473,-0.1967 -3.88938,-0.33674 -4.70638,-0.43155 -0.4095,-0.0475 -0.64863,-0.0839 -0.74292,-0.11088 -0.0236,-0.007 -0.0381,-0.0129 -0.0439,-0.0185 -0.003,-0.003 -0.004,-0.005 -0.002,-0.008 10e-4,-0.003 0.005,-0.005 0.0105,-0.007 0.0225,-0.009 0.0787,-0.0154 0.16525,-0.0199 0.34627,-0.0179 1.17928,-0.002 2.29056,0.032 2.23008,0.0692 5.55189,0.21391 8.34455,0.32239 1.39144,0.054 2.64755,0.0989 3.55275,0.11974 0.45307,0.0104 0.81908,0.0149 1.07179,0.0114 0.12636,-0.002 0.22438,-0.005 0.2908,-0.0112 0.0332,-0.003 0.0585,-0.006 0.0755,-0.0105 0.017,-0.004 0.0257,-0.009 0.0257,-0.0139 -8.82649,0.0297 -17.60149,0.0773 -26.25523,0.17588 M 862.4967,213.5175 c 0.12997,0.002 0.24442,0.003 0.34183,0.002 0.12468,-8.1e-4 0.2214,-0.004 0.28694,-0.009 0.0328,-0.003 0.0577,-0.006 0.0745,-0.01 0.0168,-0.004 0.0253,-0.008 0.0253,-0.0137 -24.12616,0.25743 -47.42542,1.11173 -69.9138,2.96704 m 16.66759,14.36914 c -30.81338,0.54344 -57.82016,-0.73538 -83.82248,-2.56924 m 18.25694,-5.28291 c -32.29331,-1.26492 -61.55723,1.15554 -89.99947,3.91839 m 29.18047,2.48825 c -25.48376,-0.0491 -50.479,-0.0129 -75.52073,-5.9e-4 m 15.28098,-4.45215 c -26.57721,0.9367 -51.83459,0.37271 -77.64714,-0.0152 m 13.98256,-0.92278 c -25.12836,-0.28199 -48.59422,-0.0434 -72.0576,0.24994 m 13.41115,5.21925 c -29.65939,0.95731 -58.04408,-0.61208 -85.44294,-2.47678 m 21.19784,-1.15636 c -25.20888,-0.01 -50.27538,0.23298 -75.08045,0.73291 0,0 0.001,0.002 0.001,0.002 -7.74337,0.15628 -14.95033,2.5172 -21.05922,6.52539 m 6.35914,-8.59369 c -7.64561,1.64008 -14.45418,5.6038 -19.69604,11.16336 -7.23164,7.66995 -11.51455,18.41819 -10.86262,30.32812 0.62447,11.40813 1.43202,22.84126 2.53541,34.22146 m 0.17362,-26.10592 c -0.0136,32.98245 -2.92912,66.16467 -8.78854,98.71578 m 8.43744,-27.05206 c 1.41576,30.457 -1.10363,60.80875 -3.80028,88.9015 m 4.15119,-29.15796 c -0.6074,29.97721 -0.51076,62.22417 -1.33241,93.78239 m 8.09055,-21.74378 c 0.38677,28.94582 0.47619,55.57277 1.07347,81.31878 m -8.88652,-23.67692 c -1.1772,26.90122 -0.16971,57.67471 0.52519,89.57819 m -7.94662,-14.10015 c 0.0819,26.46237 0.89663,52.63831 2.60488,79.08889 m 3.41075,-26.64799 c 0.10151,32.27235 -0.83634,64.5594 -2.53332,96.09024 m 5.4235,-22.94236 c -1.1071,27.5643 -0.049,55.12123 1.00615,83.74837 m -3.93568,-25.00213 c -0.69105,25.98467 0.99713,54.69752 3.70787,83.64895 m 6.01897,-25.24504 c 0.0611,25.80938 -1.83014,53.45402 -5.56189,82.02441 m -9.04717,-18.47615 c 1.01334,30.1319 2.02351,58.92988 5.50028,87.14981 m 4.14739,-26.81978 c -1.25916,28.64648 -1.41617,60.22868 -3.40582,93.24288 m -1.32007,-21.3594 c 0.30984,12.8038 0.36274,25.4291 0.2955,37.8782 -0.0622,11.518 4.47018,21.7638 11.92349,28.9379 5.27569,5.0781 12.01861,8.6173 19.6111,9.9432 m -19.39653,-12.1286 c 0.80703,0.9633 1.66304,1.8912 2.56478,2.7802 7.47013,7.365 18.05335,12.0471 29.9751,12.1421 13.40472,0.1069 27.04883,0.4352 40.83211,0.7372 m -21.05304,-7.4272 c 23.73096,-0.1047 48.44531,0.059 73.08576,0.3304 m -13.24643,9.8651 c 29.17431,0.6318 61.50062,0.7209 93.62724,1.8784 m -28.46548,-5.5504 c 23.98613,0.1043 49.63643,0.8206 76.57787,2.3299 m -11.92386,3.529 c 25.42767,-1.001 50.71405,-0.3806 75.47409,0.074 m -16.54131,-5.5431 c 24.71288,-1.0086 47.32958,-0.2915 69.10105,0.6008 m -22.08768,5.7672 c 27.28504,1.0433 54.09936,-0.1823 82.01363,-1.692 m -22.98523,-7.2927 c 26.18841,0.2406 51.55794,0.1578 77.01921,0.1956 m -12.98523,3.4372 c 30.39323,0.3187 61.20287,-0.5057 89.71689,-1.6588 1.02081,-0.041 2.02907,-0.127 3.02304,-0.2556 m -22.2973,-6.3281 c 8.0128,-0.1837 16.33007,-0.3047 24.87787,-0.3985 11.86071,-0.1301 22.94982,-4.9657 31.35729,-12.8029 6.47705,-6.0377 11.35342,-13.845 13.79773,-22.6532 m -8.0596,29.1598 c 5.86075,-7.6175 9.41089,-17.1873 9.52766,-27.6304 0.30778,-13.6791 0.74095,-28.6691 1.36396,-45.1851 m -9.93208,16.3939 c -0.26281,-22.0244 -0.71387,-52.5586 -2.73812,-82.14777 m 9.23757,16.81189 c 1.19299,-29.97358 -1.07802,-57.46139 -5.60545,-87.31782 m 2.00801,22.54175 c -1.00084,-31.63452 0.64871,-61.57205 1.88323,-98.29523 m -4.16128,29.932 c 0.94938,-22.90366 0.57105,-46.52288 -0.0268,-71.07618 m -4.81485,20.33662 c 0.32814,-23.00222 1.58055,-46.84504 4.05353,-70.77758 m 1.33414,8.97224 c -0.9214,-23.48922 0.6072,-48.20991 2.88169,-72.96203 m 5.12113,17.96932 c -0.0464,-21.01196 -0.5738,-42.36797 -1.76839,-64.08872 -0.35629,-6.47819 -0.77106,-12.97302 -1.24848,-19.48573 m -9.25117,21.13486 c 0.003,-0.43749 0.007,-0.8741 0.0104,-1.30985 0.30307,-35.09001 2.52488,-64.36602 6.57023,-92.5813 m 0.62727,26.66636 c -0.56043,-26.18842 0.2323,-50.6991 1.11988,-72.64045 m 5.59362,12.02145 c 1.22757,-25.23805 -0.16895,-48.07689 -1.97835,-68.21436 m -4.36233,18.36528 c -0.6842,-15.3879 -0.88137,-31.99622 -1.04039,-47.35233 -0.10041,-9.69691 -0.18015,-18.50443 -0.32589,-27.80868 m 2.86085,18.1547 c -0.22837,-28.34165 -1.13121,-52.60416 -2.35178,-72.95448 -0.15811,-2.63618 -0.32106,-5.19756 -0.48784,-7.68241 m -3.21668,14.06574 c 0.0283,-4.20291 0.0571,-8.12384 0.0893,-12.01244 0.10127,-12.21045 0.21106,-20.92905 0.33635,-30.16244 0.11514,-8.48532 0.21797,-15.56403 0.21358,-20.70844 0.38835,-4.55097 -0.18498,-8.98534 -1.5399,-13.22278 m -1.08511,12.08449 c -0.10298,-1.27818 -0.20041,-2.46599 -0.29539,-3.57627 0.0343,-6.51452 -2.03955,-12.75415 -5.71072,-18.3952 -3.66589,-5.63291 -8.91864,-10.65659 -15.19838,-14.6986 -6.44274,-4.14691 -13.9804,-7.2698 -22.04044,-8.95329 m 15.18408,6.4705 c -11.93245,-5.82464 -25.80339,-8.71184 -39.53904,-7.5548 -4.32919,-0.32956 -7.17041,-0.5468 -9.57139,-0.74264 -2.26823,-0.18501 -3.67475,-0.3139 -4.45162,-0.40422 -0.3861,-0.0449 -0.61135,-0.0797 -0.70001,-0.10602 -0.0221,-0.007 -0.0358,-0.0126 -0.0412,-0.0181 -0.003,-0.003 -0.003,-0.005 -0.002,-0.008 0.002,-0.002 0.005,-0.005 0.0113,-0.007 0.0239,-0.009 0.0832,-0.0149 0.17468,-0.0188 0.36606,-0.0156 1.24601,0.005 2.42302,0.0472 2.36572,0.0844 5.88493,0.25243 8.86931,0.37989 1.48625,0.0635 2.82349,0.11616 3.79355,0.14257 0.48436,0.0132 0.87583,0.0198 1.14617,0.0179 0.13518,-9.7e-4 0.24005,-0.004 0.31113,-0.01 0.0355,-0.003 0.0626,-0.006 0.0809,-0.01 0.0183,-0.004 0.0274,-0.008 0.0279,-0.0137 -0.5084,0.005 -1.01628,0.0101 -1.52364,0.0151 m -14.0543,7.44807 c 0.4077,0.004 0.99862,0.0225 1.71307,0.0502 1.84134,0.0713 5.54423,0.25188 7.97061,0.35537 1.34294,0.0573 2.55411,0.1035 3.43434,0.12505 0.43934,0.0108 0.79485,0.0153 1.04033,0.012 0.12276,-0.002 0.21803,-0.005 0.28258,-0.0112 0.0323,-0.003 0.0569,-0.006 0.0734,-0.0104 0.0165,-0.004 0.025,-0.009 0.0248,-0.0139 -19.69861,0.0661 -38.23213,-0.0412 -56.55112,-0.14994 m 14.58505,-5.52435 c -29.5697,0.90704 -61.05503,0.57475 -93.94503,1.15554 m 33.55171,3.96119 c -23.65042,-0.34988 -46.80707,-0.87765 -69.60612,-2.13118 m 2.14201,3.06874 c -29.12563,-0.27293 -56.85219,-0.46981 -83.17562,-1.2326 m 19.18699,-8.64968 c -26.81061,1.13499 -51.78013,1.75557 -76.85644,3.9139 m 19.55589,5.46104 c -31.28812,1.15436 -59.37073,-0.21191 -86.98634,-1.27948 m 34.45249,-7.58855 c -24.10349,-1.12897 -49.38606,-0.16288 -75.1716,1.05526 m 13.02593,5.97676 c -30.58874,0.95224 -62.21576,-0.85984 -93.05494,-2.88072 0,0 6.4e-4,-0.006 6.4e-4,-0.006 -0.77143,-0.0506 -1.53731,-0.0794 -2.29709,-0.0871 m 28.84662,-2.61206 c -8.33445,-0.056 -16.66076,0.10481 -24.95517,0.47097 0,0 10e-4,0.004 10e-4,0.004 -11.41588,0.5062 -21.67796,6.10762 -28.905,14.96063 -4.61572,5.65417 -8.00818,12.65007 -9.68029,20.53184 m 24.05566,-27.69482 c -8.54716,1.94668 -16.03104,6.18263 -21.77598,12.00988 -7.63294,7.74229 -12.18272,18.28793 -11.96086,29.8995 0.25259,13.2203 0.58878,26.35264 0.77345,39.5973 m -8.22391,-29.88962 c -0.72832,24.16083 -0.20973,48.53086 0.37606,72.49183 m 6.49957,-8.01443 c 1.09862,34.50737 0.37353,64.65231 1.1167,94.59691 m 3.25831,-37.14611 c 0.92014,26.25143 1.07262,55.21557 2.30739,84.54037 m 0.30995,-22.53847 c 1.41918,29.68862 0.55655,58.48367 0.688,87.81654 m -4.20417,-17.67367 c -0.15028,28.82862 -1.42867,57.083 -4.18106,83.0529 m 5.04042,-18.3774 c -0.16442,24.28459 -0.59884,45.80206 -1.5568,65.90284 m 0.0723,-11.35534 c -0.68461,32.17007 -0.80471,63.62189 -2.14526,96.67074 m 4.4889,-24.57197 c -0.89753,25.72423 -0.0813,53.39259 0.65511,80.40021 m -2.41247,-24.87412 c 0.38946,31.40791 0.81609,63.95703 2.33045,95.53638 m -6.93952,-24.59642 c 1.39025,33.1401 2.36136,64.74969 6.88621,97.03552 m -4.3866,-35.30372 c 0.0731,23.40484 -0.44191,47.21129 -1.41904,71.33337 m 7.74671,-9.81406 c -1.30491,31.61416 -1.90647,62.43066 -5.22701,93.43906 m 6.43802,-23.3956 c -0.54574,14.9306 -0.98085,30.429 -1.66127,46.1043 -0.51909,11.9588 3.55513,22.8405 10.30199,30.7085 2.1914,2.5555 4.6644,4.793 7.35257,6.647 m -16.83674,-19.4735 c 2.07762,4.2093 4.79482,8.038 8.01571,11.3395 7.48636,7.6738 17.68371,12.4845 28.80194,12.6055 8.10417,0.088 16.0986,0.2121 23.99294,0.3489 m -15.53619,-3.4505 c 25.63305,-0.051 53.1665,0.6462 81.56773,1.9758 m -23.75195,-4.9057 c 28.1617,-0.5632 56.58031,0.7906 84.98377,2.8107 m -20.73977,-0.662 c 27.34681,0.2059 56.55892,0.2086 86.83082,0.403 m -26.75955,-0.2082 c 24.5313,-1.2248 51.01539,0.3347 77.3355,2.4846 m -14.40974,0.8754 c 30.0972,0.5218 61.87804,1.0537 92.84802,2.9912 m -33.67417,-4.3193 c 30.99363,0.8034 64.57638,-1.6781 97.49837,-5.1633 m -23.00338,3.1318 c 34.23029,-0.1793 63.67465,-1.5147 92.6616,-4.4881 m -19.66342,6.6759 c 24.17432,0.6735 47.99429,1.0278 71.78914,2.128 1.89866,0.088 3.76675,0.051 5.59659,-0.1034 m -20.44402,-5.6966 c 3.96179,0.063 7.94714,0.1081 11.94864,0.1389 11.30143,0.087 21.61395,-4.7106 28.9758,-12.5018 7.35761,-7.7867 11.80537,-18.6046 11.33907,-30.5544 -0.14129,-5.121 -0.32644,-10.4904 -0.57751,-15.9933 m -2.90557,32.9621 c 0.82458,-3.3407 1.26714,-6.9285 1.27209,-10.7098 0.30614,-23.6378 2.48607,-52.3413 6.93221,-88.7196 m 3.8787,31.4835 c 0.85124,-26.8993 -0.806,-56.34743 -4.71724,-88.13932 m 4.74198,23.90891 c -0.5873,-24.75067 -0.87265,-57.93617 -2.7101,-88.92269 m -0.23252,29.5931 c -0.54413,-25.17076 -0.18662,-50.79947 -0.26841,-82.0616 m 2.11923,12.65669 c -0.79252,-26.13227 0.60911,-51.12064 2.40896,-75.25761 m -3.44283,19.44037 c 0.55004,-30.24756 1.49029,-61.34808 3.6317,-93.64479 m 0.11612,19.18345 c -1.10366,-25.30167 -0.30391,-50.25016 0.17447,-73.85056 m -3.9147,25.44506 c -0.0339,-8.74191 0.0805,-17.32444 0.32619,-25.8145 0.54029,-18.66856 1.71607,-36.88132 3.33784,-55.21528 m -6.64668,21.65626 c -0.48655,-25.03938 -0.30664,-51.26696 -0.37773,-74.75921 m 2.49735,16.96174 c -0.11443,-28.10989 1.04921,-56.33729 2.8659,-84.57911 m -10.2246,11.49401 c 0.46953,-26.50039 0.7515,-46.92902 1.56618,-68.14742 m 9.44322,19.28175 c 0.16126,-6.30903 0.30858,-12.78018 0.44743,-18.77026 0.50563,-21.81268 0.9551,-38.57675 1.89905,-55.25308 m -8.15116,11.86586 c -0.0626,-15.78731 0.0288,-29.60348 0.18841,-41.99437 0.14393,-11.17042 0.33719,-20.72313 0.49781,-28.89437 0.009,-0.47522 0.0186,-0.94505 0.0276,-1.40955 m -8.12001,14.33819 c 0.0881,-5.39567 0.0935,-10.38981 0.0497,-14.83634 -0.0815,-8.2754 -0.33726,-15.1842 -0.63845,-20.0519 0.18589,-6.53895 -1.89289,-12.75179 -5.6727,-18.29421 -3.78259,-5.54651 -9.26217,-10.41384 -15.87697,-14.29178 -3.7328,-2.18837 -7.82164,-4.05851 -12.16149,-5.55738 m 25.70467,21.00585 c -2.49196,-2.35287 -5.34952,-4.55162 -8.51495,-6.56083 -13.04563,-8.28048 -31.48506,-13.41814 -50.71599,-12.48705 -4.56713,-0.44158 -8.19976,-0.80934 -10.68188,-1.07121 -2.54887,-0.26891 -4.16211,-0.45491 -5.03711,-0.57456 -0.43888,-0.06 -0.69534,-0.10374 -0.79662,-0.13364 -0.0253,-0.007 -0.041,-0.0141 -0.0474,-0.0199 -0.003,-0.003 -0.004,-0.006 -0.003,-0.008 10e-4,-0.003 0.004,-0.005 0.01,-0.007 0.0208,-0.01 0.0731,-0.0178 0.15352,-0.0248 0.32167,-0.0281 1.09646,-0.0375 2.12799,-0.0359 2.08407,0.003 5.13583,0.0495 7.7287,0.077 0.46426,0.005 0.91232,0.009 1.33382,0.0124 m 7.08189,-13.11555 c -2.66781,-0.27294 -5.02194,-0.48686 -6.68079,-0.63523 -2.4099,-0.21554 -3.72114,-0.32718 -4.60681,-0.42512 -0.40265,-0.0445 -0.63711,-0.0785 -0.73014,-0.10464 -0.0232,-0.007 -0.0374,-0.0125 -0.0432,-0.018 -0.003,-0.003 -0.004,-0.005 -0.002,-0.008 10e-4,-0.002 0.005,-0.005 0.0107,-0.007 0.0229,-0.009 0.0799,-0.0147 0.1679,-0.0183 0.35106,-0.0145 1.19841,0.009 2.32301,0.0603 2.45302,0.1116 5.41348,0.31042 8.40084,0.52695 1.3729,0.0995 2.66609,0.19601 3.54782,0.25277 0.45158,0.0291 0.81536,0.0492 1.06699,0.0567 0.12573,0.004 0.22315,0.004 0.28922,0.001 0.033,-0.001 0.0582,-0.004 0.0751,-0.007 0.0169,-0.003 0.0255,-0.008 0.0255,-0.0125 -15.16375,0.73441 -30.65499,2.25207 -46.04025,4.35698 m 23.36422,10.14493 c -26.57198,-0.0848 -55.2097,-0.5677 -84.82642,-1.63446 m 8.04777,-4.96746 c -27.12321,-1.08298 -53.90137,0.49334 -78.41957,2.43064 m 27.43146,-1.2193 c -28.70317,0.0458 -57.76677,-0.10456 -85.78815,-0.33205 m 23.35759,-4.74611 c -26.59946,-0.0606 -53.86824,0.85692 -82.98977,2.64305 m 14.33685,3.9977 c -24.84208,0.24683 -50.09725,0.0939 -75.01275,-0.0263 m 26.49483,-0.48167 c -33.51501,-0.33883 -66.08592,-0.87399 -101.63188,-2.54137 m 19.84347,3.83095 c -24.62597,0.97892 -47.46132,0.0365 -69.64026,-1.32582 m 19.64688,-5.62726 c -14.46978,0.65359 -28.46907,1.07114 -42.15621,1.60818 0,0 0.003,0.004 0.003,0.004 -11.23142,0.4412 -21.17354,5.68998 -28.09383,14.1358 -2.72063,3.32038 -4.97453,7.13593 -6.65307,11.34889 m 30.01848,-25.5808 c -10.92139,0.7476 -20.88879,5.54078 -28.37789,12.97223 -7.85951,7.799 -12.94468,18.45681 -13.55587,30.30802 -0.60202,11.67344 -1.36002,23.37244 -2.2436,35.22229 0,0 -7.6e-4,0.0102 -7.6e-4,0.0102 m -3.78826,-29.57084 c 0.1306,26.74472 1.69242,54.56534 4.95292,81.29104 m -2.41384,-18.69949 c 0.17921,28.74598 1.09668,55.09073 3.17964,79.25017 m -5.28865,-20.23404 c 1.16812,27.58515 2.29671,56.0782 5.74907,85.78563 m 8.97753,-15.32678 c 1.2744,26.98475 -1.13324,53.79487 -4.66432,79.4892 m -0.76549,-24.26441 c 1.11361,32.56915 -0.80753,67.21556 -2.49476,103.27369 m -3.01349,-25.46181 c -0.30573,29.99451 -0.81602,63.5258 -2.37813,97.09859 m 1.08946,-38.82679 c 0.86437,29.4014 1.54803,58.46127 4.04853,86.94866 m 6.22506,-14.39945 c 1.48416,31.52359 -1.75668,65.35582 -5.38031,96.989 m 8.11384,-30.0138 c -0.99316,25.43161 -0.7177,50.72732 -0.82745,76.73195 m -6.32077,-16.72263 c -0.52091,29.24403 1.10129,57.11891 3.65897,82.65543 m 2.78606,-15.16006 c -1.40821,30.23749 -0.93285,60.02036 -2.13009,88.52178 m -9.00178,-28.1512 c 1.29904,27.1289 1.16193,54.545 2.12536,82.3837 m -4.93814,-14.9824 c 0.29061,14.9167 0.75688,28.8785 1.56155,42.2259 0.66562,11.0409 6.18393,20.6252 14.86317,27.0571 3.54476,2.6269 7.62028,4.7299 12.11165,6.1866 m -15.5294,-17.639 c 1.83295,3.2783 4.07036,6.2783 6.64661,8.9385 7.75808,8.011 18.58206,12.9415 30.77298,13.1284 17.88908,0.2743 36.2367,0.5672 55.11244,1.3459 m -26.5095,-3.4786 c 28.94721,1.3668 55.25316,-0.4272 81.33783,-2.545 m -27.22364,0.7474 c 29.88355,-0.6858 60.69169,1.1557 92.70375,3.8753 m -20.98215,-1.2185 c 27.80648,1.0018 53.81949,0.5494 79.59433,0.6407 m -14.44153,-1.8913 c 23.63319,-0.4544 47.70264,0.5906 72.01119,2.4189 m -26.28139,4.1827 c 28.2498,-0.5183 60.30968,0.4529 93.24022,1.667 m -30.88586,-6.4717 c 29.38052,-0.5139 62.16486,-1.0816 95.2331,-2.9757 m -22.66078,1.4913 c 29.11918,-0.6362 55.86407,0.5598 82.37886,2.23 m -13.42383,-3.753 c 22.20856,0.5378 44.53592,0.9862 66.48596,2.0969 4.68679,0.2372 9.16697,-0.3218 13.31025,-1.5409 m -20.33797,-0.283 c 1.95976,-0.049 3.92969,-0.094 5.90927,-0.1346 11.49049,-0.2348 22.12481,-5.0799 30.05908,-12.8694 7.93466,-7.79 13.13521,-18.4859 13.84679,-30.4113 0.10348,-1.4546 0.20993,-2.9249 0.31947,-4.4138 m -1.22042,17.1227 c 1.40205,-4.0093 2.17981,-8.339 2.2308,-12.8774 0.72265,-31.4492 0.43482,-42.3286 1.02538,-81.8262 m -9.5378,33.6817 c -0.35123,-27.4151 2.30627,-59.68996 7.69154,-96.15549 m -0.69615,27.48118 c 1.12225,-31.79768 -0.57125,-61.92609 -3.43058,-97.06106 m -0.0234,31.21547 c -1.3655,-31.38404 1.32653,-64.70441 3.46876,-99.95736 m -1.42018,19.77978 c -0.53062,-28.21268 0.8063,-56.38509 2.38335,-84.53851 m -1.14277,31.5297 c 0.86835,-34.21407 0.43211,-63.61807 0.54334,-92.7247 m -0.93769,22.48966 c -0.22496,-21.20661 -0.4014,-41.36242 -0.93347,-61.40951 -0.23018,-8.67304 -0.52506,-17.24281 -0.91452,-25.77032 m -2.20269,18.64739 c -0.55806,-25.02488 0.41003,-49.19811 1.7331,-72.23963 m 6.95514,11.60754 c -0.52804,-33.60676 -2.29832,-67.55455 -6.63499,-99.41269 m -1.58557,36.72614 c 1.23893,-25.47616 1.28761,-64.41051 1.94671,-87.07695 m -0.10539,20.17143 c 0.17993,-12.03434 0.33561,-25.76838 0.47319,-36.24011 0.16662,-12.68267 0.34416,-23.88206 0.60685,-34.99964 m -3.57355,19.56249 c -0.1602,-24.10527 -0.7646,-44.27993 -1.56281,-60.89357 -0.47107,-9.80494 -1.01191,-18.40235 -1.56823,-25.69022 m 2.601,20.21609 c -0.63407,-9.52643 -0.99502,-18.65118 -1.25359,-25.85518 -0.31036,-8.64706 -0.47964,-14.52726 -0.75479,-19.89932 0.25551,-6.53934 -1.67647,-12.7865 -5.28416,-18.37715 -3.60598,-5.588 -8.89201,-10.52809 -15.36519,-14.43317 -2.67468,-1.61355 -5.5545,-3.05198 -8.60743,-4.28832 m 30.24243,21.51591 c -3.89568,-4.84615 -8.93591,-9.29342 -14.77443,-13.15836 -13.47953,-8.92307 -31.26966,-14.79629 -49.40386,-15.14331 -1.58429,-0.27366 -3.03829,-0.53101 -4.34587,-0.76672 m 15.67761,-5.2231 c -4.29263,-0.21254 -8.63187,-0.12214 -12.96504,0.30897 -4.40569,-0.22518 -7.84885,-0.41504 -10.21083,-0.55549 -2.41919,-0.14385 -3.9381,-0.24931 -4.7648,-0.32544 -0.41392,-0.0381 -0.65535,-0.069 -0.75069,-0.0937 -0.0238,-0.006 -0.0385,-0.012 -0.0444,-0.0174 -0.003,-0.003 -0.004,-0.005 -0.002,-0.008 10e-4,-0.002 0.005,-0.005 0.0104,-0.007 0.0223,-0.008 0.0779,-0.0136 0.16361,-0.0161 0.3429,-0.0101 1.16785,0.0242 2.26977,0.0841 2.24833,0.12238 5.47317,0.34094 8.28925,0.52054 1.38266,0.0882 2.63581,0.16476 3.53528,0.2085 0.45099,0.0219 0.81527,0.0357 1.06685,0.0388 0.12579,0.002 0.22334,3.9e-4 0.28947,-0.004 0.0331,-0.002 0.0582,-0.005 0.0752,-0.008 0.0169,-0.004 0.0256,-0.008 0.0256,-0.0131 -18.13957,0.53843 -36.04138,1.28103 -54.15465,2.66642 m 30.6996,-1.29631 c -31.18413,0.45836 -61.61662,0.65513 -93.99483,1.73015 m 28.59894,-6.45664 c -31.40515,0.68537 -62.14433,1.70308 -95.11128,4.71735 m 26.41582,-0.10854 c -29.70985,-1.01335 -60.2668,-1.35778 -90.52888,-3.54539 m 20.72822,7.13989 c -24.80913,0.96015 -47.78822,0.30543 -70.68498,-0.49317 m 12.77359,-6.38194 c -30.75321,0.89517 -57.55453,0.67552 -83.57614,1.40689 m 18.18425,6.17069 c -28.08291,-0.69362 -54.10058,-1.09866 -78.72688,-2.63468 m 24.16343,-6.66189 c -25.75825,0.16442 -54.26065,0.43169 -84.46116,1.13416 m 23.53018,2.8896 c -12.45127,0.48201 -24.75774,0.82499 -36.91024,1.22993 0,0 0.002,0.003 0.002,0.003 -11.34717,0.37844 -21.46053,5.5439 -28.54136,13.85708 -0.27104,0.31821 -0.53763,0.64103 -0.79967,0.96837 m 18.31643,-24.30922 c -9.31475,1.04714 -17.82261,5.57144 -24.31439,12.39395 -7.6196,8.00779 -12.47984,19.18673 -12.73441,31.77379 -0.16817,8.31473 -0.36124,16.72173 -0.53923,25.20542 m 4.18035,-18.31631 c 1.25766,25.28505 0.7816,51.59597 0.89727,77.29102 m -5.85854,-15.84216 c 0.38698,25.65184 0.6647,51.7202 1.51544,78.65345 m -4.21042,-23.18723 c 1.56677,32.38198 0.6574,64.43346 1.66142,96.22369 m 0.25203,-23.71081 c -0.31908,23.02291 -0.0759,47.79775 0.21608,72.74575 m 12.9873,-15.4146 c 0.35165,28.20328 -1.33991,55.94351 -4.39424,85.00471 m 1.50354,-31.24754 c 0.12219,24.62536 -1.45119,49.10008 -4.52674,74.15311 m -1.21554,-14.86647 c -0.0973,23.77622 0.25308,49.07422 0.88037,73.93357 m -5.76289,-8.53325 c 0.80946,31.00461 -0.51928,65.85323 -1.65991,100.58039 m 10.99519,-32.54938 c -1.03039,24.4334 -1.88056,49.52044 -4.33934,73.64802 m -6.98865,-16.99539 c -0.82689,29.03065 -0.82187,59.15183 -2.01674,87.39394 m 11.97787,-18.69705 c -0.22154,28.30249 -0.49757,55.67312 -1.23584,84.64754 m -9.70152,-26.40916 c 0.16703,27.83335 0.75328,57.20679 2.12286,86.65858 m 7.01798,-21.6978 c 0.73755,27.1725 0.59597,53.5205 0.98556,80.1249 0.0187,1.2761 0.0928,2.5395 0.22028,3.7878 m -1.36268,-19.2516 c -0.17881,5.8117 -0.29238,11.5517 -0.35652,17.2276 -0.13252,11.7278 4.63449,22.0851 12.3544,29.2959 7.71776,7.2088 18.43698,11.3155 30.23635,10.4414 3.29823,-0.2444 6.59261,-0.4998 9.88024,-0.7648 m -28.97284,-3.1271 c 4.89973,2.1077 10.33537,3.3541 16.1206,3.5515 19.40267,0.6619 39.5798,2.2819 60.35982,4.9684 m -18.70604,-5.7337 c 25.633,1.2588 51.05002,0.039 75.93783,-1.4165 m -23.00383,1.6504 c 26.04657,0.031 54.0227,-1.5603 82.89597,-4.7147 m -16.02773,-3.6061 c 25.59654,-1.2703 52.82052,-0.042 79.12705,1.185 m -18.13918,2.2525 c 24.27481,-1.0516 49.4079,-0.709 73.84138,-0.752 m -8.95296,6.2208 c 31.86729,-1.3217 62.36934,0.05 92.92233,0.6079 m -30.57665,1.1892 c 24.86434,-0.4619 49.18594,-0.1448 72.42834,0.145 m -12.34532,0.012 c 30.12137,1.3467 61.41126,0.9417 91.39229,2.2924 m -29.3668,-3.9334 c 18.71975,0.1204 37.8685,-0.4034 56.88304,-1.4593 6.80281,-0.3778 13.19692,-2.4757 18.78572,-5.9196 m -7.74244,13.3978 c 10.65177,-0.046 20.28677,-4.703 27.22646,-12.214 7.31264,-7.9147 11.69473,-19.0554 11.19638,-31.5103 -0.3248,-11.1823 -0.81808,-23.7909 -1.63865,-36.865 m -4.22426,23.5549 c -0.77484,-23.0905 -0.0528,-43.8507 1.12003,-69.8847 m 0.62323,19.7616 c -0.0182,-28.88776 2.12532,-60.84317 6.5912,-95.47701 m -3.14756,25.8604 c 1.28078,-24.51485 0.10303,-47.58211 -2.2856,-72.07098 m 1.23045,12.06766 c 0.53269,-27.04439 -0.26238,-53.0841 -1.9934,-81.11938 m 2.79883,17.6629 c -1.05073,-24.58272 -1.60828,-51.86306 -3.95054,-77.95829 m 6.81468,23.34727 c -1.27769,-32.52512 -0.61277,-50.17731 -1.86966,-83.15055 m 1.18251,13.56853 c 1.40535,-25.63469 0.76313,-51.16627 0.25833,-76.39372 m 1.19633,26.51383 c 0.16543,-9.12214 0.30366,-18.02863 0.43762,-26.70449 0.2559,-16.57383 0.49461,-32.15231 0.88066,-47.88693 m -3.44907,6.75651 c 0.0576,-33.64727 -0.36166,-61.93409 -1.30653,-88.11415 m 4.58516,26.34663 c 1.43667,-28.6992 -1.53436,-59.09293 -5.04487,-86.40046 m 2.12227,23.01779 c 0.35372,-22.99731 0.0292,-45.66028 -0.37487,-65.50718 -0.0398,-1.9529 -0.0807,-3.89316 -0.12225,-5.81458 m 2.17833,16.36757 c 0.0592,-3.19521 0.10449,-6.38892 0.13836,-9.56951 0.25816,-24.24624 -0.15126,-54.42283 -0.37872,-75.1872 m 0.31261,27.94562 c -0.42993,-11.12588 -0.66291,-22.4499 -0.83297,-32.37567 -0.22905,-13.36867 -0.30465,-20.80486 -0.52501,-31.50048 -0.18905,-9.17561 -0.41622,-16.51921 -0.7183,-22.20997 0.0133,-0.49307 0.0165,-0.98499 0.01,-1.4757 m -2.60273,16.89557 c 0.0278,-8.0233 -0.2179,-14.6699 -0.53656,-19.42032 0.15185,-6.53462 -2.02492,-12.72999 -5.9829,-18.20595 -3.96241,-5.4821 -9.71042,-10.24583 -16.72178,-13.94474 -7.12823,-3.76057 -15.54197,-6.40942 -24.65272,-7.60042 m 24.58064,8.3295 c -12.22536,-7.1374 -29.34088,-11.59813 -47.28393,-10.94554 -4.48206,-0.49675 -8.11077,-0.93358 -10.5426,-1.23999 -2.50688,-0.31587 -4.12469,-0.5406 -4.97823,-0.67762 -0.43373,-0.0696 -0.68756,-0.11919 -0.78752,-0.15139 -0.025,-0.008 -0.0405,-0.0151 -0.0468,-0.0211 -0.003,-0.003 -0.004,-0.006 -0.003,-0.008 10e-4,-0.003 0.005,-0.005 0.01,-0.008 0.021,-0.0101 0.0741,-0.0197 0.15549,-0.0288 0.32586,-0.0363 1.11027,-0.0653 2.15478,-0.0915 1.72591,-0.0434 5.58356,-0.10441 7.82392,-0.153 1.30296,-0.0283 2.47325,-0.059 3.31978,-0.0933 0.42288,-0.0171 0.7646,-0.035 1.00031,-0.0539 0.11788,-0.009 0.20937,-0.0191 0.27129,-0.0291 0.031,-0.005 0.0546,-0.01 0.0704,-0.0151 0.0158,-0.005 0.024,-0.0103 0.0236,-0.0158 -3.84396,-0.21474 -7.68968,-0.43559 -11.53075,-0.65775 m 2.75033,-3.61695 c 0.29401,0.0128 0.62531,0.0289 0.98663,0.0479 2.28851,0.1203 5.38506,0.32949 8.24203,0.51495 1.37395,0.0892 2.62549,0.16811 3.51943,0.2136 0.4492,0.0228 0.81202,0.0375 1.0627,0.0412 0.12532,0.002 0.2225,9.4e-4 0.28839,-0.003 0.0329,-0.002 0.058,-0.005 0.0749,-0.008 0.0169,-0.004 0.0255,-0.008 0.0254,-0.013 -20.35476,0.6547 -40.23133,1.78296 -59.76179,3.91459 m 9.48709,0.0753 c -32.33723,0.42697 -64.10165,0.0507 -95.79358,0.10893 m 35.32284,-0.65576 c -30.69983,0.54822 -62.15849,0.16863 -94.84049,0.21078 m 29.91329,-1.30506 c -32.95976,-1.13465 -67.04354,-1.54357 -104.12978,-4.43561 m 25.42567,2.40494 c -31.50132,0.74019 -62.07889,2.14472 -91.50231,6.21101 m 23.4611,-1.32812 c -29.08997,0.9446 -60.33698,-0.97494 -90.90357,-3.44811 m 27.28526,5.98646 c -26.62148,-1.05552 -52.74885,-1.17787 -78.63831,-2.39684 m 14.90056,2.63155 c -19.56955,-0.14453 -40.69348,0.2938 -62.22095,1.14564 10e-6,0 -0.005,0.004 -0.005,0.004 -9.09686,0.36051 -17.60085,3.42746 -24.71666,8.44993 M 937.92939,762.61442 938.79928,601.7574 M 608.7559,222.26815 l -143.51562,0 m 427.39192,0 -149.14062,0 m -424.08766,372.90604 0,190.15625 m 588.40894,349.05986 34.8251,-42.3609"
       style="fill:none;fill-opacity:1;stroke:#000000;stroke-width:0.925888;stroke-linecap:round;stroke-linejoin:round;stroke-miterlimit:4;stroke-dasharray:none;stroke-dashoffset:0;stroke-opacity:1"
       inkscape:connector-curvature="0"
       sodipodi:nodetypes="ssssscccccs" />
    <path
       inkscape:connector-curvature="0"
       style="opacity:0;fill:#ffffff"
       d="m 382.92397,208.00705 490.02326,0 0,490.02327 -490.02326,0 z"
       id="path4237" />
    <path
       d="m 526.63477,286.87591 c -1.76388,0.088 -3.50577,0.42686 -5.11461,1.01738 l -99.26608,36.42729 c -4.29057,1.5744 -8.12845,5.12707 -10.04929,9.27408 -1.92087,4.14413 -2.14195,9.37744 -0.56852,13.66706 l 63.85616,174.06833 c 1.57247,4.2896 5.12419,8.15811 9.27025,10.07801 4.14605,1.9218 9.37934,2.14385 13.66705,0.56945 l 99.26799,-36.4292 c 4.29057,-1.57343 8.12846,-5.12515 10.04931,-9.27121 l 0.0287,-0.0604 c 1.89692,-4.13648 2.10556,-9.33819 0.5398,-13.60771 L 544.45942,298.53978 c -1.56482,-4.26857 -5.08973,-8.11984 -9.2109,-10.04931 l -0.0594,-0.0286 c -2.07302,-0.96186 -4.42456,-1.48921 -6.7895,-1.58684 -0.59147,-0.024 -1.1772,-0.0286 -1.76485,0 z m 37.38725,13.03922 61.10265,166.53134 c 3.26363,8.90083 2.8473,18.76828 -1.13701,27.36761 -3.9843,8.60029 -11.23033,15.27972 -20.12732,18.54336 l -26.26219,9.63105 57.42461,2.66068 c 4.56525,0.21343 9.48463,-1.58875 12.8631,-4.6648 3.37657,-3.07891 5.61805,-7.81931 5.83052,-12.38457 l 8.61368,-185.19433 c 0.21248,-4.56334 -1.55811,-9.51143 -4.63512,-12.88991 -3.07795,-3.37848 -7.8174,-5.61804 -12.38266,-5.83146 l -81.29121,-3.77088 z m 115.80628,31.8228 -8.25574,176.70124 c -0.44026,9.46836 -4.62843,18.41129 -11.63423,24.79402 -7.00581,6.38371 -16.2837,9.71243 -25.75205,9.27217 l -24.94143,-1.16763 66.39624,22.10367 c 4.33555,1.44231 9.58225,1.0595 13.66705,-0.98578 4.08672,-2.04815 7.50157,-6.01333 8.94388,-10.34983 l 58.53004,-175.92027 c 1.44231,-4.33747 1.05948,-9.58321 -0.9858,-13.66897 -2.04814,-4.08671 -6.01331,-7.53219 -10.34983,-8.97259 l -65.61718,-21.80411 z m 92.23731,55.09412 -56.82548,170.92622 c -2.99278,8.99366 -9.44155,16.45216 -17.91647,20.6968 l -0.09,0.0286 c -8.45481,4.20731 -18.25144,4.8964 -27.21638,1.91415 l -19.50139,-6.48898 41.4529,35.44055 c 3.47419,2.96886 8.48449,4.57482 13.04017,4.21783 4.55568,-0.35795 9.20517,-2.71809 12.17401,-6.19228 l 120.47205,-140.9869 c 2.96885,-3.47419 4.57483,-8.45577 4.21688,-13.01146 -0.35604,-4.55567 -2.74682,-9.23387 -6.221,-12.20272 l -63.58435,-54.34281 z"
       id="path4239"
       inkscape:connector-curvature="0"
       style="fill:#000000"
       sodipodi:nodetypes="cccccccccccccccccccccccccccccccccccccccccccccccccccccccccc" />
    <text
       xml:space="preserve"
       style="font-style:normal;font-variant:normal;font-weight:normal;font-stretch:normal;font-size:181.18063354px;line-height:125%;font-family:'KG Second Chances Sketch';-inkscape-font-specification:'KG Second Chances Sketch';letter-spacing:0px;word-spacing:0px;fill:#dca6f9;fill-opacity:1;stroke:none;stroke-width:1px;stroke-linecap:butt;stroke-linejoin:miter;stroke-opacity:1"
       x="243.95737"
       y="692.23541"
       id="text4802"
       sodipodi:linespacing="125%"
       transform="matrix(1.0476827,-0.37420111,0.33182149,0.83597069,0,0)"><tspan
         sodipodi:role="line"
         id="tspan4804"
         x="243.95737"
         y="692.23541">S</tspan></text>
  </g>
</svg>
